<?xml version="1.0" standalone="no"?>
<!DOCTYPE svg PUBLIC "-//W3C//DTD SVG 20010904//EN"
 "http://www.w3.org/TR/2001/REC-SVG-20010904/DTD/svg10.dtd">
<svg version="1.0" xmlns="http://www.w3.org/2000/svg"
 width="1640.000000pt" height="2360.000000pt" viewBox="0 0 1640.000000 2360.000000"
 preserveAspectRatio="xMidYMid meet">

<g transform="translate(0.000000,2360.000000) scale(0.100000,-0.100000)"
fill="#000000" stroke="none">
<path d="M5998 15138 c8 -8 28 -15 54 -17 4 -1 38 -27 75 -59 82 -69 185 -144
273 -197 36 -22 67 -42 70 -45 3 -3 39 -27 80 -54 99 -65 178 -133 273 -235
l78 -84 -78 -31 c-166 -67 -327 -177 -444 -306 -68 -75 -149 -189 -149 -209 0
-5 -4 -11 -8 -13 -22 -9 -97 -225 -108 -311 -4 -27 -13 -51 -20 -54 -12 -4
-215 75 -362 143 -29 13 -55 24 -58 24 -2 0 -75 34 -162 76 -86 41 -167 80
-179 85 -13 5 -33 13 -45 19 -219 92 -383 134 -534 134 -95 0 -104 -1 -142
-28 -77 -53 -106 -133 -106 -291 0 -93 3 -119 23 -170 52 -129 158 -303 268
-435 107 -130 230 -287 290 -370 33 -47 73 -98 87 -113 14 -15 26 -31 26 -34
0 -8 80 -114 95 -128 7 -5 13 -13 13 -18 1 -4 32 -53 70 -110 114 -170 137
-202 145 -205 4 -2 7 -8 7 -12 0 -5 11 -26 25 -46 14 -20 25 -42 25 -49 0 -7
-48 -25 -117 -44 -65 -18 -185 -50 -268 -72 -82 -22 -198 -54 -258 -71 -59
-16 -113 -31 -120 -33 -6 -1 -27 -6 -44 -10 -18 -4 -33 -11 -33 -15 0 -7 104
-102 148 -135 7 -5 23 -19 35 -31 12 -11 49 -43 82 -70 33 -27 77 -65 98 -84
21 -19 49 -41 61 -50 20 -14 73 -60 117 -101 9 -9 23 -21 32 -25 12 -8 37 -29
151 -127 11 -11 50 -42 85 -70 l63 -52 -58 -3 c-130 -7 -334 41 -701 163 -138
46 -263 86 -277 89 -14 3 -30 7 -35 10 -17 11 -276 74 -346 85 -131 20 -145
21 -283 22 -128 1 -142 -1 -210 -27 -87 -34 -137 -78 -152 -134 -12 -44 -6
-126 12 -175 13 -33 122 -190 141 -202 7 -5 17 -15 22 -24 6 -9 57 -74 115
-144 58 -69 116 -141 130 -159 14 -17 36 -43 48 -56 13 -14 58 -68 100 -120
42 -52 79 -97 82 -100 26 -22 323 -449 370 -533 8 -14 43 -75 77 -134 95 -166
123 -243 123 -345 0 -53 -2 -59 -34 -83 -22 -16 -57 -30 -97 -36 -110 -18
-327 0 -469 40 -19 6 -46 12 -60 15 -14 2 -65 14 -115 26 -49 12 -99 23 -110
25 -11 1 -27 5 -35 8 -8 3 -44 12 -80 21 -63 14 -83 18 -180 34 -25 4 -81 7
-125 6 -121 -1 -189 -44 -237 -149 -20 -44 -23 -70 -26 -225 -5 -213 6 -288
90 -605 47 -178 92 -321 160 -505 45 -120 50 -146 54 -235 5 -95 4 -101 -19
-126 -24 -26 -117 -89 -149 -102 -19 -7 -25 -27 -8 -27 19 0 125 57 151 82 61
57 73 96 59 203 -9 69 -23 119 -88 305 -26 74 -60 182 -92 285 -10 35 -59 215
-66 248 -13 53 -26 114 -30 142 -3 17 -10 47 -15 67 -14 54 -12 410 2 459 17
56 78 122 128 139 57 19 230 7 366 -25 60 -14 119 -27 130 -29 11 -2 27 -7 35
-10 8 -3 26 -7 40 -10 14 -2 79 -18 145 -35 66 -17 149 -35 185 -41 36 -5 76
-12 90 -15 48 -9 255 -6 307 5 58 13 117 62 125 105 20 105 -33 264 -153 458
-27 43 -49 81 -49 84 0 8 -143 222 -203 303 -31 41 -80 108 -109 148 -51 71
-155 201 -295 368 -38 44 -84 100 -103 125 -19 24 -82 99 -139 167 -57 69
-119 152 -138 185 -29 53 -34 70 -35 130 -1 87 15 110 108 157 l69 35 180 -1
c219 0 368 -27 645 -116 69 -22 132 -41 140 -43 8 -2 56 -18 105 -35 126 -44
333 -107 413 -126 151 -36 199 -42 309 -42 l103 -1 137 -116 c76 -65 149 -127
163 -139 14 -12 65 -55 115 -96 49 -41 111 -93 136 -115 25 -22 55 -47 65 -55
10 -8 75 -62 144 -120 68 -58 134 -112 145 -121 11 -9 58 -49 105 -89 47 -39
94 -79 105 -89 146 -122 298 -251 333 -282 l44 -39 -28 -15 c-16 -9 -96 -54
-178 -101 -82 -46 -150 -84 -152 -84 -2 0 -41 -23 -88 -50 -47 -27 -87 -50
-89 -50 -2 0 -76 -41 -163 -91 -88 -51 -188 -108 -224 -127 -36 -19 -102 -57
-148 -83 -45 -27 -84 -49 -87 -49 -2 0 -52 -28 -112 -62 -59 -33 -128 -72
-153 -86 -25 -14 -63 -36 -85 -50 -22 -14 -40 -24 -40 -21 0 2 -13 -6 -30 -17
-16 -12 -54 -33 -83 -48 -29 -15 -55 -33 -58 -40 -4 -12 52 -188 87 -271 4
-11 20 -58 35 -105 14 -47 30 -94 35 -105 11 -26 59 -164 66 -190 2 -11 9 -29
14 -40 5 -11 35 -99 68 -195 33 -96 94 -274 136 -395 42 -121 90 -258 106
-305 15 -47 44 -130 64 -185 19 -55 49 -140 65 -190 17 -49 34 -99 39 -110 5
-11 19 -51 32 -90 24 -75 45 -107 57 -89 4 6 15 13 24 17 17 6 15 37 -2 37 -5
0 -6 9 -3 20 3 11 2 28 -2 37 -8 21 -10 42 -19 208 -4 66 -8 129 -11 140 -2
11 -6 65 -10 120 -3 55 -7 123 -10 150 -2 28 -7 86 -10 130 -3 44 -8 103 -10
130 -2 28 -7 93 -10 145 -4 52 -8 105 -10 117 -6 35 -23 270 -30 408 -3 50 -7
110 -10 135 -3 25 -7 88 -10 140 -3 52 -8 117 -11 145 -6 48 -6 49 13 35 28
-21 120 -95 171 -138 24 -20 52 -41 63 -46 10 -5 19 -12 19 -16 0 -4 37 -36
83 -71 45 -35 87 -68 92 -75 11 -12 300 -246 344 -278 14 -11 42 -34 62 -50
20 -17 44 -38 55 -46 153 -122 223 -179 244 -196 65 -56 125 -105 206 -169 49
-38 91 -73 92 -77 2 -5 8 -8 13 -8 5 0 24 -16 43 -36 l34 -36 143 87 c79 49
182 111 228 139 45 28 91 56 100 61 9 6 63 39 120 75 56 36 144 91 194 122 51
31 126 77 167 103 41 25 122 75 180 111 58 35 113 71 123 79 9 8 17 13 17 10
0 -3 18 6 41 21 35 21 43 23 52 11 7 -8 57 -51 112 -97 156 -130 197 -164 209
-175 6 -6 58 -51 116 -99 58 -49 129 -109 159 -135 30 -25 64 -53 75 -61 30
-20 41 -33 49 -52 8 -22 57 -25 57 -4 0 8 -5 18 -11 22 -6 3 -8 17 -4 33 6 24
14 71 31 176 3 22 24 144 45 270 22 127 46 271 53 320 8 50 19 117 25 150 6
33 13 78 16 100 4 22 10 56 15 75 4 19 11 56 14 81 4 25 9 57 11 70 15 83 92
542 126 744 21 132 44 264 50 294 6 30 12 63 14 75 5 35 35 215 55 331 11 61
53 310 94 555 41 245 77 461 81 480 3 19 14 82 24 140 10 58 19 112 20 120 0
8 5 35 9 60 10 46 52 289 57 325 2 11 10 61 18 110 27 156 66 388 72 430 4 22
12 72 20 110 17 88 34 191 39 230 2 17 14 84 26 150 40 225 52 306 45 322 -11
30 -25 -2 -40 -93 -8 -49 -17 -100 -19 -114 -11 -57 -38 -217 -42 -242 -11
-78 -62 -381 -84 -498 -18 -99 -38 -221 -45 -272 -1 -13 -5 -36 -8 -53 -3 -16
-24 -138 -47 -270 -22 -132 -44 -262 -50 -290 -5 -27 -16 -99 -25 -160 -9 -60
-20 -126 -25 -145 -5 -19 -11 -53 -14 -75 -2 -22 -12 -80 -21 -130 -17 -92
-46 -258 -49 -285 -2 -8 -6 -40 -11 -70 -4 -30 -9 -64 -12 -75 -6 -28 -80
-455 -103 -595 -10 -63 -43 -261 -73 -440 -31 -179 -58 -343 -61 -365 -4 -22
-9 -47 -11 -55 -3 -8 -22 -121 -44 -250 -43 -257 -42 -251 -66 -395 -9 -55
-18 -111 -21 -125 -3 -14 -11 -65 -19 -115 -8 -49 -17 -101 -20 -115 -3 -14
-8 -41 -11 -60 -22 -139 -66 -398 -70 -413 -6 -19 2 -25 -225 168 -58 50 -157
133 -219 185 -226 190 -266 226 -263 235 3 10 -27 71 -102 210 -20 39 -64 122
-97 185 -33 63 -79 151 -103 195 -23 44 -61 114 -83 155 -22 41 -62 116 -88
165 -27 50 -60 113 -74 140 -14 28 -27 52 -30 55 -3 3 -16 28 -29 55 -13 28
-47 90 -74 139 -27 49 -77 144 -112 210 -35 67 -79 150 -99 186 -19 36 -59
111 -87 167 -29 56 -59 105 -67 108 -8 3 -72 -28 -142 -67 -181 -102 -243
-137 -260 -145 -8 -3 -17 -9 -20 -12 -3 -4 -31 -19 -62 -36 -32 -16 -58 -34
-58 -39 0 -5 -2 -7 -6 -4 -3 3 -59 -25 -126 -63 l-121 -68 -56 47 c-31 26 -61
52 -67 57 -6 6 -33 28 -60 50 -27 22 -79 67 -117 100 -38 33 -84 71 -101 85
-17 14 -85 70 -150 125 -66 55 -140 118 -167 140 -260 219 -405 341 -409 345
-3 3 -67 57 -142 119 -212 175 -216 179 -193 186 98 32 142 65 175 132 55 108
25 318 -75 527 -19 39 -64 123 -100 186 -36 63 -65 120 -65 126 0 6 30 19 68
29 37 9 123 33 192 52 69 19 135 36 147 39 12 2 34 9 48 14 14 5 25 7 25 5 0
-2 12 0 27 6 14 5 94 28 177 49 83 22 183 49 221 60 39 11 77 22 85 25 159 45
262 65 280 55 27 -14 126 -45 235 -71 75 -19 120 -22 275 -23 180 -1 232 3
335 25 68 14 178 49 190 60 5 5 15 9 22 9 25 0 130 54 223 115 119 78 238 188
292 271 45 71 36 67 268 128 250 66 608 162 845 228 99 27 187 51 195 53 8 2
58 15 110 29 52 14 115 31 140 37 145 39 411 111 445 121 22 6 47 13 55 14 65
12 170 49 170 60 0 18 0 18 -90 -6 -41 -11 -86 -23 -100 -26 -14 -3 -54 -13
-90 -23 -36 -10 -137 -38 -225 -61 -88 -23 -185 -49 -215 -58 -65 -18 -56 -16
-100 -26 -19 -4 -105 -27 -190 -51 -85 -23 -177 -48 -205 -55 -27 -7 -120 -32
-205 -56 -188 -52 -242 -67 -255 -70 -23 -5 -218 -56 -320 -84 -60 -17 -120
-33 -132 -36 -23 -6 -32 9 -14 20 9 6 68 141 77 175 2 9 13 50 25 91 33 119
31 330 -5 474 -15 61 -40 137 -55 170 -15 34 -34 76 -42 94 -8 17 -17 32 -21
32 -5 0 -8 6 -8 13 0 7 -9 23 -20 35 -11 12 -20 24 -20 27 0 31 -192 236 -285
305 -128 94 -376 215 -480 234 -16 2 -47 10 -68 16 -110 32 -380 46 -512 25
-84 -13 -201 -38 -216 -46 -12 -6 -28 5 -66 49 -82 93 -185 189 -264 247 -41
30 -77 55 -81 55 -14 0 -285 184 -338 229 -102 87 -127 103 -170 105 -25 2
-37 -1 -32 -6z m1624 -684 c154 -32 253 -65 375 -126 223 -112 420 -295 533
-496 13 -23 27 -42 32 -42 4 0 7 -3 6 -7 -2 -5 7 -33 19 -63 40 -98 46 -115
48 -130 1 -8 7 -33 13 -55 22 -81 32 -296 17 -370 -3 -16 -11 -55 -16 -85 -18
-92 -78 -237 -117 -286 -12 -14 -51 -30 -122 -49 -58 -16 -177 -48 -265 -71
-88 -24 -185 -51 -215 -59 -30 -8 -89 -24 -130 -35 -41 -12 -83 -23 -93 -25
-34 -8 -402 -107 -417 -112 -8 -3 -22 -7 -30 -9 -8 -2 -58 -15 -110 -29 -52
-14 -132 -35 -178 -46 l-83 -22 -82 42 c-184 92 -367 249 -475 406 -15 22 -30
41 -34 43 -5 2 -8 8 -8 13 0 5 -10 26 -23 47 -53 87 -100 222 -122 357 -14 86
-20 215 -10 215 3 0 71 -32 152 -71 202 -98 375 -176 453 -205 36 -13 74 -28
85 -33 11 -5 43 -16 70 -24 121 -36 161 -42 300 -41 115 0 123 2 182 32 118
61 140 124 119 342 -13 142 -86 305 -241 545 -28 44 -76 118 -105 165 -58 92
-91 136 -158 210 l-43 48 28 7 c15 4 39 9 53 11 14 1 59 9 100 17 121 23 355
19 492 -9z m-639 -106 c92 -106 318 -456 393 -610 68 -138 94 -238 97 -365 2
-93 -1 -114 -19 -148 -26 -50 -93 -92 -170 -106 -56 -11 -217 -8 -259 5 -11 3
-40 10 -65 16 -41 10 -236 78 -285 100 -11 5 -58 27 -105 48 -47 22 -107 49
-135 61 -27 13 -57 27 -65 32 -19 12 -177 88 -209 100 -22 9 -23 12 -16 77 6
68 47 193 94 292 40 84 144 222 224 295 68 62 226 175 244 175 5 0 14 5 21 12
15 15 162 77 184 78 9 0 41 -28 71 -62z m-2108 -383 c115 -21 120 -22 209 -51
116 -38 209 -76 327 -132 207 -99 303 -143 319 -147 3 0 28 -11 55 -24 28 -12
72 -32 99 -42 27 -11 68 -28 90 -38 23 -9 60 -26 83 -36 l43 -18 0 -76 c1
-113 1 -110 16 -193 12 -69 26 -117 66 -228 7 -19 28 -61 46 -92 17 -32 32
-62 32 -67 0 -5 4 -11 8 -13 5 -1 25 -28 45 -59 83 -126 293 -308 443 -384 41
-21 74 -39 74 -41 0 -4 -27 -12 -355 -100 -154 -42 -320 -87 -370 -101 -49
-13 -99 -26 -110 -29 -11 -2 -69 -18 -130 -35 -60 -17 -139 -38 -174 -46 -75
-19 -58 -32 -156 120 -34 54 -75 111 -89 128 -14 16 -26 33 -26 37 0 9 -150
225 -192 277 -14 17 -96 125 -183 240 -86 116 -174 228 -195 250 -119 126
-282 399 -306 510 -20 90 -9 225 23 298 47 104 121 126 308 92z m3615 -1243
c0 -21 -212 -225 -280 -270 -245 -159 -478 -228 -760 -226 -156 2 -270 19
-429 66 -81 24 -79 28 24 50 28 6 56 15 63 20 6 6 12 8 12 5 0 -3 24 1 53 9
28 8 62 17 75 20 13 2 85 22 160 43 75 21 227 62 337 91 110 29 247 66 304 82
58 16 112 31 120 34 33 7 169 43 236 62 84 24 85 24 85 14z m-2869 -792 c4 -8
31 -53 58 -100 101 -172 179 -356 195 -460 23 -143 22 -124 7 -186 -21 -87
-92 -152 -184 -169 -35 -7 -42 -4 -95 42 -55 47 -143 121 -247 207 -27 23 -65
55 -85 72 -19 17 -48 42 -65 57 -16 14 -47 38 -67 54 -20 15 -107 87 -191 158
l-154 130 41 12 c22 6 68 18 101 27 33 8 103 27 155 42 99 27 113 31 170 44
19 4 54 15 78 23 23 9 42 15 42 13 0 -2 44 9 98 25 107 30 131 31 143 9z
m2418 -1945 c28 -55 72 -140 99 -190 26 -49 70 -132 97 -182 27 -51 53 -93 58
-93 6 0 8 -3 4 -6 -3 -3 18 -52 47 -108 100 -190 159 -301 176 -331 10 -16 37
-66 60 -110 24 -44 57 -107 75 -140 17 -33 60 -114 94 -180 75 -142 101 -187
115 -197 6 -4 7 -8 2 -8 -5 0 -3 -7 4 -15 7 -8 9 -15 5 -15 -5 0 -2 -8 6 -17
15 -19 23 -32 69 -118 29 -54 31 -67 5 -42 -36 34 -130 114 -150 127 -22 15
-93 74 -190 160 -28 25 -69 59 -90 75 -21 17 -57 47 -79 67 -23 21 -44 38 -47
38 -3 0 -22 15 -41 33 -19 17 -59 52 -88 77 -29 25 -69 59 -89 76 -20 17 -45
38 -56 47 -34 26 -240 201 -245 207 -3 3 -52 45 -110 92 -58 47 -116 96 -130
109 -25 23 -104 89 -191 159 -36 29 -97 81 -156 134 -6 6 -28 24 -48 40 l-37
30 24 18 c12 9 28 18 35 18 6 0 13 4 15 9 2 5 32 23 68 41 36 18 94 50 128 71
35 22 66 39 68 39 2 0 32 17 66 38 35 21 74 43 88 49 14 6 77 41 140 77 l115
66 17 -23 c9 -12 40 -67 67 -122z m-743 -402 c125 -103 249 -207 259 -219 6
-6 46 -40 90 -75 43 -35 113 -93 155 -129 42 -36 98 -83 125 -105 27 -22 71
-60 99 -84 28 -24 62 -53 76 -65 14 -12 77 -64 140 -116 63 -52 120 -100 125
-106 8 -10 165 -141 240 -201 11 -9 52 -44 90 -78 39 -34 84 -72 101 -86 17
-13 59 -48 93 -77 l62 -52 -38 -22 c-21 -13 -60 -37 -87 -55 -26 -18 -51 -33
-54 -33 -3 0 -20 -11 -38 -25 -18 -14 -35 -25 -38 -25 -10 0 -111 -64 -114
-72 -2 -4 -8 -8 -13 -8 -5 0 -28 -12 -52 -27 -23 -15 -51 -33 -62 -39 -22 -12
-359 -221 -470 -291 -38 -24 -79 -50 -90 -56 -11 -7 -34 -22 -52 -34 -17 -13
-34 -23 -37 -23 -2 0 -41 -23 -85 -51 l-80 -51 -49 39 c-66 50 -305 243 -362
292 -49 42 -108 90 -240 194 -47 37 -89 71 -95 75 -5 4 -39 33 -75 63 -36 30
-85 70 -110 89 -25 19 -54 43 -65 53 -11 10 -51 43 -90 72 -38 29 -79 61 -90
72 -11 10 -54 45 -95 78 -41 32 -77 61 -80 64 -3 4 -27 24 -55 46 -27 21 -52
42 -55 45 -21 22 -101 80 -111 80 -9 0 -10 -25 -5 -102 14 -211 26 -384 31
-428 2 -25 7 -79 10 -120 2 -41 7 -115 10 -165 4 -49 8 -106 10 -125 2 -19 6
-78 10 -130 4 -52 8 -115 10 -140 3 -25 7 -92 10 -150 3 -58 8 -121 10 -140 2
-19 7 -78 10 -130 5 -84 19 -258 31 -390 2 -25 6 -58 9 -75 3 -16 -11 15 -30
70 -19 54 -38 106 -42 115 -3 8 -8 22 -9 30 -2 8 -19 60 -39 115 -19 55 -55
159 -80 230 -24 72 -78 229 -120 350 -42 121 -101 292 -131 380 -30 88 -66
192 -80 230 -14 39 -29 84 -34 100 -10 36 -48 141 -63 175 -5 14 -12 34 -14
45 -1 11 -9 36 -17 55 -38 95 -99 280 -95 284 7 6 196 113 291 165 73 41 311
174 333 188 11 7 29 16 40 21 11 5 43 23 71 39 73 44 195 112 304 171 36 20
67 39 68 44 2 4 7 8 12 8 4 0 39 17 77 39 37 21 100 55 138 76 39 21 94 53
123 72 29 18 54 33 55 33 2 0 47 24 101 54 l98 54 27 -23 c14 -13 58 -50 97
-82z"/>
<path d="M9583 15110 c2 -19 15 -78 28 -130 21 -84 23 -119 24 -305 0 -168 -4
-227 -19 -295 -60 -274 -178 -508 -345 -683 -117 -122 -287 -225 -405 -246
l-41 -6 3 -80 c5 -114 -25 -297 -63 -387 -5 -13 -3 -18 8 -18 8 0 17 5 19 10
2 6 205 64 452 130 248 66 458 122 467 125 29 10 94 201 128 379 59 307 52
682 -20 986 -45 195 -154 462 -215 527 l-26 28 5 -35z m116 -225 c115 -288
157 -545 148 -913 -4 -179 -9 -241 -31 -355 -29 -154 -93 -355 -116 -368 -19
-10 -882 -240 -887 -236 -1 2 4 35 12 73 18 88 35 225 35 284 l0 46 58 18
c506 159 854 861 736 1486 -17 89 -16 86 -5 75 6 -6 28 -55 50 -110z"/>
<path d="M9920 14587 c0 -2 9 -25 20 -51 74 -166 96 -528 54 -866 -15 -117
-65 -326 -86 -360 -7 -11 -9 -22 -5 -26 6 -6 1001 244 1065 267 36 14 25 29
-20 29 -63 0 -153 47 -214 111 -66 71 -89 130 -81 209 4 33 4 60 0 60 -4 0
-26 -10 -50 -21 -61 -30 -197 -38 -241 -15 -47 24 -106 105 -126 172 -40 136
-89 272 -111 310 -38 66 -103 142 -133 158 -33 16 -72 29 -72 23z m136 -133
c57 -80 94 -163 133 -297 38 -131 49 -155 104 -211 56 -58 103 -71 206 -57 42
6 86 14 99 17 21 6 22 3 22 -42 0 -101 84 -217 202 -279 l57 -31 -207 -53
c-114 -30 -326 -85 -471 -122 -145 -38 -266 -68 -268 -65 -2 2 3 21 11 42 72
185 112 580 86 854 -11 119 -41 268 -65 324 -17 39 45 -15 91 -80z"/>
<path d="M12367 11345 c-1 -2 -51 -5 -112 -9 -60 -4 -121 -8 -135 -10 -52 -7
-146 -27 -165 -36 -25 -11 -238 -81 -320 -104 -83 -24 -125 -45 -118 -62 3 -8
13 -14 22 -14 28 0 142 -42 201 -73 165 -89 358 -309 462 -527 55 -115 114
-269 124 -327 2 -12 9 -35 15 -50 6 -16 10 -29 9 -31 -1 -2 11 -75 15 -92 1
-5 8 -66 21 -185 9 -83 3 -212 -16 -330 -15 -98 -57 -235 -72 -235 -15 0 -3
-89 23 -167 18 -55 88 -164 143 -222 60 -64 174 -140 254 -171 31 -12 66 -25
77 -30 70 -26 114 -33 225 -36 86 -2 145 2 190 12 206 48 527 270 677 468 25
33 50 63 55 64 4 2 8 8 8 12 0 5 13 28 29 52 45 66 121 231 140 303 39 148 44
185 44 330 1 261 -61 469 -205 694 -261 407 -768 700 -1313 760 -92 10 -272
20 -278 16z m283 -49 c328 -43 602 -144 859 -319 112 -77 322 -276 376 -357
17 -25 33 -46 38 -48 4 -2 7 -8 7 -13 0 -5 17 -37 38 -71 46 -76 84 -156 92
-193 1 -5 8 -25 16 -44 34 -82 59 -239 59 -376 0 -406 -229 -796 -620 -1054
-71 -48 -235 -127 -281 -136 -21 -5 -46 -10 -54 -13 -8 -3 -69 -5 -135 -6
-145 0 -232 21 -369 91 -117 61 -245 184 -294 283 -44 90 -60 170 -43 213 45
111 77 290 80 452 5 278 -75 611 -201 845 -55 102 -118 200 -129 200 -5 0 -9
7 -9 15 0 8 -4 15 -10 15 -5 0 -10 6 -10 13 0 17 -131 149 -202 204 -72 55
-166 109 -219 125 -35 10 -38 13 -22 22 10 6 20 11 23 11 3 0 25 8 50 17 25 9
72 24 105 33 33 9 69 20 80 25 80 33 185 58 280 66 39 4 71 8 73 9 11 10 326
3 422 -9z"/>
<path d="M10953 10520 c-156 -46 -303 -166 -376 -305 -69 -134 -83 -326 -34
-463 142 -401 592 -542 940 -293 91 64 192 215 212 316 5 22 10 47 12 55 18
84 9 231 -20 300 -6 14 -11 27 -11 30 -1 3 -15 32 -31 65 -18 36 -56 86 -100
130 -86 85 -89 87 -162 124 -120 61 -304 78 -430 41z m315 -34 c80 -22 158
-67 232 -132 236 -210 247 -581 23 -810 -239 -244 -639 -225 -850 41 -147 186
-164 433 -45 639 72 124 162 199 306 253 90 34 229 38 334 9z"/>
<path d="M10445 9081 c-85 -22 -140 -79 -170 -175 -9 -32 -17 -80 -16 -106 1
-55 47 -166 86 -207 14 -16 42 -49 63 -74 20 -26 61 -64 91 -85 30 -22 59 -44
65 -49 13 -12 145 -95 151 -95 3 0 34 -14 71 -30 134 -62 441 -134 522 -124
10 1 78 8 152 14 141 13 172 22 303 86 150 73 220 184 221 349 0 56 -7 86 -33
153 -46 115 -113 186 -224 241 -93 45 -198 79 -273 87 -75 9 -184 -12 -238
-46 -135 -86 -301 -83 -481 8 -38 20 -72 35 -75 35 -3 0 -16 4 -30 10 -32 13
-146 18 -185 8z m230 -65 c152 -72 185 -82 301 -92 96 -8 170 10 254 61 41 25
75 36 131 44 70 10 84 8 180 -18 209 -55 324 -142 380 -285 42 -109 46 -155
19 -245 -28 -96 -107 -189 -180 -212 -19 -7 -48 -19 -65 -27 -60 -32 -102 -42
-253 -57 -155 -16 -266 -13 -344 11 -9 3 -25 6 -35 8 -78 15 -257 80 -340 124
-235 123 -425 335 -427 475 -1 127 49 205 151 237 77 24 141 17 228 -24z"/>
<path d="M12327 8403 c-9 -85 -11 -97 -17 -103 -3 -3 -16 -30 -30 -60 -14 -30
-27 -57 -31 -60 -3 -3 -17 -22 -31 -43 -42 -62 -125 -145 -181 -181 -58 -36
-114 -59 -128 -50 -5 3 -18 3 -29 -1 -18 -6 -18 -7 -2 -34 48 -78 112 -130
203 -167 80 -31 99 -35 232 -41 207 -10 379 28 583 129 226 111 438 323 450
450 4 46 18 45 -121 7 -64 -17 -109 -21 -230 -22 -162 -1 -220 8 -354 54 -104
36 -192 85 -250 138 -24 23 -47 41 -51 41 -4 0 -10 -26 -13 -57z m85 -39 c81
-69 279 -144 420 -161 76 -9 254 -9 320 -1 31 4 76 14 100 23 68 23 71 21 43
-35 -37 -73 -151 -210 -175 -210 -5 0 -13 -6 -17 -14 -4 -7 -48 -40 -98 -73
-84 -56 -201 -112 -305 -146 -165 -54 -390 -68 -534 -33 -88 22 -188 77 -224
124 l-24 31 29 7 c86 20 200 107 280 214 72 96 133 230 133 291 0 25 1 25 52
-17z"/>
<path d="M10236 8308 c-2 -7 -13 -62 -25 -123 -11 -60 -30 -153 -41 -205 -11
-52 -22 -114 -25 -138 -3 -24 -10 -54 -15 -67 -5 -14 -7 -25 -5 -25 2 0 1 -10
-4 -23 -5 -13 -12 -41 -15 -63 -4 -21 -16 -86 -27 -144 -34 -181 -35 -167 3
-173 18 -2 71 -16 118 -31 148 -46 296 -68 474 -68 259 -1 453 39 645 133 185
91 301 233 304 369 0 55 -9 115 -24 142 -10 18 -17 19 -67 13 -69 -9 -234 -9
-311 -1 -157 18 -382 77 -511 133 -184 80 -318 162 -409 250 -36 34 -59 42
-65 21z m99 -93 c242 -202 704 -359 1037 -354 57 0 123 5 148 9 25 5 48 5 52
1 16 -15 21 -130 7 -178 -7 -26 -12 -50 -10 -52 1 -2 -1 -7 -6 -10 -4 -3 -21
-23 -36 -44 -77 -103 -213 -189 -387 -244 -119 -38 -246 -56 -420 -59 -202 -3
-281 5 -440 47 -177 46 -206 59 -190 87 9 16 66 293 74 360 3 17 7 39 10 49 3
10 22 104 41 208 45 238 45 236 59 228 6 -4 34 -25 61 -48z"/>
<path d="M6467 7108 l3 -853 92 -182 c50 -101 96 -183 101 -183 6 0 8 -3 4 -6
-6 -7 231 -479 265 -526 11 -16 17 -28 13 -28 -12 0 155 -305 168 -308 14 -3
76 25 377 171 80 38 186 89 235 112 50 23 171 82 270 130 267 129 443 215 600
290 77 37 235 113 350 170 116 56 269 130 340 164 l130 62 1 122 c0 67 3 183
7 257 3 74 9 213 13 308 6 157 8 171 23 158 9 -7 84 -55 166 -106 83 -51 186
-116 230 -144 44 -29 116 -74 160 -101 44 -26 93 -57 108 -67 25 -18 32 -19
60 -7 18 7 56 30 84 51 29 21 55 38 59 37 12 -3 103 46 104 56 0 6 -26 33 -57
60 -32 28 -83 73 -113 100 -31 28 -87 77 -125 110 -65 57 -148 130 -225 199
-20 17 -67 58 -105 91 -38 33 -151 132 -251 220 -400 353 -536 470 -549 473
-19 4 -30 -2 -248 -145 -106 -70 -237 -155 -292 -191 -116 -76 -341 -223 -505
-331 -63 -42 -116 -79 -118 -83 -2 -5 -8 -8 -13 -8 -5 0 -47 -25 -94 -55 -47
-31 -91 -58 -98 -61 -11 -4 -77 45 -377 281 -35 28 -107 84 -160 125 -53 41
-114 89 -135 105 -21 17 -72 57 -114 90 -42 33 -78 62 -81 65 -3 3 -21 17 -40
30 -19 13 -37 27 -40 30 -3 3 -34 28 -70 55 -71 55 -106 84 -126 103 -7 6 -17
12 -22 12 -5 0 -7 -345 -5 -852z m2569 777 c6 -5 26 -23 45 -40 19 -16 81 -71
139 -123 207 -187 256 -230 295 -263 22 -19 42 -36 45 -39 3 -3 48 -43 100
-88 52 -46 131 -116 174 -155 44 -39 95 -84 115 -100 20 -16 59 -50 86 -75 28
-26 117 -105 198 -176 81 -70 147 -132 147 -136 0 -4 -12 -12 -27 -19 -16 -7
-63 -35 -105 -63 l-77 -50 -43 21 c-24 12 -54 30 -68 40 -25 19 -39 28 -245
156 -60 38 -141 89 -180 113 -38 25 -92 59 -120 76 -27 18 -61 32 -74 31 -29
0 -26 17 -36 -240 -4 -104 -8 -210 -10 -235 -2 -25 -6 -119 -10 -210 -7 -152
-14 -190 -35 -190 -5 0 -110 -49 -235 -110 -125 -60 -228 -110 -230 -110 -2 0
-100 -47 -217 -104 -117 -57 -256 -124 -308 -149 -52 -24 -162 -77 -245 -117
-82 -40 -213 -103 -290 -140 -77 -37 -214 -103 -305 -147 -248 -121 -381 -183
-392 -186 -6 -1 -34 43 -62 98 -156 304 -294 571 -336 650 -26 50 -88 169
-138 265 l-90 175 -4 832 -4 831 42 -29 c22 -17 103 -79 178 -140 75 -60 141
-109 146 -109 6 0 10 -4 10 -8 0 -5 18 -21 40 -38 22 -16 53 -39 68 -52 42
-35 48 -40 120 -95 37 -28 69 -54 72 -57 3 -4 24 -20 47 -37 42 -30 108 -83
142 -114 10 -9 75 -60 145 -112 l126 -97 140 93 c77 50 201 132 277 181 142
91 358 233 733 480 219 144 219 144 256 111z"/>
</g>
</svg>
