<?xml version="1.0" standalone="no"?>
<!DOCTYPE svg PUBLIC "-//W3C//DTD SVG 20010904//EN"
 "http://www.w3.org/TR/2001/REC-SVG-20010904/DTD/svg10.dtd">
<svg version="1.0" xmlns="http://www.w3.org/2000/svg"
 width="1640.000000pt" height="2360.000000pt" viewBox="0 0 1640.000000 2360.000000"
 preserveAspectRatio="xMidYMid meet">

<g transform="translate(0.000000,2360.000000) scale(0.100000,-0.100000)"
fill="#000000" stroke="none">
<path d="M5570 15649 c-100 -7 -190 -18 -199 -24 -3 -1 -22 -6 -41 -9 -268
-42 -526 -135 -805 -291 -74 -41 -221 -141 -293 -199 -112 -90 -336 -318 -413
-421 -74 -98 -139 -192 -139 -200 0 -2 -13 -23 -29 -47 -58 -86 -194 -391
-216 -485 -3 -10 -15 -58 -28 -108 -30 -116 -48 -206 -54 -275 -3 -30 -8 -89
-12 -130 -10 -98 -2 -357 13 -435 2 -11 7 -42 10 -68 28 -207 103 -435 213
-647 30 -58 61 -112 69 -121 8 -8 14 -18 14 -22 0 -8 86 -133 132 -192 46 -58
66 -72 74 -52 3 8 -21 49 -54 93 -121 161 -184 270 -276 476 -36 81 -83 231
-107 343 -7 33 -13 62 -14 65 -48 205 -37 663 20 885 9 32 17 66 19 74 12 65
107 323 128 348 6 7 8 13 4 13 -3 0 9 29 29 64 19 35 32 66 28 70 -3 3 -1 6 5
6 6 0 14 10 18 22 4 13 15 34 24 48 10 14 39 59 65 100 84 131 175 241 304
370 143 142 160 158 262 231 41 29 76 56 79 59 3 4 34 24 70 46 36 21 67 42
68 47 2 4 7 7 12 7 4 0 34 15 67 33 59 33 264 127 278 127 4 0 21 6 38 14 37
16 219 72 262 81 231 46 341 58 525 59 206 1 436 -27 579 -70 30 -9 62 -17 70
-19 83 -16 365 -138 470 -203 27 -16 38 -18 52 -9 12 8 15 16 9 27 -10 19
-262 148 -325 166 -5 1 -45 16 -87 32 -43 17 -78 28 -78 26 0 -3 -9 0 -19 6
-34 17 -282 68 -391 79 -143 15 -316 19 -430 10z"/>
<path d="M5767 15440 c-66 -21 -114 -57 -247 -188 -105 -102 -121 -112 -218
-142 -81 -25 -113 -22 -261 27 -140 46 -259 55 -311 25 -41 -25 -80 -96 -105
-194 -20 -77 -43 -99 -130 -118 -55 -12 -94 -49 -95 -88 0 -29 28 -92 50 -110
50 -41 143 -56 202 -31 16 6 65 47 108 89 89 87 121 106 200 115 48 5 67 2
134 -25 43 -17 94 -42 113 -57 27 -21 44 -26 81 -24 63 2 77 7 145 53 101 69
165 92 282 103 104 9 141 55 155 188 10 103 25 152 67 235 39 77 34 97 -36
144 -33 22 -61 22 -134 -2z"/>
<path d="M6290 15372 c-19 -2 -39 -8 -44 -13 -6 -5 -21 -9 -35 -9 -15 0 -53
-14 -85 -30 -32 -17 -65 -30 -72 -30 -17 0 -64 -58 -64 -80 0 -10 -5 -22 -10
-25 -6 -4 -8 -11 -5 -16 4 -5 2 -9 -3 -9 -29 0 -45 -226 -21 -313 6 -23 12
-46 13 -52 33 -149 96 -251 196 -315 55 -35 81 -44 195 -64 160 -28 194 -68
195 -239 0 -62 -1 -60 88 -140 55 -49 89 -122 102 -222 21 -166 32 -220 52
-256 35 -63 94 -76 140 -32 37 36 38 101 3 179 -14 30 -25 57 -25 60 0 3 -11
29 -24 57 -23 51 -64 185 -72 237 -2 14 -6 70 -9 125 -3 55 -10 121 -16 147
-13 57 -77 158 -116 183 -43 27 -90 85 -102 125 -12 40 -9 67 11 100 18 31
100 110 113 110 7 0 19 8 28 18 14 15 20 38 31 117 4 27 -34 158 -48 167 -6 4
-8 8 -3 8 15 0 -32 76 -70 111 -43 42 -80 62 -138 77 -80 21 -149 29 -205 24z"/>
<path d="M6800 14816 c0 -8 -6 -16 -12 -18 -10 -4 -10 -15 0 -55 7 -27 15 -63
17 -79 2 -16 6 -38 9 -49 2 -11 12 -63 21 -115 9 -52 20 -102 23 -110 2 -8 6
-28 8 -45 1 -16 11 -66 22 -110 11 -44 20 -87 20 -95 1 -8 6 -35 12 -60 6 -25
18 -79 26 -120 7 -41 27 -140 44 -220 17 -79 32 -154 34 -166 2 -11 14 -70 26
-130 13 -60 24 -118 25 -129 1 -11 5 -27 8 -35 6 -15 21 -88 52 -250 9 -47 19
-94 21 -105 3 -11 7 -31 10 -45 12 -66 45 -228 50 -250 3 -14 9 -43 14 -65 22
-118 52 -265 61 -305 6 -25 14 -65 19 -90 14 -70 28 -133 34 -155 3 -11 12
-51 21 -90 17 -78 36 -106 62 -89 9 5 17 21 18 35 2 22 -38 259 -65 384 -6 28
-13 64 -16 80 -3 17 -16 84 -29 150 -13 66 -27 134 -30 150 -3 17 -8 46 -11
65 -3 19 -11 60 -18 90 -8 30 -17 73 -22 95 -4 22 -8 42 -9 45 -5 21 -18 90
-20 112 -2 15 -8 44 -14 65 -5 21 -12 52 -14 68 -3 17 -8 41 -11 55 -3 14 -8
36 -10 50 -2 14 -9 46 -15 73 -6 26 -13 62 -16 80 -2 17 -11 68 -20 111 -8 44
-18 93 -21 110 -2 17 -7 39 -10 48 -6 21 -10 39 -34 173 -11 61 -24 128 -30
150 -8 34 -43 211 -55 280 -2 11 -8 45 -14 75 -6 30 -13 70 -16 89 -3 19 -7
37 -9 40 -2 3 -7 22 -10 41 -3 19 -12 63 -19 98 l-14 63 24 -6 c13 -3 47 -16
76 -30 28 -13 81 -36 116 -50 36 -15 81 -38 100 -51 20 -13 39 -24 42 -24 4 0
24 -8 45 -17 22 -9 41 -17 44 -18 19 -4 126 -65 177 -101 34 -24 66 -44 72
-44 6 0 11 -4 11 -9 0 -4 20 -19 45 -32 25 -13 45 -27 45 -31 0 -5 6 -8 13 -8
7 0 19 -9 27 -20 8 -11 19 -20 25 -20 11 0 63 -47 205 -185 84 -81 118 -118
215 -230 28 -32 59 -68 70 -79 46 -48 104 -124 100 -130 -3 -3 -2 -4 1 -1 9 6
71 -74 149 -191 33 -49 63 -90 67 -92 5 -2 8 -8 8 -13 0 -6 18 -34 40 -64 22
-30 40 -57 40 -61 0 -3 9 -19 21 -35 11 -16 17 -29 13 -29 -4 0 2 -8 12 -18
22 -20 28 -30 83 -127 21 -38 42 -81 46 -95 12 -38 35 -51 56 -31 9 9 18 23
20 31 6 28 -12 92 -41 149 -15 31 -43 85 -60 120 -39 80 -254 404 -313 471 -7
8 -33 40 -57 69 -25 30 -54 64 -65 76 -11 12 -49 54 -85 94 -130 145 -339 349
-420 411 -25 19 -51 41 -59 48 -8 8 -60 43 -115 80 -56 36 -117 78 -136 93
-32 25 -80 54 -126 76 -11 6 -47 24 -81 41 -35 18 -69 32 -77 32 -7 0 -19 6
-26 14 -6 8 -44 27 -83 42 -40 15 -85 32 -102 39 -16 7 -64 23 -105 35 -41 11
-82 24 -90 27 -34 14 -60 13 -60 -1z"/>
<path d="M5576 14765 c-54 -24 -105 -50 -115 -58 -29 -24 -86 -54 -138 -71
-50 -17 -52 -16 -100 5 -26 12 -62 35 -79 51 -38 35 -96 57 -144 54 -64 -5
-160 -62 -160 -95 -1 -9 -14 -31 -29 -49 -25 -30 -28 -39 -25 -90 13 -215 25
-262 90 -364 51 -79 68 -101 114 -146 44 -43 62 -50 158 -58 79 -6 168 7 277
42 28 8 55 16 60 18 6 1 15 4 20 8 6 3 42 11 82 18 l72 13 75 -38 c63 -32 83
-37 138 -37 92 0 119 7 243 67 122 59 190 82 249 84 22 1 44 5 50 9 6 3 18 7
26 9 37 5 49 54 29 114 -16 47 -18 49 -96 70 -97 28 -104 29 -148 34 -118 13
-184 51 -200 113 -3 13 -28 71 -55 128 -106 222 -191 259 -394 169z"/>
<path d="M6634 14726 c-7 -7 -15 -27 -18 -44 -6 -24 -3 -35 13 -51 26 -26 72
-27 94 -3 18 20 22 68 8 90 -11 18 -83 24 -97 8z"/>
<path d="M4265 14701 c-69 -32 -155 -127 -201 -221 -142 -290 -141 -289 -183
-327 -20 -18 -61 -42 -91 -53 -202 -78 -257 -130 -244 -233 4 -28 11 -61 17
-72 17 -33 193 -215 208 -215 4 0 12 -14 18 -31 27 -79 2 -122 -77 -134 -87
-12 -121 -27 -142 -60 -49 -79 -28 -166 45 -191 50 -18 247 -16 360 3 70 11
84 17 113 48 38 41 40 62 8 124 -13 25 -30 73 -37 106 -7 33 -15 67 -17 75
-11 37 -9 151 3 204 31 132 76 174 197 183 60 5 83 2 119 -14 94 -42 166 -13
191 75 17 58 62 88 117 76 33 -7 61 -8 94 -5 26 2 48 58 42 103 -7 47 -32 127
-45 143 -4 5 -10 40 -13 77 -3 37 -10 76 -16 86 -15 28 -68 59 -132 76 -30 8
-80 25 -112 39 -52 21 -62 30 -85 75 -17 34 -37 57 -58 67 -39 18 -31 18 -79
-4z"/>
<path d="M7055 14431 c-3 -12 -4 -34 -1 -49 4 -15 8 -37 11 -50 2 -13 6 -31 9
-40 3 -9 8 -30 10 -47 3 -16 15 -73 26 -125 12 -52 27 -126 35 -165 8 -38 17
-81 19 -95 6 -25 23 -112 32 -160 2 -14 7 -32 11 -40 3 -8 7 -29 9 -46 3 -17
22 -113 45 -215 22 -101 49 -224 59 -274 11 -49 29 -133 41 -185 23 -101 42
-197 61 -297 6 -35 14 -63 17 -63 3 0 7 -21 8 -47 2 -26 8 -63 15 -82 7 -20
11 -42 9 -49 -1 -7 2 -28 8 -45 6 -18 13 -52 16 -77 7 -49 21 -80 35 -80 19 0
16 18 -45 295 -43 195 -77 349 -82 375 -2 14 -11 57 -18 95 -27 146 -103 511
-159 775 -14 64 -23 104 -51 240 -2 8 -11 49 -20 90 -8 41 -20 98 -25 125 -28
141 -51 239 -60 249 -4 4 -11 -2 -15 -13z"/>
<path d="M7186 14323 c-12 -13 -5 -22 34 -46 22 -13 74 -54 116 -93 102 -91
136 -161 133 -269 -2 -66 -5 -77 -40 -126 -61 -85 -70 -106 -76 -179 -5 -58
-3 -71 13 -88 21 -22 86 -52 113 -52 31 0 63 -45 63 -87 -1 -80 -2 -83 -34
-103 -17 -10 -47 -38 -65 -62 -60 -75 -33 -152 56 -162 35 -4 61 -27 61 -54 0
-8 -18 -32 -40 -53 -22 -22 -40 -47 -40 -57 0 -10 -5 -23 -10 -28 -19 -19 1
-44 41 -50 32 -5 39 -11 39 -30 0 -13 -11 -40 -25 -60 -14 -20 -25 -44 -25
-54 0 -21 31 -50 53 -50 23 0 21 -13 -3 -35 -22 -20 -26 -55 -9 -86 14 -28 29
-14 20 19 -6 21 -3 31 14 48 14 13 22 31 21 50 -1 24 -6 30 -28 32 -38 4 -40
23 -9 69 42 62 29 116 -30 127 -13 3 -25 5 -27 5 -10 3 42 80 66 98 20 15 29
29 27 45 -1 13 -3 29 -4 36 -2 23 -53 62 -81 62 -29 0 -54 16 -63 42 -7 21 44
100 77 118 26 13 55 76 54 115 -1 82 -37 124 -127 151 -60 17 -70 33 -64 99 5
48 13 69 53 130 46 70 60 110 60 177 0 76 -35 179 -74 220 -99 102 -224 197
-240 181z"/>
<path d="M9042 14143 c-10 -26 0 -371 14 -503 3 -25 7 -76 9 -115 9 -163 16
-254 20 -274 2 -11 6 -71 9 -133 6 -117 15 -237 22 -298 2 -19 6 -80 9 -135 4
-55 8 -120 10 -145 3 -25 7 -96 10 -159 3 -62 7 -116 9 -120 2 -3 7 -62 10
-131 4 -69 9 -147 11 -175 5 -54 12 -174 20 -350 3 -60 8 -121 10 -135 2 -14
7 -79 10 -145 3 -66 7 -140 10 -165 2 -25 7 -101 11 -170 4 -69 8 -141 9 -160
12 -207 17 -282 20 -320 3 -25 7 -88 10 -140 3 -52 8 -123 10 -157 5 -65 -5
-81 -26 -41 -7 12 -30 40 -53 63 -23 22 -55 58 -71 80 -53 71 -89 111 -179
205 -63 65 -156 181 -156 193 0 3 8 7 18 9 10 3 36 35 56 72 52 93 86 201 101
321 3 28 10 64 14 80 5 17 9 39 9 50 1 11 4 36 7 55 10 68 13 225 4 257 -8 28
-42 53 -55 40 -3 -2 -6 -58 -8 -123 -4 -142 -30 -307 -77 -494 -22 -85 -89
-243 -103 -240 -19 4 -26 -10 -27 -56 -2 -43 3 -59 31 -100 19 -27 37 -51 40
-54 12 -8 100 -150 100 -159 0 -5 3 -11 8 -13 6 -2 40 -43 121 -144 4 -5 14
-21 21 -35 7 -13 32 -44 55 -69 23 -25 67 -80 98 -122 86 -116 125 -139 162
-98 13 14 15 27 10 47 -11 40 -13 54 -19 188 -12 224 -22 388 -32 520 -4 44
-8 100 -9 125 -1 25 -5 77 -9 115 -3 39 -8 104 -11 145 -13 229 -16 278 -20
305 -2 17 -6 89 -10 160 -4 72 -8 140 -10 153 -2 13 -7 73 -10 135 -3 62 -10
155 -15 207 -5 52 -12 142 -15 200 -12 235 -16 307 -20 355 -2 28 -7 109 -10
180 -3 72 -8 153 -10 180 -3 28 -8 97 -11 155 -3 58 -7 132 -9 165 -2 33 -7
112 -10 175 -3 63 -8 131 -10 150 -2 19 -6 82 -10 140 -4 58 -9 128 -11 155
-6 75 -15 198 -15 215 0 8 -5 34 -11 58 -8 31 -16 42 -30 42 -10 0 -22 -8 -26
-17z"/>
<path d="M6220 14012 c-90 -37 -211 -105 -237 -133 -11 -13 -40 -40 -63 -59
-38 -32 -41 -38 -35 -70 11 -59 43 -109 119 -185 73 -73 107 -127 112 -176 9
-78 97 -201 165 -231 16 -7 29 -16 29 -19 0 -16 122 -62 199 -75 98 -16 103
-17 191 -39 36 -9 70 -17 77 -18 14 -4 133 -148 133 -163 0 -7 16 -26 36 -44
30 -26 41 -30 67 -24 50 11 59 29 53 114 -9 142 -78 285 -197 410 -82 86 -136
160 -157 215 -6 17 -14 69 -17 117 -11 165 -81 312 -170 357 -113 57 -207 64
-305 23z"/>
<path d="M7649 13983 c-2 -63 4 -108 14 -115 9 -6 9 -8 0 -8 -8 0 -12 -22 -12
-65 0 -36 -2 -69 -6 -74 -3 -6 3 -14 12 -20 10 -6 13 -11 7 -11 -8 0 -11 -71
-10 -255 1 -208 3 -255 15 -255 7 0 11 6 8 15 -4 8 -2 17 3 20 5 3 7 44 4 93
-2 48 -5 187 -6 310 -1 122 -5 222 -10 222 -5 0 -6 6 -1 13 4 6 6 21 5 32 -2
16 2 14 20 -10 13 -16 33 -40 45 -51 13 -12 23 -26 23 -31 0 -5 9 -18 21 -29
12 -10 28 -32 36 -48 8 -16 26 -41 39 -55 13 -14 27 -35 30 -46 4 -11 10 -22
13 -25 4 -3 20 -32 36 -65 15 -33 31 -62 34 -65 12 -10 40 -71 31 -65 -5 3 14
-36 43 -87 50 -90 67 -125 108 -233 22 -57 44 -139 54 -205 4 -25 9 -54 12
-65 3 -11 6 -31 8 -45 2 -14 6 -43 9 -65 16 -113 21 -237 21 -510 -1 -253 -3
-310 -18 -366 -10 -37 -19 -84 -21 -105 -4 -47 -16 -95 -26 -109 -8 -10 -29
-102 -34 -147 -1 -13 -17 -54 -35 -93 -18 -38 -42 -92 -52 -119 -11 -27 -25
-58 -31 -70 -7 -12 -13 -30 -15 -41 -3 -20 -25 -74 -43 -107 -6 -10 -10 -24
-10 -32 0 -7 -15 -43 -33 -79 -18 -36 -29 -63 -25 -61 5 3 -3 -12 -18 -33 -14
-21 -29 -38 -33 -38 -8 0 -64 66 -134 157 -26 35 -34 55 -31 74 3 19 1 24 -8
18 -10 -6 -10 -4 -2 7 16 22 18 137 2 157 -8 9 -8 13 -1 9 8 -5 11 11 10 58
-1 36 -6 65 -10 65 -5 0 -5 6 0 13 12 20 15 147 3 147 -7 0 -8 5 -3 13 11 17
12 117 2 117 -5 0 -9 5 -9 11 0 5 3 8 8 6 8 -6 8 291 -1 299 -3 4 -2 16 3 29
5 13 6 26 3 29 -3 3 -5 38 -5 78 0 45 -4 76 -11 80 -17 11 -29 10 -22 -3 4 -5
6 -47 6 -92 -2 -161 -1 -190 10 -203 6 -8 7 -14 3 -14 -11 0 -12 -650 -1 -667
5 -7 5 -13 0 -13 -4 0 -8 -32 -7 -70 l0 -71 -20 24 c-12 14 -32 39 -46 57 -20
27 -70 90 -155 198 -5 8 -23 28 -39 45 -15 18 -42 52 -59 77 -17 25 -44 60
-61 77 -16 18 -56 68 -90 111 -95 122 -264 335 -284 357 -10 11 -54 65 -98
120 -44 55 -89 111 -99 124 -60 74 -104 115 -114 106 -8 -8 0 -27 24 -63 20
-29 40 -52 45 -52 6 0 10 -6 10 -13 0 -7 12 -26 28 -43 15 -17 32 -38 37 -46
12 -19 124 -163 154 -198 30 -36 32 -39 89 -112 29 -38 75 -98 104 -135 29
-38 56 -72 60 -78 12 -14 99 -126 128 -164 14 -18 33 -41 42 -53 10 -11 50
-63 90 -115 40 -52 83 -107 96 -121 52 -60 143 -182 151 -204 4 -13 7 -75 7
-138 -1 -63 2 -121 7 -127 6 -8 6 -13 0 -13 -10 0 -9 -80 1 -106 3 -8 2 -14
-2 -14 -4 0 -7 -17 -7 -38 1 -40 -17 -77 -77 -159 -21 -29 -38 -57 -38 -63 0
-5 -4 -10 -9 -10 -5 0 -13 -12 -19 -27 -6 -16 -13 -35 -16 -43 -3 -8 -26 -42
-51 -75 -25 -33 -50 -72 -56 -87 -6 -16 -14 -28 -17 -28 -4 0 -16 -18 -26 -40
-11 -22 -24 -40 -29 -40 -6 0 -7 -3 -4 -7 4 -3 0 -15 -10 -25 -9 -10 -13 -18
-9 -18 4 0 -4 -21 -17 -47 -14 -27 -41 -82 -62 -123 -20 -41 -45 -88 -55 -105
-30 -46 -71 -138 -73 -160 0 -11 -9 -31 -19 -44 -10 -13 -18 -31 -18 -39 0
-18 -40 -121 -81 -210 -16 -34 -29 -67 -29 -74 0 -20 -24 -78 -32 -78 -4 0 -8
-10 -8 -21 0 -12 -18 -50 -40 -85 -22 -35 -40 -68 -40 -74 0 -5 -4 -10 -10
-10 -5 0 -9 -3 -8 -7 1 -5 -8 -27 -20 -50 -12 -24 -20 -43 -17 -43 3 0 -2 -17
-11 -39 -8 -21 -14 -42 -13 -47 2 -5 -10 -36 -25 -69 -15 -33 -29 -64 -30 -70
-2 -5 -8 -23 -15 -39 -6 -16 -13 -37 -14 -47 -2 -10 -6 -22 -10 -25 -4 -4 -7
-17 -7 -29 0 -12 -3 -25 -7 -28 -3 -4 -8 -24 -10 -45 -2 -20 -6 -44 -10 -52
-3 -8 -5 -21 -4 -27 1 -7 -2 -13 -7 -13 -5 0 -9 -6 -9 -12 -1 -23 -11 -67 -18
-78 -12 -19 -25 -123 -24 -180 5 -157 3 -250 -4 -250 -5 0 -5 -5 -1 -12 8 -12
16 -96 15 -160 0 -21 4 -38 10 -38 6 0 7 -5 3 -12 -7 -12 -7 -70 1 -118 15
-89 32 -236 28 -242 -2 -5 0 -8 5 -8 4 0 8 -19 7 -42 -1 -31 30 -179 54 -253
1 -3 4 -12 6 -20 3 -8 8 -23 12 -32 3 -10 8 -29 9 -43 2 -14 8 -26 14 -28 5
-2 10 -18 10 -36 0 -18 5 -37 11 -43 6 -6 12 -17 13 -24 2 -8 5 -21 8 -29 3
-8 13 -36 22 -62 10 -25 24 -52 32 -58 7 -7 14 -18 14 -25 0 -6 6 -25 14 -41
8 -16 16 -38 18 -49 2 -11 9 -26 16 -33 6 -7 12 -20 12 -28 0 -8 10 -34 22
-57 19 -38 29 -73 31 -119 1 -9 4 -15 8 -12 4 2 10 -6 14 -18 19 -74 30 -105
40 -118 6 -8 16 -26 22 -40 5 -14 20 -45 33 -70 119 -237 144 -286 151 -290 5
-3 10 -15 12 -26 1 -12 10 -32 19 -45 20 -31 58 -115 58 -128 0 -6 5 -11 10
-11 6 0 10 -6 10 -13 0 -7 10 -23 23 -37 12 -14 28 -37 36 -52 8 -16 16 -26
18 -24 2 2 16 -8 31 -23 46 -43 87 -76 102 -79 8 -2 27 -17 42 -33 16 -16 32
-29 37 -29 5 0 32 -25 61 -56 l51 -57 27 20 c35 26 39 64 11 102 -21 29 -22
38 -23 293 -1 145 -6 270 -11 277 -5 10 -4 12 3 7 8 -5 12 3 12 24 0 22 -4 29
-12 24 -10 -6 -9 -3 0 8 10 12 11 22 3 35 -5 11 -6 25 -2 32 11 17 7 173 -4
191 -5 8 -4 11 2 7 6 -4 9 40 6 125 -2 83 -7 134 -14 139 -8 5 -8 8 1 11 18 6
16 268 -2 279 -7 5 -8 9 -2 9 6 0 11 13 11 30 0 18 -4 27 -11 23 -8 -5 -8 -3
0 8 15 21 18 413 2 403 -7 -5 -8 -3 -2 7 12 19 12 52 -1 61 -6 5 -6 8 0 8 12
0 13 129 1 149 -6 10 -5 12 2 7 15 -9 15 4 2 38 -6 16 -6 27 0 31 6 4 10 11
10 16 0 6 -5 7 -12 3 -7 -4 -8 -3 -4 5 11 17 14 151 4 157 -4 3 -8 13 -7 22 0
15 1 15 8 -1 4 -10 6 20 5 67 -2 47 -5 90 -9 96 -3 5 -2 10 4 10 5 0 7 11 3
28 -4 15 -7 84 -7 154 0 79 -4 128 -10 128 -6 0 -5 3 1 8 16 10 16 75 1 65 -9
-5 -9 -3 -1 8 16 20 17 109 2 109 -9 0 -8 3 2 10 13 9 13 10 0 10 -10 0 -11 3
-4 8 15 9 14 103 -1 94 -6 -3 -5 0 1 9 9 12 11 269 4 799 0 8 0 66 0 129 0 82
-3 117 -12 123 -8 5 -9 8 -2 8 7 0 12 17 12 40 1 27 -3 38 -10 34 -7 -5 -8 -2
-3 6 7 11 17 106 15 140 0 8 -1 81 -1 162 0 116 -3 148 -14 152 -8 3 -16 2
-18 -2 -2 -4 -4 -69 -3 -145 1 -75 -2 -137 -6 -137 -19 0 -208 -358 -233 -440
-1 -3 -8 -21 -17 -40 -29 -67 -56 -136 -82 -207 -14 -40 -37 -103 -50 -140
-27 -74 -44 -135 -80 -276 -21 -81 -29 -116 -42 -192 -2 -11 -8 -42 -13 -70
-16 -84 -29 -177 -40 -300 -9 -94 -6 -447 4 -525 20 -155 57 -339 92 -455 19
-62 75 -208 82 -215 4 -3 7 -12 9 -20 5 -24 95 -205 104 -208 4 -2 8 -9 8 -16
0 -10 52 -90 70 -106 3 -3 11 -17 19 -32 15 -29 45 -65 131 -154 48 -49 60
-68 62 -98 1 -21 6 -40 10 -42 5 -3 5 -10 2 -16 -11 -18 -10 -138 1 -142 7 -3
7 -5 0 -5 -9 -1 -11 -210 -4 -397 1 -34 -1 -66 -5 -73 -4 -6 -4 -11 1 -11 4 0
7 -25 7 -55 -1 -30 2 -55 7 -55 5 0 9 -5 9 -11 0 -5 -5 -7 -10 -4 -7 4 -10 -6
-8 -25 1 -17 6 -34 11 -37 4 -2 3 -11 -3 -18 -6 -7 -10 -17 -9 -21 1 -5 1 -22
0 -39 l-1 -30 -35 38 c-19 21 -35 41 -35 44 0 3 -17 24 -37 47 -44 48 -93 111
-108 137 -65 112 -84 153 -78 163 4 5 1 6 -5 2 -12 -7 -13 -6 -17 33 -1 13 -7
26 -12 30 -11 6 -55 88 -59 106 -1 6 -16 35 -33 65 -17 30 -36 66 -42 80 -7
14 -29 61 -50 105 -21 44 -50 121 -65 172 -16 51 -32 89 -37 86 -6 -3 -7 -1
-3 5 3 6 -2 30 -13 54 -11 24 -27 67 -35 96 -8 30 -33 90 -54 135 -37 78 -58
147 -53 175 1 7 -3 11 -10 10 -6 -2 -17 21 -25 51 -8 29 -17 58 -21 65 -8 12
-11 27 -15 64 -1 12 -6 22 -9 22 -9 0 -31 85 -33 128 0 17 -4 32 -8 32 -5 0
-8 11 -8 25 0 13 -5 35 -11 49 -9 19 -9 29 -1 39 9 10 8 17 0 25 -9 9 -9 12 0
12 7 0 12 5 12 10 0 6 -6 10 -13 10 -9 0 -14 13 -14 38 -1 20 -8 91 -16 156
-8 66 -13 132 -12 148 2 16 1 27 -3 24 -10 -6 -11 4 -15 157 -2 70 -7 130 -10
133 -3 4 -3 14 2 23 4 9 7 44 6 79 -1 35 2 65 6 68 4 2 6 12 4 22 -1 9 2 26 8
37 6 11 12 27 13 35 2 8 6 31 10 50 4 19 8 37 8 40 1 3 4 10 8 15 5 9 10 28
24 107 5 33 48 143 56 146 4 2 8 10 8 17 0 26 67 214 74 207 4 -3 4 1 1 10 -4
10 2 22 17 32 12 9 16 16 9 16 -10 0 -10 4 -3 13 16 20 102 190 102 203 0 6 7
17 15 24 8 7 12 16 9 22 -3 5 -1 14 4 21 11 13 12 17 12 43 0 9 5 12 12 8 7
-4 8 -3 4 5 -4 6 0 23 9 37 9 14 18 33 20 42 5 26 37 106 47 117 4 5 8 19 8
31 0 13 5 26 10 29 6 4 8 11 5 16 -4 5 -1 9 4 9 6 0 10 3 9 8 -2 13 59 152 72
162 4 3 20 34 37 70 17 36 56 118 87 183 52 109 81 159 153 261 16 22 40 62
55 90 30 55 31 54 29 -13 0 -24 5 -51 12 -59 6 -9 7 -13 1 -9 -7 4 -11 -28
-10 -106 0 -95 3 -113 16 -114 11 -1 16 8 16 33 0 19 -4 34 -8 34 -4 0 -4 10
1 23 4 12 7 88 6 169 -1 136 1 150 22 185 12 21 30 55 39 76 9 20 21 37 27 37
6 0 7 3 4 6 -3 4 3 18 13 32 11 13 20 31 20 38 0 8 4 14 10 14 5 0 9 3 8 8 -2
4 8 25 22 47 13 22 28 49 33 60 8 19 11 17 40 -17 77 -90 104 -124 172 -212
39 -52 78 -101 86 -109 8 -7 41 -49 74 -91 33 -43 134 -171 225 -284 91 -114
174 -219 185 -233 11 -15 75 -96 143 -180 67 -85 152 -191 188 -236 64 -80 95
-100 107 -69 5 13 -116 176 -241 325 -10 11 -26 32 -37 47 -11 15 -40 53 -65
83 -25 31 -54 68 -65 83 -11 15 -41 53 -66 85 -76 97 -313 397 -326 413 -37
45 -141 176 -158 198 -57 76 -131 170 -151 190 -13 13 -32 39 -43 57 -17 29
-18 35 -5 46 8 6 14 16 14 22 0 5 17 40 38 76 21 36 44 86 51 110 7 25 18 56
24 70 6 14 11 29 12 34 2 4 3 8 5 10 1 1 3 9 5 17 2 8 17 51 34 94 17 44 28
82 26 84 -2 3 2 17 9 31 29 54 61 126 58 134 -1 4 2 16 7 25 5 9 12 37 15 62
7 58 14 93 26 125 5 14 14 56 20 93 15 92 18 108 34 176 11 46 13 118 10 315
-4 247 -6 279 -18 366 -3 22 -8 73 -11 112 -4 40 -8 83 -11 95 -3 13 -7 46
-10 73 -14 138 -75 356 -123 442 -6 10 -40 78 -76 151 -36 74 -76 148 -89 165
-13 18 -31 48 -41 67 -25 51 -120 174 -192 250 -34 36 -70 80 -80 98 -22 40
-53 43 -54 5z m101 -3165 c25 -33 51 -68 58 -78 12 -16 10 -25 -12 -62 -15
-24 -32 -55 -38 -70 -7 -16 -16 -28 -20 -28 -4 0 -8 -6 -8 -14 0 -7 -6 -19
-13 -25 -14 -11 -15 -9 -18 37 -1 9 -7 23 -13 31 -8 11 -8 13 2 7 16 -10 17
35 0 52 -9 9 -9 12 0 12 15 0 15 138 0 157 -6 7 -5 14 2 18 6 3 8 11 5 16 -4
5 -3 9 2 8 4 0 28 -27 53 -61z m-74 -1521 c-1 -56 1 -112 6 -125 4 -13 4 -21
0 -18 -10 6 -8 -87 2 -102 3 -6 3 -13 -2 -15 -9 -6 -7 -191 3 -206 3 -6 1 -11
-6 -11 -7 0 -5 -9 6 -26 9 -15 12 -23 6 -19 -9 5 -11 -7 -8 -44 1 -28 -1 -51
-6 -51 -6 0 -6 -5 0 -12 5 -7 8 -78 7 -158 -1 -100 2 -147 10 -152 8 -6 7 -8
-2 -8 -16 0 -13 -80 2 -80 8 0 7 -3 0 -8 -15 -10 -16 -192 -1 -211 8 -10 8
-13 1 -8 -9 5 -11 -101 -9 -421 4 -511 2 -465 18 -456 6 4 4 -2 -6 -13 -9 -11
-14 -22 -11 -26 9 -9 10 -156 1 -150 -7 4 -3 -29 9 -65 2 -8 -1 -10 -8 -6 -7
4 -8 3 -4 -5 4 -6 8 -62 7 -124 0 -71 5 -117 12 -126 9 -11 9 -13 0 -8 -8 5
-11 -26 -11 -123 1 -85 4 -127 11 -123 6 4 7 1 2 -7 -16 -25 -13 -104 4 -118
13 -10 13 -12 1 -10 -11 2 -15 -8 -17 -42 -1 -25 -2 -51 -2 -58 -1 -16 -116
111 -138 153 -9 17 -28 46 -43 65 -15 19 -40 60 -56 90 -16 30 -31 57 -34 60
-4 4 -36 72 -90 195 -18 39 -45 134 -59 206 -4 19 -10 40 -14 45 -14 24 -55
288 -64 414 -8 112 -7 424 1 495 3 28 8 84 11 125 3 41 8 83 11 92 3 9 6 32 8
50 5 46 16 103 31 168 8 30 16 69 18 85 11 73 98 365 127 430 5 11 21 53 35
94 14 41 32 86 39 100 13 23 151 299 180 358 19 38 25 15 22 -90z"/>
<path d="M4672 13935 c-62 -29 -80 -52 -152 -191 -33 -65 -65 -123 -71 -130
-33 -39 12 -138 76 -168 51 -25 90 -19 182 25 83 39 88 40 162 34 98 -8 124
-12 192 -35 61 -21 120 -19 156 6 13 8 23 11 23 7 0 -3 37 30 83 74 79 77 165
133 205 133 17 0 45 9 117 39 11 5 32 13 48 20 15 6 35 24 45 41 27 44 18 84
-29 121 -39 31 -39 31 -127 24 -53 -5 -102 -15 -124 -26 -101 -51 -273 -99
-355 -99 -36 0 -98 27 -150 66 -40 30 -125 64 -186 73 -39 7 -56 4 -95 -14z"/>
<path d="M4195 13838 c-70 -41 -125 -137 -125 -217 0 -50 48 -189 101 -292 24
-46 45 -95 47 -109 4 -37 -51 -88 -103 -95 -95 -14 -176 -66 -201 -131 -21
-56 -8 -131 37 -213 17 -31 38 -69 46 -86 8 -16 19 -37 24 -45 5 -8 12 -23 15
-32 4 -10 10 -18 14 -18 15 0 22 -58 9 -82 -7 -12 -40 -50 -75 -84 -45 -44
-65 -72 -69 -97 -13 -67 45 -114 130 -105 83 10 140 76 151 176 10 84 79 144
197 171 61 14 122 53 141 90 13 24 14 48 7 132 -12 144 -7 235 14 298 36 108
4 198 -108 313 -44 45 -78 88 -81 105 -4 15 -8 37 -10 49 -2 11 9 52 25 90 47
109 32 150 -65 178 -63 19 -94 20 -121 4z"/>
<path d="M5545 13612 c-145 -50 -270 -184 -306 -328 -16 -63 -20 -192 -8 -237
6 -23 13 -49 14 -57 6 -29 63 -122 95 -157 41 -43 136 -108 173 -117 54 -13
197 -107 262 -172 53 -55 68 -78 84 -127 14 -48 16 -69 8 -101 -23 -95 -114
-135 -226 -100 -14 4 -73 31 -133 60 -88 44 -171 76 -230 90 -5 1 -9 2 -10 4
-2 1 -43 3 -93 4 -149 3 -228 -16 -377 -90 -71 -36 -150 -72 -176 -79 -79 -23
-215 -45 -244 -40 -20 4 -30 0 -38 -14 -12 -24 -4 -27 105 -36 44 -4 94 -8
110 -10 17 -2 62 -7 100 -10 39 -3 93 -8 120 -10 28 -2 79 -7 115 -10 36 -3
81 -7 100 -9 19 -3 79 -7 133 -11 53 -3 105 -8 115 -9 20 -4 128 -14 227 -21
39 -3 79 -7 91 -9 11 -2 71 -7 134 -11 63 -3 131 -8 150 -10 19 -2 78 -8 130
-14 52 -5 156 -15 230 -21 74 -6 180 -16 235 -22 152 -16 160 -16 163 7 1 12
-14 38 -39 65 -22 25 -55 62 -72 84 -18 21 -36 43 -42 50 -5 6 -22 27 -36 46
-15 19 -37 47 -50 61 -13 14 -51 60 -83 102 -32 42 -62 78 -65 79 -4 2 -22 23
-41 48 -19 25 -69 85 -110 135 -41 49 -81 98 -90 109 -27 33 -91 110 -131 157
-21 26 -53 64 -70 85 -17 21 -34 41 -37 44 -4 3 -14 14 -22 25 -15 19 -14 19
10 4 36 -23 189 -99 196 -98 4 0 10 -3 13 -8 3 -4 62 -36 131 -71 69 -34 161
-82 205 -106 44 -24 145 -76 225 -116 246 -122 366 -184 425 -220 62 -37 205
-90 231 -86 15 3 28 7 31 9 2 2 -13 24 -33 48 -20 24 -53 69 -72 99 -19 30
-38 57 -41 60 -3 3 -19 30 -35 60 -30 57 -56 94 -101 145 -15 17 -38 44 -52
62 -13 18 -46 46 -73 63 -51 33 -194 85 -272 100 -25 5 -60 16 -77 24 -16 9
-35 16 -40 16 -6 0 -45 21 -87 47 -54 33 -93 68 -130 114 -30 36 -54 71 -54
78 0 6 -4 11 -8 11 -9 0 -42 70 -49 104 -2 11 -10 27 -18 36 -8 9 -15 20 -15
24 0 27 -118 134 -179 163 -74 35 -219 42 -296 15z"/>
<path d="M4790 13412 c-8 -3 -17 -8 -20 -11 -3 -4 -16 -14 -30 -22 -57 -37
-125 -247 -115 -358 14 -151 14 -212 1 -281 -28 -146 -39 -172 -84 -207 -38
-28 -49 -32 -101 -30 -105 2 -164 -47 -163 -135 1 -60 11 -92 32 -106 49 -30
178 -36 208 -9 10 9 24 17 32 17 7 0 92 39 189 87 97 48 179 87 184 89 4 1 10
3 15 4 4 1 10 2 14 1 4 0 19 4 33 9 31 12 217 16 233 6 7 -4 20 -9 29 -11 72
-14 155 -41 212 -69 36 -19 84 -39 106 -46 22 -7 46 -17 53 -23 18 -14 117 -3
135 15 53 53 22 127 -83 197 -41 27 -88 53 -103 56 -15 4 -27 11 -27 15 0 4
-15 14 -32 21 -86 35 -197 104 -236 147 -51 55 -90 126 -98 179 -3 21 -8 41
-10 45 -3 4 -4 47 -4 95 2 104 1 131 -4 158 -3 11 -5 23 -5 26 -1 3 -16 22
-34 42 -68 71 -246 125 -327 99z"/>
<path d="M7835 13295 c-4 -30 -2 -75 4 -102 5 -26 12 -70 15 -98 10 -99 26
-129 55 -100 12 12 12 26 2 87 -7 40 -15 111 -17 158 -6 104 -8 110 -33 110
-16 0 -21 -9 -26 -55z"/>
<path d="M7652 13090 c0 -56 4 -78 12 -73 6 3 6 0 -1 -8 -19 -20 -16 -39 5
-32 16 5 16 5 0 -8 -18 -15 -20 -81 -3 -108 5 -9 4 -12 -2 -8 -15 10 -10 -130
5 -145 7 -7 12 -10 13 -7 0 2 2 12 4 21 2 10 -1 21 -6 24 -6 3 -5 12 3 22 10
12 10 16 1 19 -8 3 -10 11 -5 21 5 9 10 38 11 65 2 35 -1 49 -14 53 -14 6 -14
7 0 18 14 10 16 51 6 179 -1 5 -7 5 -13 1 -9 -6 -9 -3 0 9 8 9 11 21 7 27 -16
25 -23 4 -23 -70z"/>
<path d="M8583 12829 c-7 -7 -7 -28 3 -72 13 -66 22 -120 30 -177 12 -87 36
-225 40 -232 13 -21 2 -425 -12 -449 -2 -3 -6 -33 -10 -65 -3 -32 -8 -62 -10
-66 -4 -6 -8 -32 -19 -138 -2 -25 -7 -61 -9 -80 -3 -19 -11 -75 -17 -125 -6
-49 -22 -129 -35 -176 -14 -47 -26 -95 -28 -106 -3 -12 -19 -56 -36 -99 -31
-76 -66 -178 -75 -218 -11 -49 -40 -113 -58 -127 -20 -16 -20 -18 -3 -50 16
-34 65 -106 110 -164 64 -82 95 -125 106 -146 15 -27 18 -31 70 -89 22 -24 40
-52 40 -61 0 -9 7 -20 16 -23 9 -4 14 -9 11 -12 -3 -3 4 -15 15 -27 37 -41
138 -184 138 -195 0 -6 6 -15 13 -19 6 -4 25 -26 42 -48 16 -22 40 -48 52 -58
13 -10 23 -23 23 -29 0 -6 11 -26 25 -44 14 -18 25 -36 25 -41 0 -12 64 -103
99 -141 17 -18 31 -37 31 -41 0 -5 22 -30 50 -57 27 -27 50 -53 50 -57 0 -14
57 -63 88 -76 36 -15 82 -7 82 13 0 8 7 21 15 30 23 23 36 67 29 99 -3 16 -30
58 -60 93 -30 35 -54 68 -54 73 0 5 -7 11 -15 15 -8 3 -15 12 -15 20 0 7 -7
16 -15 20 -8 3 -15 10 -15 16 0 6 -16 33 -35 61 -19 28 -35 47 -35 43 0 -5 -9
8 -20 29 -12 21 -34 51 -49 66 -16 16 -32 38 -35 49 -4 12 -31 52 -60 90 -29
38 -57 75 -62 84 -14 25 -148 181 -217 254 -47 49 -187 226 -187 236 0 5 -4 7
-8 4 -4 -2 -13 8 -20 24 -7 16 -36 52 -63 80 l-51 52 26 77 c14 42 38 112 55
156 39 105 106 346 117 420 3 17 7 41 11 55 3 14 7 39 9 55 2 17 6 41 8 55 2
14 9 66 15 115 6 50 14 97 16 105 3 8 7 38 10 65 3 28 7 61 10 75 16 74 4 368
-20 490 -7 36 -13 72 -13 80 -1 23 -13 93 -19 110 -3 8 -7 20 -8 25 -31 126
-54 185 -73 185 -5 0 -13 -5 -19 -11z"/>
<path d="M7871 12781 c-23 -20 -28 -70 -9 -89 7 -7 26 -12 43 -12 38 0 55 16
55 50 0 48 -56 79 -89 51z"/>
<path d="M7659 12697 c-1 -1 -2 -59 -3 -130 -1 -108 1 -127 14 -125 12 3 15
24 17 111 1 80 -1 106 -10 101 -8 -5 -8 -3 1 7 6 7 12 16 12 20 0 6 -29 21
-31 16z"/>
<path d="M7823 12453 c-28 -21 -56 -46 -62 -55 -20 -32 -23 -123 -6 -164 8
-21 13 -45 10 -53 -3 -9 -3 -12 1 -9 3 4 17 -6 31 -22 15 -19 44 -35 76 -45
65 -19 76 -19 140 5 42 16 58 28 74 58 51 92 45 224 -11 271 -9 7 -29 14 -44
16 -16 1 -40 9 -53 18 -41 29 -98 22 -156 -20z m178 -47 c46 -31 71 -83 63
-127 -15 -77 -54 -109 -133 -109 -40 0 -81 23 -81 45 0 7 -4 15 -9 17 -15 5
-20 81 -8 110 15 34 83 88 111 88 12 0 38 -11 57 -24z"/>
<path d="M7659 12416 c-3 -35 0 -118 4 -123 3 -3 4 -10 1 -16 -5 -15 -12 -107
-8 -107 1 0 8 -2 16 -5 11 -4 14 20 14 128 1 107 -1 134 -12 134 -8 0 -14 -5
-15 -11z"/>
<path d="M9775 12185 c-83 -19 -175 -22 -185 -6 -6 10 -12 10 -29 2 -15 -9
-21 -22 -22 -49 -1 -61 2 -184 6 -229 2 -23 6 -88 10 -145 3 -57 8 -123 11
-148 2 -25 7 -94 9 -154 3 -59 8 -112 11 -117 3 -5 -1 -9 -8 -9 -9 0 -10 -3
-2 -8 6 -4 14 -57 17 -127 4 -66 8 -138 11 -160 2 -22 7 -80 10 -130 9 -124
16 -212 21 -265 2 -25 7 -88 10 -140 6 -89 10 -138 21 -270 2 -30 7 -91 9
-135 3 -44 7 -98 9 -120 7 -69 17 -197 21 -267 2 -37 6 -82 9 -100 5 -34 24
-282 31 -417 3 -40 6 -90 9 -110 4 -33 15 -165 21 -266 2 -22 6 -87 11 -145 4
-58 8 -115 8 -127 1 -13 3 -23 6 -23 3 0 5 -24 4 -53 0 -28 3 -97 8 -152 4
-55 9 -134 12 -175 3 -41 8 -104 11 -140 2 -36 7 -96 9 -135 6 -80 14 -189 21
-290 3 -38 8 -110 10 -160 3 -49 7 -117 10 -151 8 -113 25 -328 30 -404 3 -41
7 -88 10 -105 3 -16 7 -65 9 -108 3 -42 8 -82 11 -87 3 -6 0 -10 -7 -10 -10 0
-10 -2 1 -9 8 -5 9 -11 3 -14 -5 -4 -50 55 -100 131 -136 205 -213 317 -223
320 -5 2 -9 10 -9 17 0 8 -6 20 -13 27 -16 17 -85 121 -84 128 0 3 -11 18 -26
34 -15 16 -25 32 -22 35 2 4 -5 14 -16 21 -10 8 -19 18 -19 22 0 11 -53 92
-62 96 -5 2 -8 8 -8 13 0 6 -19 35 -42 66 -24 30 -47 63 -53 72 -27 45 -61 97
-66 101 -16 14 -79 114 -79 127 0 8 -4 11 -10 8 -5 -3 -10 0 -10 8 0 8 -9 22
-20 32 -11 10 -20 24 -20 32 0 7 -7 16 -15 19 -8 4 -15 12 -15 19 0 8 -6 20
-13 27 -9 10 -194 285 -290 432 -6 10 -21 31 -32 45 -11 14 -61 87 -110 161
-50 74 -93 137 -97 138 -5 2 -8 9 -8 16 0 7 -9 21 -20 31 -11 10 -20 23 -20
30 0 6 -7 20 -15 30 -8 11 -32 43 -53 70 -21 28 -71 98 -111 158 -40 59 -75
107 -79 107 -4 0 -12 10 -17 22 -11 26 -42 35 -58 19 -11 -11 -11 -176 -2
-596 3 -104 7 -320 10 -480 3 -159 7 -371 10 -470 3 -99 7 -304 10 -455 3
-151 7 -356 10 -455 2 -99 7 -281 10 -405 8 -351 22 -928 30 -1215 2 -104 7
-309 10 -455 2 -146 7 -317 10 -380 3 -63 7 -227 10 -365 3 -137 8 -306 10
-375 6 -124 9 -256 20 -850 8 -381 11 -444 24 -448 6 -2 11 -11 11 -19 0 -9 3
-13 7 -10 3 4 12 -1 20 -11 12 -16 13 -16 7 1 -6 16 3 21 32 18 16 -2 24 38
20 90 -3 24 -7 152 -11 284 -3 132 -8 287 -10 345 -4 117 -14 545 -20 835 -6
279 -15 648 -20 825 -3 85 -7 247 -10 360 -3 113 -7 274 -9 358 -4 119 -2 152
8 152 7 0 49 -9 92 -19 44 -11 95 -22 114 -24 37 -5 242 -47 351 -72 37 -8 78
-15 91 -15 13 0 28 -4 33 -9 6 -6 62 40 147 122 255 245 303 287 333 296 17 5
140 47 275 94 135 46 250 84 255 85 11 2 102 31 125 39 8 3 23 8 33 10 24 4
47 28 47 47 0 9 -34 73 -76 143 -57 96 -72 128 -62 134 7 5 13 14 13 21 0 12
83 33 162 40 32 3 53 15 92 50 68 62 68 84 0 133 l-52 37 8 66 c14 130 15 218
2 236 -9 12 -11 35 -7 72 4 34 1 69 -7 92 -20 58 -23 110 -8 126 23 23 28 62
11 94 -34 65 -47 121 -35 143 20 38 6 121 -31 178 l-33 52 13 77 c18 115 15
158 -16 205 -21 32 -24 44 -15 56 26 35 42 85 36 109 -3 14 -18 38 -33 54 -17
18 -27 40 -28 61 -1 17 -5 55 -9 82 -11 69 -9 81 16 117 15 21 23 46 23 78 1
43 -3 52 -50 103 l-52 56 15 43 c18 48 19 90 10 295 -5 136 -13 170 -44 201
-20 20 -15 43 16 80 24 28 28 41 26 77 -2 25 -6 48 -9 53 -3 5 -8 24 -11 43
-3 19 -13 44 -21 57 -14 22 -13 26 12 59 23 30 26 41 20 81 -6 49 -40 148 -58
170 -6 6 -12 72 -13 145 -2 72 -8 166 -14 208 -5 42 -8 92 -4 112 3 20 -1 55
-10 83 -19 58 -24 124 -12 144 14 23 9 150 -9 205 -25 78 -27 139 -5 180 11
19 19 51 19 71 0 41 -19 124 -32 141 -21 26 -31 342 -14 431 8 43 10 77 4 92
-11 30 -25 182 -33 370 -10 210 -17 264 -35 266 -8 1 -42 -4 -75 -11z m67 -59
l4 -35 -51 -6 c-27 -4 -76 -13 -108 -20 -44 -10 -59 -11 -62 -2 -11 38 -14 66
-7 71 5 3 43 8 87 11 43 4 88 10 99 15 28 10 33 6 38 -34z m8 -106 c0 -39 -1
-40 -34 -40 -19 0 -47 -5 -63 -11 -15 -6 -44 -13 -63 -16 -19 -2 -41 -6 -47
-8 -9 -3 -13 9 -13 40 0 42 2 45 28 45 15 1 54 7 87 13 105 22 105 22 105 -23z
m3 -84 c12 -31 -4 -55 -42 -62 -20 -3 -49 -9 -66 -13 -16 -4 -46 -7 -65 -7
-32 1 -35 4 -35 31 0 28 3 30 45 35 25 3 53 10 63 16 29 17 94 17 100 0z m5
-123 c-3 -34 -6 -38 -33 -41 -16 -1 -61 -9 -99 -18 -38 -8 -70 -14 -71 -12 -1
2 -5 19 -8 39 l-5 35 96 16 c54 8 103 16 110 17 9 1 12 -10 10 -36z m-4 -73
c6 0 13 -15 14 -33 l2 -34 -67 -11 c-124 -21 -143 -23 -144 -15 0 4 -2 18 -3
31 -2 13 1 25 5 28 18 11 155 43 167 38 8 -2 19 -4 26 -4z m20 -116 c14 -37 7
-60 -21 -62 -16 -1 -48 -6 -73 -11 -85 -18 -110 -20 -111 -11 0 6 -1 25 -2 43
l-1 32 56 2 c30 1 66 7 79 12 37 15 66 13 73 -5z m16 -125 c0 -53 -14 -67 -77
-74 -32 -3 -76 -9 -97 -12 -32 -4 -38 -3 -33 10 3 8 3 18 -1 22 -3 3 -7 17 -8
30 -1 22 5 25 70 35 39 6 76 13 81 15 6 2 22 4 38 4 24 1 27 -3 27 -30z m-17
-141 c-5 -35 -7 -37 -37 -36 -17 1 -55 -5 -84 -12 -29 -7 -55 -10 -58 -7 -3 2
-6 20 -7 38 -2 36 6 40 117 54 28 3 52 8 55 10 11 12 18 -13 14 -47z m7 -106
l0 -38 -62 -13 c-126 -26 -115 -27 -122 14 -4 20 -4 40 -1 44 14 13 82 29 133
30 l52 1 0 -38z m-2 -119 c3 -40 2 -42 -30 -48 -18 -3 -57 -7 -87 -8 l-55 -2
-1 38 c-2 34 1 37 24 37 14 0 44 7 66 15 64 23 79 17 83 -32z m19 -105 c30
-61 26 -66 -46 -73 -36 -3 -82 -8 -101 -10 l-35 -4 -3 49 -3 49 43 4 c115 10
134 8 145 -15z m33 -132 c0 -37 -19 -59 -47 -55 -15 2 -88 -6 -143 -16 -12 -2
-15 8 -15 44 l0 46 65 3 c36 1 74 4 85 6 52 9 55 7 55 -28z m-40 -136 c0 -41
-3 -50 -17 -51 -10 0 -44 -2 -75 -5 -32 -3 -58 -4 -59 -2 0 1 -2 22 -5 45 -5
42 -5 42 33 48 21 4 43 8 48 10 6 2 25 4 43 4 32 1 32 1 32 -49z m7 -93 c4 -6
13 -26 19 -44 12 -35 5 -43 -42 -43 -13 0 -44 -5 -69 -12 -24 -7 -46 -10 -48
-7 -3 2 -7 27 -11 56 l-7 52 53 3 c29 2 63 4 75 5 12 2 26 -3 30 -10z m33
-156 c0 -51 -9 -60 -65 -65 -28 -3 -62 -7 -77 -9 -24 -4 -27 -1 -33 40 -4 25
-5 46 -3 48 2 1 21 6 43 9 22 3 56 10 75 14 49 12 60 5 60 -37z m-21 -134 c1
-30 -2 -44 -11 -44 -7 -1 -38 -5 -70 -10 -55 -10 -56 -9 -61 16 -8 42 8 69 45
74 94 11 94 11 97 -36z m25 -123 c1 -26 -4 -37 -14 -39 -8 -1 -41 -5 -72 -9
-32 -4 -61 -8 -65 -9 -5 -1 -9 17 -10 40 -2 41 -1 42 35 48 20 4 53 10 72 14
43 10 52 2 54 -45z m4 -115 l3 -36 -53 -6 c-29 -3 -65 -9 -80 -12 -25 -5 -26
-3 -25 32 2 46 24 59 99 58 l53 0 3 -36z m8 -104 c3 -20 4 -38 1 -41 -9 -9
-79 -24 -114 -24 -28 0 -34 4 -39 28 -3 15 -7 32 -9 39 -3 8 13 14 43 18 26 4
52 8 57 10 37 13 54 4 61 -30z m14 -135 l0 -50 -34 0 c-18 0 -53 -3 -78 -6
l-44 -6 1 48 0 49 50 6 c110 13 105 15 105 -41z m-2 -111 c0 -17 8 -41 16 -54
11 -16 12 -26 5 -30 -6 -4 -13 -5 -15 -2 -3 3 -20 1 -37 -4 -34 -10 -106 -21
-108 -17 0 2 -3 31 -5 65 l-5 62 33 4 c18 2 51 5 74 5 39 2 41 1 42 -29z m62
-166 c0 -18 -6 -23 -25 -24 -14 -1 -28 -2 -32 -3 -15 -4 -123 -18 -130 -17 -4
0 -9 16 -11 34 l-3 34 83 15 c73 13 85 13 101 0 9 -8 17 -26 17 -39z m3 -89
c-8 -13 -25 -24 -37 -25 -11 0 -30 -3 -41 -5 -11 -3 -41 -8 -67 -11 -46 -5
-48 -5 -48 20 0 22 6 27 53 37 28 6 68 13 87 16 19 3 37 8 39 10 2 2 10 -1 17
-7 11 -9 10 -15 -3 -35z m-32 -91 l16 -33 -41 -12 c-22 -6 -45 -11 -49 -10 -5
2 -24 -2 -42 -7 -38 -10 -43 -5 -37 44 4 31 6 32 60 41 32 5 62 10 67 10 6 0
17 -14 26 -33z m30 -75 c5 -53 3 -61 -16 -64 -11 -2 -49 -10 -85 -18 -35 -8
-65 -14 -66 -13 0 1 -4 16 -7 33 -6 29 -3 32 31 43 30 10 96 24 135 30 4 1 8
-5 8 -11z m19 -119 c0 -26 -46 -45 -128 -55 -58 -6 -62 -5 -62 14 0 25 7 30
54 37 20 4 55 12 78 19 49 15 58 13 58 -15z m-48 -104 c4 -18 1 -25 -11 -26
-9 0 -40 -4 -69 -8 -58 -8 -63 -6 -52 24 7 19 40 31 101 34 21 1 28 -4 31 -24z
m42 -71 c12 -31 6 -42 -26 -48 -18 -3 -42 -7 -53 -9 -11 -2 -35 -7 -52 -11
-29 -7 -33 -5 -33 12 0 11 -3 27 -6 35 -4 12 7 17 48 25 83 15 115 14 122 -4z
m4 -126 l-3 -52 -41 -2 c-22 -1 -57 -4 -77 -8 -21 -4 -37 -6 -38 -4 0 2 -2 22
-5 44 -5 41 -4 42 28 47 88 14 113 19 117 23 15 14 22 -3 19 -48z m10 -135 l9
-51 -51 0 c-28 1 -65 -2 -82 -6 -31 -7 -32 -7 -36 36 -3 24 -4 44 -2 46 2 3
147 30 151 28 1 -1 5 -24 11 -53z m7 -100 c-3 -10 -9 -30 -12 -46 -7 -33 -9
-35 -64 -42 -90 -12 -83 -15 -85 37 l-1 47 46 6 c25 4 51 8 56 10 6 2 23 4 39
4 23 1 27 -2 21 -16z m-37 -122 c6 -1 12 -8 12 -16 0 -8 14 -30 30 -49 27 -30
29 -35 13 -40 -44 -13 -148 -25 -156 -17 -4 4 -9 31 -11 58 -2 48 -1 50 29 59
16 5 39 8 50 7 11 -1 26 -2 33 -2z m105 -176 c-1 -16 -13 -43 -25 -60 -13 -17
-23 -45 -23 -65 0 -34 -2 -35 -45 -41 -25 -4 -57 -9 -72 -12 -29 -6 -37 8 -30
49 3 17 16 23 67 33 36 7 70 20 77 29 12 14 8 15 -37 9 -27 -3 -64 -9 -81 -13
-32 -6 -32 -6 -35 40 l-4 46 35 1 c45 0 124 10 130 16 2 2 13 3 25 1 15 -2 20
-10 18 -33z m-1707 -107 c9 -17 20 -36 26 -42 5 -6 29 -42 53 -81 24 -38 48
-74 52 -80 7 -9 167 -245 199 -294 44 -67 74 -125 67 -131 -11 -9 -109 -38
-222 -65 -53 -13 -116 -31 -140 -40 -24 -8 -45 -14 -46 -13 -2 2 -6 116 -9
253 -4 138 -9 315 -12 394 -6 149 -1 163 32 99z m1674 -122 c0 -38 -3 -44 -18
-41 -15 3 -68 -5 -122 -17 -9 -2 -15 9 -17 34 -4 42 -6 41 97 57 30 5 56 9 58
10 1 0 2 -19 2 -43z m33 -108 c15 -17 26 -33 24 -35 -2 -2 -50 -6 -106 -9
-100 -5 -101 -5 -101 18 0 35 11 45 60 55 63 13 91 7 123 -29z m27 -82 c0 -7
-10 -24 -23 -38 -19 -21 -35 -26 -95 -30 -76 -6 -82 -2 -82 47 0 22 5 24 58
28 130 8 142 7 142 -7z m-25 -126 c16 -16 27 -31 24 -34 -2 -2 -45 -6 -94 -10
l-91 -6 -2 34 c-3 38 -3 37 93 44 34 2 45 -2 70 -28z m35 -114 c0 -52 -9 -57
-131 -73 l-47 -6 -10 49 c-6 27 -9 50 -7 52 2 2 21 6 42 9 21 3 40 7 42 9 2 2
28 4 58 4 l53 0 0 -44z m-14 -102 c-3 -9 -6 -23 -6 -33 0 -13 -17 -21 -72 -34
-40 -10 -75 -17 -78 -17 -3 0 -7 16 -8 35 -3 37 -9 34 88 54 70 14 83 13 76
-5z m21 -129 c23 -42 22 -54 -5 -53 -26 1 -136 -14 -146 -19 -13 -8 -26 18
-26 53 0 30 2 32 68 47 37 8 72 14 77 13 6 -2 20 -20 32 -41z m-1229 -15 c-1
-5 -55 -79 -118 -165 l-115 -155 -25 28 c-14 15 -39 45 -55 67 -16 22 -47 61
-69 88 -24 29 -36 51 -30 56 5 5 36 14 69 19 52 9 129 26 225 48 30 7 102 21
113 23 5 1 7 -3 5 -9z m1266 -128 c-4 -10 -7 -20 -6 -23 1 -4 -24 -10 -56 -13
-31 -4 -76 -9 -99 -13 l-43 -5 0 41 c0 49 0 49 118 65 l87 12 3 -24 c2 -13 0
-31 -4 -40z m-1099 -52 c27 -36 53 -68 58 -71 5 -3 9 -10 9 -15 1 -5 25 -42
54 -81 30 -40 54 -77 54 -82 0 -5 3 -11 8 -13 11 -5 72 -91 68 -96 -4 -3 -206
43 -296 68 -61 17 -225 54 -232 52 -3 -1 13 26 35 59 23 34 49 71 57 84 8 12
39 53 68 90 28 37 52 73 52 78 0 14 4 9 65 -73z m-643 -64 c10 -11 18 -23 18
-26 0 -4 8 -16 18 -28 9 -11 44 -60 77 -108 33 -48 74 -106 92 -129 20 -28 28
-46 21 -53 -5 -5 -10 -16 -12 -25 -1 -8 -8 -22 -15 -31 -7 -9 -10 -16 -6 -16
4 0 2 -6 -4 -14 -6 -7 -35 -60 -65 -117 -65 -127 -89 -172 -96 -179 -3 -3 -15
-26 -27 -52 -13 -27 -26 -48 -31 -48 -4 0 -8 39 -8 88 0 48 -4 249 -8 447 -7
348 -7 359 10 335 10 -14 26 -34 36 -44z m1738 30 c0 -6 9 -28 19 -49 10 -20
16 -37 12 -37 -98 -4 -194 -11 -202 -15 -5 -4 -9 -5 -10 -3 0 2 -3 24 -6 50
l-5 47 41 7 c23 4 43 9 45 13 7 11 106 0 106 -13z m50 -126 c0 -6 -4 -10 -9
-10 -5 0 -14 -13 -21 -29 -10 -25 -20 -32 -64 -40 -28 -6 -69 -11 -91 -13 -37
-3 -40 -1 -46 29 -8 42 1 55 47 60 21 2 39 5 40 6 8 8 144 5 144 -3z m-34
-127 c3 -16 9 -38 14 -50 9 -21 7 -23 -22 -23 -17 0 -59 -5 -94 -12 -35 -6
-66 -9 -69 -6 -3 3 -8 23 -11 46 -6 46 -14 42 101 60 33 5 63 10 67 11 4 0 10
-11 14 -26z m-1246 -108 c80 -18 171 -43 175 -47 3 -3 -116 -68 -250 -136 -27
-14 -58 -32 -67 -40 -10 -9 -18 -12 -18 -8 0 4 -21 -5 -46 -19 -26 -14 -50
-25 -55 -23 -5 2 9 35 32 73 22 39 59 105 80 148 34 67 42 77 62 72 12 -2 51
-11 87 -20z m1265 -47 c-4 -29 -8 -54 -9 -55 -1 -1 -42 -3 -91 -5 l-90 -3 -3
48 c-2 33 1 47 10 48 61 3 133 11 137 15 2 2 15 4 29 4 23 0 24 -2 17 -52z
m-822 -64 c87 -17 88 -18 82 -42 -3 -14 -21 -48 -39 -76 -18 -28 -52 -90 -77
-138 -24 -47 -45 -85 -47 -84 -3 3 -21 152 -37 300 -7 64 -6 68 11 63 11 -3
59 -14 107 -23z m841 -76 l-6 -45 -84 -13 c-46 -6 -90 -10 -98 -7 -9 4 -14 21
-14 51 l0 45 41 6 c23 3 67 9 97 14 30 4 58 5 63 1 4 -3 4 -27 1 -52z m-1076
5 c-1 -7 4 -56 17 -143 20 -130 45 -333 43 -335 -3 -3 -42 54 -164 239 -73
110 -96 148 -92 150 2 2 30 15 63 31 33 16 62 31 65 34 3 3 12 7 20 9 8 2 17
8 18 13 4 11 33 12 30 2z m1068 -125 c-3 -23 -9 -45 -13 -49 -5 -4 -45 -10
-90 -13 l-83 -7 0 40 c0 23 1 41 3 42 6 2 163 27 175 28 10 1 12 -9 8 -41z
m-652 -16 c13 -22 31 -46 40 -54 8 -9 23 -29 33 -45 32 -53 62 -98 70 -108 9
-10 67 -95 123 -178 l32 -48 -39 17 c-60 26 -223 94 -283 118 -105 43 -160 71
-160 82 0 6 10 26 23 45 12 19 47 73 76 122 30 48 55 87 57 87 2 0 15 -17 28
-38z m-851 -114 c-38 -40 -99 -104 -134 -143 -125 -137 -152 -165 -157 -161
-2 2 22 49 54 103 31 54 57 103 57 110 0 7 3 10 6 8 4 -2 15 15 26 37 10 22
28 44 40 48 11 4 43 18 70 31 28 12 56 23 64 25 7 1 18 7 24 13 6 6 13 9 15 6
3 -3 -27 -37 -65 -77z m1525 -3 l47 -45 -30 -1 c-17 0 -38 -2 -49 -4 -10 -2
-49 -6 -86 -9 -75 -5 -80 -1 -80 54 0 32 0 33 138 49 7 0 34 -19 60 -44z
m-1257 -86 c42 -57 72 -107 66 -110 -8 -6 -359 -1 -365 5 -6 7 202 216 212
213 6 -2 45 -50 87 -108z m1269 -27 c-32 -34 -44 -40 -96 -45 -32 -3 -69 -9
-80 -12 -19 -6 -22 -2 -26 30 -5 43 10 55 62 51 18 -1 49 1 69 5 20 4 52 7 72
8 l37 1 -38 -38z m-770 -165 c29 -13 40 -22 30 -25 -8 -3 -51 -18 -94 -34 -44
-15 -83 -28 -88 -28 -4 0 -8 34 -8 75 l0 75 58 -21 c31 -12 77 -31 102 -42z
m-434 -50 c5 -4 -32 -50 -127 -156 -41 -48 -86 -98 -98 -113 -13 -14 -30 -24
-37 -21 -8 3 -12 8 -9 12 4 7 -34 134 -60 201 -1 3 -6 20 -10 38 -4 17 -12 32
-17 32 -5 0 -7 3 -5 8 5 7 356 6 363 -1z m-469 -74 c11 -32 31 -92 43 -133 13
-41 27 -87 32 -102 6 -15 10 -31 10 -35 0 -4 4 -17 8 -28 4 -11 10 -32 14 -47
5 -23 4 -26 -11 -21 -10 4 -20 9 -23 12 -3 4 -67 51 -142 105 -76 54 -140 101
-142 105 -4 6 180 201 189 201 1 0 11 -26 22 -57z m662 -63 c38 -52 68 -96 66
-98 -3 -3 -152 22 -227 39 l-48 11 53 61 c28 34 57 67 62 74 6 7 13 11 17 10
4 -1 38 -45 77 -97z m371 83 c0 -5 -20 -33 -45 -63 -24 -30 -57 -72 -72 -92
-16 -21 -30 -38 -34 -38 -3 0 -24 27 -48 61 -38 53 -40 61 -24 65 10 3 61 20
113 39 105 37 110 38 110 28z m178 -22 c9 -5 41 -20 70 -32 28 -12 52 -25 52
-29 0 -3 -69 -30 -152 -60 -84 -29 -160 -56 -168 -59 -15 -5 18 39 84 114 20
22 36 45 36 52 0 21 48 30 78 14z m-633 -248 c11 -2 38 -6 60 -9 22 -3 51 -7
64 -10 l24 -5 -30 -22 c-17 -12 -61 -50 -99 -83 -38 -34 -85 -74 -104 -90 -19
-16 -47 -41 -64 -56 -16 -15 -32 -25 -36 -23 -4 2 1 37 11 77 10 40 26 110 36
156 l18 83 50 -7 c27 -3 59 -8 70 -11z m-254 -60 c-19 -82 -21 -87 -32 -140
-7 -29 -16 -53 -22 -53 -6 0 -8 2 -5 5 3 3 -3 33 -13 66 l-19 61 47 59 c25 33
48 57 51 55 2 -3 -1 -27 -7 -53z m-446 -66 c61 -49 272 -197 283 -197 5 0 17
-8 28 -18 10 -10 30 -26 44 -35 l25 -17 -35 6 c-19 3 -71 14 -115 25 -44 10
-91 20 -105 23 -50 10 -185 40 -188 42 -2 1 -5 32 -7 70 -3 38 -7 88 -10 111
l-6 43 38 -22 c21 -13 43 -26 48 -31z"/>
<path d="M4775 11920 c-18 -29 32 -40 280 -65 33 -3 76 -8 95 -10 19 -3 60 -7
90 -10 30 -3 75 -8 100 -10 25 -3 67 -7 93 -10 90 -8 162 -16 252 -25 50 -5
124 -12 165 -16 41 -3 82 -7 90 -9 15 -3 109 -12 210 -20 137 -11 195 -16 345
-30 88 -9 167 -18 176 -20 17 -6 164 -177 274 -320 38 -49 72 -92 75 -95 3 -3
23 -27 45 -55 22 -27 57 -70 78 -95 21 -25 48 -56 58 -70 11 -14 49 -62 86
-107 36 -45 76 -99 89 -121 l24 -39 -38 -44 c-20 -24 -77 -84 -127 -134 -50
-49 -102 -106 -116 -125 -15 -19 -40 -49 -55 -66 -37 -40 -52 -58 -94 -119
-19 -27 -37 -52 -41 -55 -3 -3 -16 -23 -29 -45 -13 -21 -32 -47 -41 -56 -9 -9
-25 -30 -35 -48 -10 -17 -22 -31 -27 -31 -4 0 -6 -4 -3 -9 3 -4 -3 -16 -14
-26 -11 -10 -20 -24 -20 -30 0 -7 -6 -18 -14 -24 -8 -7 -22 -26 -31 -44 -24
-47 -37 -69 -62 -103 -12 -17 -20 -34 -16 -38 3 -3 1 -6 -5 -6 -6 0 -17 -11
-24 -24 -7 -13 -31 -52 -52 -87 -22 -35 -60 -104 -86 -154 -26 -49 -57 -106
-69 -125 -11 -19 -25 -46 -31 -60 -6 -14 -24 -51 -40 -82 -16 -32 -32 -69 -34
-84 -3 -14 -10 -32 -17 -40 -6 -8 -9 -14 -5 -14 3 0 -17 -46 -46 -102 -28 -57
-54 -112 -58 -123 -5 -11 -17 -40 -28 -65 -11 -25 -23 -56 -27 -70 -4 -14 -13
-38 -21 -55 -12 -28 -62 -168 -67 -190 -1 -5 -6 -15 -10 -21 -3 -6 -9 -26 -11
-45 -3 -19 -14 -77 -26 -129 -11 -52 -23 -104 -25 -115 -2 -11 -17 -59 -33
-107 -16 -49 -25 -88 -19 -88 6 0 6 -5 0 -12 -6 -7 -11 -20 -11 -28 -1 -8 -4
-46 -8 -85 -6 -67 -14 -286 -17 -465 -2 -164 4 -336 14 -375 6 -22 10 -57 9
-79 -3 -120 55 -266 107 -266 35 0 44 36 23 85 -30 66 -41 116 -46 195 -6 123
-7 618 -1 715 7 105 32 310 41 323 3 5 8 24 11 42 3 19 10 40 16 46 5 7 9 16
8 20 -2 5 3 29 10 54 16 53 17 61 36 165 8 44 24 109 36 145 11 36 22 70 23
75 1 6 7 19 13 30 6 11 11 25 12 30 0 6 7 26 15 45 8 19 27 67 41 105 15 39
36 88 47 110 12 22 25 47 28 55 4 8 21 44 38 80 16 36 40 92 52 125 32 87 60
148 75 165 8 8 14 17 14 20 0 10 15 45 21 50 4 3 35 59 69 125 34 66 66 122
69 125 12 9 32 49 32 64 0 8 6 16 13 19 7 3 34 42 60 88 56 98 55 97 126 209
29 47 57 87 60 90 9 6 71 99 71 106 0 13 196 255 275 339 41 45 87 99 102 120
35 52 49 66 64 63 8 -2 16 15 22 45 9 49 9 49 -35 95 -25 26 -58 65 -74 87
-46 64 -47 65 -81 104 -18 20 -75 94 -128 165 -114 152 -152 201 -183 236 -13
14 -41 52 -63 85 -23 33 -73 94 -113 136 l-72 77 -80 7 c-43 4 -90 8 -104 10
-23 3 -77 9 -200 20 -25 2 -67 7 -95 10 -75 7 -142 14 -220 20 -38 4 -106 10
-150 15 -44 5 -116 12 -160 15 -44 3 -91 8 -105 10 -14 3 -113 12 -220 20
-107 9 -224 18 -260 21 -36 3 -78 7 -95 9 -115 13 -253 16 -260 5z"/>
<path d="M4355 11904 c-169 -21 -320 -64 -470 -133 -44 -21 -83 -38 -88 -39
-15 -4 -122 -67 -125 -74 -2 -4 -8 -8 -13 -8 -12 0 -115 -77 -217 -163 -93
-78 -141 -147 -158 -227 -24 -116 35 -239 145 -302 70 -40 79 -43 171 -43 60
0 85 6 124 25 56 29 109 86 139 150 11 25 27 53 35 63 8 9 12 17 9 17 -14 0
28 88 72 150 98 141 184 233 283 303 37 26 69 47 72 47 3 0 25 14 49 30 25 17
47 30 51 30 3 0 22 12 43 26 21 14 47 30 58 36 94 44 133 88 97 107 -29 15
-172 17 -277 5z"/>
<path d="M7908 11803 c-9 -2 -19 -11 -22 -19 -8 -21 4 -64 18 -65 6 0 21 -2
33 -3 15 -2 28 6 39 21 14 22 14 27 -1 49 -15 23 -30 27 -67 17z"/>
<path d="M5906 11682 c-3 -6 -21 -10 -39 -10 -48 0 -169 -38 -211 -67 -20 -14
-39 -25 -42 -25 -3 0 -31 -21 -61 -47 -94 -80 -165 -195 -193 -312 -14 -58
-18 -194 -8 -251 14 -74 21 -101 29 -106 5 -3 9 -11 9 -19 0 -44 125 -204 212
-271 24 -19 147 -75 175 -80 14 -3 33 -8 42 -13 33 -15 205 -13 271 4 280 72
470 326 457 610 -5 118 -13 154 -55 245 -71 154 -228 282 -405 330 -72 19
-172 26 -181 12z m203 -73 c235 -70 382 -258 394 -502 4 -98 -10 -174 -51
-261 -32 -68 -92 -152 -121 -170 -9 -5 -26 -20 -40 -34 -36 -36 -176 -99 -250
-112 -91 -16 -219 -3 -298 31 -207 88 -342 284 -344 498 -2 228 115 422 310
518 41 20 95 41 120 48 61 16 199 8 280 -16z"/>
<path d="M5815 11263 c-78 -40 -112 -102 -101 -181 11 -83 65 -141 160 -172
56 -18 133 0 174 43 99 102 65 236 -78 309 -42 22 -115 23 -155 1z m169 -47
c34 -17 62 -53 73 -96 18 -65 -2 -118 -56 -148 -88 -50 -196 -9 -236 88 -10
22 -11 34 -6 84 2 26 52 76 84 85 39 12 106 5 141 -13z"/>
<path d="M5904 11079 c-3 -6 -1 -16 5 -22 9 -9 14 -8 21 3 9 15 4 30 -10 30
-5 0 -12 -5 -16 -11z"/>
<path d="M7881 11477 c-25 -66 -35 -317 -13 -339 18 -18 47 -4 48 22 7 146 16
296 19 301 3 3 -2 15 -10 25 -11 15 -14 16 -15 4 0 -13 -1 -13 -10 0 -7 11
-11 9 -19 -13z"/>
<path d="M6540 11453 c0 -5 12 -28 26 -53 26 -44 40 -84 50 -145 3 -16 9 -43
15 -59 5 -17 8 -91 5 -166 -3 -120 -7 -144 -31 -205 -16 -39 -28 -76 -28 -82
0 -7 -4 -13 -8 -13 -6 0 -22 -38 -20 -51 0 -4 -22 -31 -50 -60 -53 -56 -171
-220 -183 -253 -4 -11 -9 -52 -13 -91 -4 -60 -2 -76 16 -109 12 -21 29 -45 37
-53 31 -31 4 -93 -77 -180 -41 -43 -139 -113 -139 -99 0 3 -16 -2 -35 -10 -67
-28 -182 -11 -238 35 -49 41 -166 159 -182 183 -26 41 -13 100 31 135 19 15
50 41 69 57 20 16 33 31 30 34 -2 3 0 11 6 18 18 22 1 81 -34 119 -17 19 -37
35 -43 35 -6 0 -18 7 -25 16 -19 23 -147 13 -214 -16 -271 -118 -427 -48 -429
192 -1 49 -5 89 -10 90 -15 5 -34 -67 -32 -119 l3 -50 -67 33 c-72 36 -76 41
-105 146 -18 63 -52 93 -42 36 13 -71 18 -92 33 -126 8 -19 12 -37 10 -39 -2
-3 -19 -7 -38 -9 -18 -3 -59 -19 -90 -35 -66 -33 -86 -35 -131 -13 -85 43
-114 117 -83 211 29 89 89 127 172 112 74 -14 76 -15 124 -28 89 -26 198 15
277 104 65 73 67 81 39 212 -12 55 -75 135 -131 168 -68 40 -122 49 -191 32
-32 -9 -89 -18 -126 -22 -73 -7 -98 1 -152 50 -22 19 -32 22 -38 13 -11 -17
66 -83 112 -97 24 -7 59 -6 115 2 44 6 112 11 150 11 89 1 130 -23 186 -105
32 -48 41 -70 46 -122 5 -61 5 -63 -32 -107 -46 -55 -118 -98 -176 -106 -28
-3 -71 2 -119 14 -99 25 -162 22 -212 -10 -25 -16 -25 -16 -26 14 -1 46 -13
110 -24 133 -12 24 -75 85 -89 85 -5 0 -9 5 -9 11 0 13 -120 3 -155 -13 -46
-21 -71 -109 -45 -159 21 -37 36 -22 39 39 1 32 8 63 16 71 7 7 38 15 68 18
52 4 57 3 96 -32 31 -28 41 -46 46 -78 12 -83 11 -133 -3 -187 -7 -30 -16 -64
-19 -76 -15 -61 71 -187 137 -201 17 -3 30 -9 30 -13 0 -4 -16 -37 -36 -73
-85 -152 -181 -212 -299 -186 -32 7 -115 69 -115 85 0 9 -7 14 -17 12 -28 -5
-17 -49 19 -80 37 -32 103 -65 138 -69 64 -7 161 34 217 91 l41 43 7 -34 c16
-83 99 -161 191 -180 69 -14 116 -2 135 33 17 31 1 37 -40 15 -39 -21 -39 -21
-97 -3 -129 40 -187 157 -133 270 25 53 37 65 113 106 49 27 70 33 125 33 87
1 161 -30 187 -79 10 -19 22 -34 27 -34 4 0 6 -4 3 -8 -11 -18 71 -64 143 -81
45 -10 158 6 199 28 15 8 17 3 19 -40 3 -57 8 -70 27 -63 10 4 13 17 10 42 -3
20 -2 47 1 60 9 38 73 57 179 53 39 -1 116 -78 116 -115 0 -28 -29 -62 -84
-100 -36 -24 -66 -74 -66 -108 0 -23 -3 -26 -19 -20 -11 4 -30 16 -44 28 -83
72 -238 104 -392 79 -65 -11 -125 -61 -166 -140 -25 -48 -106 -126 -165 -159
-84 -47 -311 -86 -338 -58 -4 4 -11 7 -14 7 -4 1 -25 7 -47 15 -61 20 -210 13
-260 -13 -28 -15 -40 -29 -64 -73 -24 -45 -22 -76 12 -142 28 -53 64 -69 117
-50 30 10 41 29 37 60 -5 30 -15 31 -32 4 -26 -40 -57 -34 -85 17 -27 47 -27
68 1 113 16 26 29 33 76 43 80 16 128 14 208 -9 77 -22 156 -25 225 -9 25 6
55 13 67 15 12 2 41 13 65 23 l44 19 13 -28 c7 -18 29 -36 58 -50 l45 -21 -4
-51 c-3 -27 -11 -54 -17 -58 -7 -4 -12 -11 -11 -16 3 -14 -71 -35 -102 -29
-15 4 -49 24 -75 46 -26 21 -54 40 -63 40 -8 1 -24 3 -36 4 -11 1 -27 -3 -36
-9 -14 -10 -38 -48 -38 -60 0 -13 28 -4 45 14 10 11 25 20 33 20 20 0 102 -48
102 -60 0 -6 7 -10 16 -10 31 0 -74 -67 -116 -75 -8 -1 -22 1 -32 6 -9 5 -47
9 -85 10 -98 2 -103 6 -102 88 1 38 -4 77 -10 89 -22 41 -101 46 -101 6 0 -10
7 -13 23 -9 38 10 61 -24 55 -85 -3 -28 -9 -55 -14 -60 -6 -6 -37 -13 -71 -18
-71 -10 -111 -33 -126 -73 -13 -32 -32 -40 -65 -25 -18 7 -26 6 -32 -4 -11
-18 38 -41 72 -35 12 3 27 0 34 -6 14 -12 29 5 19 22 -10 15 14 67 34 73 9 3
35 8 58 11 23 3 53 9 67 15 18 6 34 4 59 -8 l35 -17 -27 -40 c-26 -38 -30 -40
-79 -40 -41 0 -52 -3 -50 -15 2 -11 19 -16 55 -18 46 -3 52 -6 58 -29 6 -24 7
-25 22 -10 13 13 14 19 4 31 -10 12 -8 22 8 54 31 61 87 86 149 67 20 -7 21
-10 10 -24 -27 -33 -48 -80 -48 -106 0 -14 10 -54 22 -88 35 -102 9 -145 -88
-149 -71 -3 -124 41 -124 102 0 24 -76 100 -99 100 -26 0 -78 -36 -84 -59 -3
-11 1 -25 9 -32 10 -8 14 -8 14 0 0 15 37 51 53 51 25 0 65 -45 72 -80 10 -48
29 -77 66 -96 31 -15 31 -16 13 -37 -51 -59 -50 -87 0 -120 34 -23 45 -3 16
28 l-22 24 20 29 c31 43 46 52 91 57 53 5 77 19 96 55 21 40 19 82 -6 141 -15
34 -20 59 -15 81 10 51 52 106 99 129 23 12 44 25 47 28 15 19 61 39 102 43
l46 5 5 -41 c3 -22 9 -56 13 -74 4 -21 1 -48 -10 -75 -17 -45 -87 -127 -123
-146 -30 -15 -29 -31 2 -31 14 0 25 5 25 10 0 6 4 9 8 8 14 -5 89 77 111 120
23 44 28 112 16 189 -6 33 -2 51 19 93 35 70 34 117 -3 158 -17 18 -41 36 -55
42 -25 9 -33 34 -18 55 4 6 22 22 41 34 18 13 48 47 66 75 46 71 105 133 140
146 81 30 262 10 336 -38 14 -9 47 -30 74 -47 49 -31 72 -51 137 -122 l38 -41
-53 -7 c-46 -6 -58 -13 -104 -62 -29 -30 -67 -84 -84 -120 -17 -36 -38 -74
-48 -85 -37 -44 -183 -108 -248 -108 -30 0 -116 28 -155 50 -11 6 -19 6 -23 0
-10 -16 3 -29 58 -57 90 -45 161 -39 318 25 43 18 91 73 132 155 52 104 108
162 165 171 23 3 50 2 60 -3 9 -5 19 -9 22 -8 3 0 25 -11 50 -25 122 -71 221
-71 365 0 74 37 218 213 199 243 -9 15 13 10 26 -6 21 -26 114 -48 152 -36 79
24 113 40 116 56 3 12 -1 15 -15 12 -129 -39 -137 -40 -172 -27 -45 16 -134
86 -156 124 -25 41 -15 143 21 205 39 65 127 185 157 210 16 15 68 112 81 154
12 39 73 3 92 -56 9 -27 30 -49 81 -81 60 -37 120 -36 177 4 51 34 62 56 38
69 -14 7 -21 5 -29 -8 -14 -22 -73 -51 -105 -51 -42 0 -113 53 -137 103 -17
35 -31 49 -57 59 -25 9 -33 17 -28 28 27 66 37 335 14 395 -14 38 -6 45 55 45
73 0 97 -11 134 -61 26 -37 30 -49 24 -79 -11 -57 -7 -124 11 -178 13 -39 15
-56 6 -71 -14 -27 -53 -36 -95 -24 -43 14 -68 0 -40 -21 37 -28 121 -23 155 9
24 22 26 22 43 5 34 -33 110 -44 177 -25 27 8 40 21 40 40 0 23 -13 27 -37 12
-7 -4 -35 -11 -62 -14 -58 -7 -98 13 -127 61 -10 17 -19 33 -19 36 -1 3 -5 23
-10 45 -4 22 -8 42 -8 45 17 113 15 128 -19 172 -40 51 -55 66 -87 79 -24 10
-112 14 -140 7 -9 -2 -18 10 -25 33 -15 48 -67 129 -83 129 -7 0 -13 -3 -13
-7z"/>
<path d="M4793 11224 c-18 -9 -42 -31 -53 -49 -29 -47 -26 -91 11 -145 80
-116 256 -109 289 12 18 66 -1 115 -64 163 -46 35 -135 44 -183 19z m135 -53
c80 -41 88 -140 14 -161 -56 -15 -86 -12 -122 13 -58 38 -63 113 -11 145 40
24 76 25 119 3z"/>
<path d="M4347 10992 c-10 -10 -14 -22 -10 -25 3 -4 1 -7 -6 -7 -19 0 -3 -72
21 -92 27 -24 43 -23 68 4 29 31 27 85 -6 114 -30 29 -45 30 -67 6z m51 -75
c-2 -12 -10 -22 -18 -22 -19 0 -25 41 -9 61 11 14 13 13 21 -1 5 -8 8 -26 6
-38z"/>
<path d="M4666 10799 c-49 -14 -76 -47 -76 -95 0 -78 60 -104 153 -66 45 19
54 52 26 102 -29 51 -63 70 -103 59z m52 -59 c35 -33 28 -57 -19 -71 -69 -21
-102 19 -55 66 30 30 45 31 74 5z"/>
<path d="M5237 10608 c-32 -30 -41 -73 -26 -112 27 -64 73 -73 137 -25 37 27
42 36 42 69 0 77 -97 120 -153 68z m96 -33 c10 -4 17 -18 17 -35 0 -22 -9 -34
-36 -51 l-37 -22 -18 22 c-48 59 2 117 74 86z"/>
<path d="M4333 10499 c-48 -14 -75 -54 -69 -102 7 -49 9 -51 50 -71 32 -15 38
-15 76 0 48 19 63 42 62 97 -1 69 -45 97 -119 76z m64 -37 c22 -14 25 -57 6
-80 -26 -33 -70 -33 -95 -1 -27 35 -16 66 25 78 41 12 50 12 64 3z"/>
<path d="M4876 10452 c-3 -3 -19 -6 -36 -7 -59 -5 -90 -62 -76 -140 5 -25 17
-42 44 -60 55 -37 87 -33 138 19 40 39 43 47 38 77 -13 68 -30 94 -67 106 -20
6 -38 8 -41 5z m36 -56 c10 -7 20 -31 24 -53 6 -38 4 -41 -31 -63 -35 -22 -39
-22 -70 -7 -35 17 -48 55 -33 96 13 36 77 52 110 27z"/>
<path d="M6511 10427 c-19 -7 -48 -29 -64 -49 -77 -95 -9 -233 114 -232 44 1
54 5 84 37 37 39 67 112 60 149 -4 17 -73 96 -88 98 -41 8 -79 7 -106 -3z
m108 -44 c33 -32 51 -70 47 -94 -3 -13 -5 -26 -5 -29 -1 -3 -14 -21 -31 -39
-24 -29 -35 -35 -68 -34 -75 2 -120 59 -101 127 21 72 112 112 158 69z"/>
<path d="M5625 10383 c-60 -15 -77 -94 -29 -132 34 -26 64 -27 97 -1 22 18 25
27 22 62 -6 58 -39 83 -90 71z m53 -74 c3 -31 -1 -37 -20 -43 -16 -4 -28 0
-40 15 -10 12 -18 25 -18 29 0 18 33 41 54 38 16 -2 22 -11 24 -39z"/>
<path d="M4508 10143 c-46 -12 -64 -117 -27 -154 15 -15 30 -19 54 -16 43 6
55 14 69 49 19 45 8 87 -28 109 -31 19 -38 20 -68 12z m62 -88 c0 -29 -4 -36
-25 -41 -40 -10 -52 0 -47 38 9 68 72 71 72 3z"/>
<path d="M7896 10068 c-50 -30 -61 -51 -40 -69 13 -10 22 -10 47 0 27 11 80
14 198 12 34 -1 124 -90 140 -139 14 -41 18 -357 5 -407 -10 -40 -17 -265 -9
-278 4 -6 8 -24 10 -39 4 -39 36 -99 90 -168 64 -83 143 -118 273 -119 l35 -1
0 -112 c0 -85 4 -122 17 -148 16 -35 25 -61 33 -97 11 -53 48 -115 168 -275
19 -25 129 -89 144 -84 6 3 13 1 15 -4 5 -15 144 -41 245 -47 88 -5 95 -4 158
26 52 24 71 28 86 21 10 -6 19 -8 19 -5 0 13 70 -72 81 -97 6 -16 16 -28 21
-28 5 0 7 -4 4 -9 -3 -5 0 -14 8 -20 23 -20 45 -102 46 -181 2 -83 -8 -127
-39 -166 -11 -15 -18 -30 -15 -35 3 -5 1 -9 -3 -9 -17 0 -33 -67 -33 -133 0
-82 24 -141 51 -127 14 8 17 24 18 89 1 86 5 100 57 206 31 65 34 78 35 170 2
139 -26 232 -96 315 -19 23 -39 48 -43 54 -4 7 -15 17 -24 22 -15 8 -11 16 32
64 28 30 50 61 50 68 0 20 3 26 21 45 14 16 29 60 29 88 0 5 -10 9 -23 9 -15
0 -26 -9 -34 -27 -7 -16 -28 -44 -46 -64 -36 -39 -147 -119 -165 -119 -6 0
-12 -4 -14 -8 -9 -21 -127 -59 -188 -61 -140 -4 -300 53 -346 123 -15 22 -43
57 -61 77 -90 95 -150 273 -139 414 3 44 6 81 6 83 0 1 8 2 19 2 52 0 137 107
156 198 6 29 4 32 -17 32 -15 0 -41 -19 -75 -53 -28 -30 -69 -62 -90 -73 -45
-22 -148 -24 -208 -4 -55 18 -151 117 -165 171 -13 49 -15 196 -3 299 20 179
2 387 -42 475 -13 27 -49 75 -80 105 l-56 55 -110 5 c-107 5 -112 4 -153 -22z"/>
<path d="M5940 10073 c-62 -41 -80 -66 -80 -105 0 -51 24 -96 55 -104 14 -3
25 -11 25 -17 0 -7 4 -7 12 1 7 7 31 12 53 12 60 0 105 53 105 124 0 78 -106
133 -170 89z m100 -38 c34 -18 39 -49 15 -95 -18 -35 -40 -47 -80 -44 -45 3
-63 13 -69 40 -10 40 3 70 42 92 44 26 54 27 92 7z"/>
<path d="M5195 9975 c-67 -24 -105 -83 -105 -163 1 -119 90 -204 204 -196 63
5 110 35 135 88 38 77 21 164 -42 227 -58 57 -117 70 -192 44z m125 -58 c115
-54 108 -223 -11 -259 -62 -18 -137 22 -165 89 -51 119 59 224 176 170z"/>
<path d="M6430 9923 c-34 -13 -127 -83 -147 -111 -22 -30 -129 -103 -162 -110
-54 -12 -155 -1 -214 24 -72 30 -144 34 -199 10 -26 -11 -49 -35 -83 -86 -51
-77 -108 -140 -127 -141 -45 -2 -63 -12 -116 -61 -87 -80 -91 -178 -10 -237
68 -50 96 -50 181 0 128 78 193 99 267 86 50 -8 140 -97 140 -137 0 -6 16 -18
35 -27 95 -46 209 55 230 202 20 136 54 209 115 244 42 25 120 96 120 109 0 6
4 12 8 14 5 2 23 23 40 47 34 47 41 91 20 135 -13 30 -66 51 -98 39z"/>
<path d="M7977 9873 c-32 -17 -64 -80 -71 -140 -8 -78 57 -167 132 -179 32 -5
43 -2 69 20 43 36 67 103 60 161 -7 51 -40 101 -71 111 -12 4 -32 14 -45 23
-31 20 -40 20 -74 4z m69 -108 c6 0 18 -8 28 -18 21 -20 18 -64 -6 -90 -13
-15 -20 -17 -38 -7 -40 21 -48 87 -17 145 10 19 11 19 17 -5 3 -14 11 -25 16
-25z"/>
<path d="M4827 9758 c-9 -7 -19 -25 -22 -40 -6 -22 -1 -32 20 -53 33 -30 56
-32 78 -7 50 55 -18 143 -76 100z m59 -43 c4 -8 1 -22 -6 -30 -16 -19 -40 -2
-40 26 0 23 38 26 46 4z"/>
<path d="M4672 9614 c-29 -20 -28 -48 1 -61 31 -14 57 1 57 32 0 33 -31 49
-58 29z m28 -34 c0 -5 -4 -10 -10 -10 -5 0 -10 5 -10 10 0 6 5 10 10 10 6 0
10 -4 10 -10z"/>
<path d="M4732 9474 c-33 -23 -54 -71 -47 -104 7 -32 39 -65 54 -55 6 3 11 2
11 -3 0 -19 38 -19 68 0 40 25 69 96 53 127 -14 25 -61 51 -93 51 -13 0 -34
-7 -46 -16z m78 -29 c37 -19 39 -49 7 -87 -34 -41 -59 -43 -89 -9 -15 16 -24
31 -22 34 3 3 7 13 8 22 2 17 43 54 59 55 4 0 21 -7 37 -15z"/>
<path d="M4521 9429 c-15 -17 -18 -26 -10 -40 5 -11 14 -19 19 -19 4 0 15 -2
22 -5 9 -4 19 4 26 20 15 32 15 30 -4 49 -21 21 -29 20 -53 -5z m26 -31 c-3
-8 -6 -5 -6 6 -1 11 2 17 5 13 3 -3 4 -12 1 -19z"/>
<path d="M5102 9410 c-41 -9 -65 -30 -112 -100 -56 -84 -75 -142 -75 -235 0
-71 4 -87 33 -144 43 -81 115 -158 171 -183 24 -10 46 -16 49 -14 2 3 12 1 22
-4 20 -11 72 2 148 36 94 43 219 27 288 -36 73 -67 118 -66 188 5 49 51 52 84
10 112 -21 13 -31 14 -69 3 -52 -15 -102 -9 -140 16 -23 15 -107 151 -111 180
-6 40 -53 77 -110 88 -37 7 -104 55 -124 89 -11 18 -23 53 -26 79 -10 74 -74
122 -142 108z"/>
<path d="M8475 9348 c-40 -23 -84 -102 -85 -151 0 -37 33 -100 62 -119 54 -35
130 -30 179 13 21 18 24 29 24 92 0 60 -5 78 -25 109 -23 35 -36 43 -66 39 -6
-1 -17 6 -24 14 -15 18 -37 19 -65 3z m95 -98 c12 0 23 -63 16 -88 -7 -21 -54
-36 -81 -26 -36 14 -35 112 2 139 15 11 21 11 36 -6 10 -10 22 -19 27 -19z"/>
<path d="M4485 9290 c-23 -26 -25 -82 -3 -104 33 -33 94 -18 113 28 11 26 11
35 -3 58 -24 42 -78 51 -107 18z m74 -34 c15 -17 5 -43 -19 -49 -29 -7 -44 8
-36 37 7 29 36 35 55 12z"/>
<path d="M5670 9178 c-71 -20 -120 -119 -96 -194 11 -36 63 -66 126 -71 74 -7
123 20 151 81 25 56 24 95 -6 138 -35 52 -97 69 -175 46z"/>
<path d="M4723 9107 c-42 -37 -81 -55 -131 -61 -50 -5 -67 -28 -67 -89 0 -64
-9 -79 -41 -71 -36 9 -89 -20 -105 -58 -23 -55 -18 -109 15 -156 39 -57 73
-66 185 -53 129 16 153 2 150 -84 -2 -50 0 -59 25 -88 29 -34 121 -62 170 -51
58 12 110 78 121 155 11 77 -18 159 -77 217 -27 27 -51 55 -52 63 -2 8 -9 28
-16 44 -7 17 -14 35 -15 40 0 6 -4 37 -8 70 -13 101 -26 133 -60 145 -45 15
-54 13 -94 -23z"/>
<path d="M9269 8986 c-2 -2 -30 -7 -62 -10 -199 -21 -325 -237 -263 -450 9
-31 16 -59 15 -62 0 -4 3 -10 8 -13 11 -8 44 -59 43 -67 -3 -19 131 -100 182
-109 11 -2 27 -7 37 -10 27 -8 118 12 172 39 43 22 109 77 109 92 0 3 9 19 21
35 11 16 22 37 24 47 2 9 4 17 5 17 7 0 14 64 14 130 1 73 -2 87 -36 155 -34
69 -88 140 -107 140 -4 0 -17 9 -28 19 -11 11 -44 27 -74 35 -60 18 -54 17
-60 12z m26 -100 c22 -5 49 -13 60 -19 30 -15 105 -77 103 -85 -1 -4 7 -23 17
-42 30 -55 27 -191 -6 -249 -52 -93 -128 -143 -208 -135 -64 6 -71 8 -111 27
-36 18 -120 123 -120 149 0 8 -3 18 -7 22 -23 23 -9 143 24 210 23 46 88 103
135 118 46 16 52 16 113 4z"/>
<path d="M5440 8716 c-19 -6 -47 -19 -62 -30 -22 -14 -41 -17 -95 -14 -66 4
-67 4 -104 -33 -30 -30 -40 -51 -54 -112 -16 -65 -24 -81 -71 -131 -79 -84
-93 -149 -46 -215 34 -50 62 -63 137 -67 116 -5 185 54 185 156 0 66 27 118
81 156 39 27 49 29 118 27 164 -5 196 -37 154 -156 -13 -37 -21 -72 -18 -77 3
-5 1 -11 -4 -15 -18 -10 9 -49 46 -67 39 -18 63 -13 112 22 66 46 131 335 88
391 -16 21 -85 56 -122 62 -17 3 -50 10 -75 17 -25 7 -45 11 -45 9 -1 -2 -24
13 -53 34 -61 43 -121 58 -172 43z"/>
<path d="M5469 8372 c-63 -42 -79 -79 -56 -135 15 -34 59 -67 91 -67 21 0 74
47 91 81 22 42 19 95 -7 113 -12 8 -25 13 -29 10 -4 -2 -10 0 -14 6 -10 15
-47 12 -76 -8z"/>
<path d="M9414 7959 c-35 -18 -55 -66 -57 -144 -2 -39 3 -57 23 -83 39 -53
116 -79 161 -56 65 33 89 145 50 223 -23 43 -31 51 -64 57 -63 12 -94 12 -113
3z m117 -75 c7 -9 13 -37 13 -64 0 -57 -16 -80 -55 -80 -59 0 -89 110 -41 147
24 17 67 16 83 -3z"/>
<path d="M10095 5848 c-44 -16 -107 -38 -140 -48 -33 -10 -85 -28 -115 -39
-30 -11 -110 -39 -178 -63 -68 -24 -122 -46 -120 -49 2 -3 -3 -13 -10 -22 -11
-13 -10 -17 8 -27 12 -7 68 -46 124 -88 325 -243 509 -372 532 -372 8 0 14 6
15 13 2 20 -3 359 -6 397 -1 19 -3 101 -4 183 -1 111 -4 147 -13 146 -7 0 -49
-14 -93 -31z m-8 -329 l3 -180 -82 57 c-169 117 -214 149 -240 170 l-27 22 27
11 c66 27 307 108 312 104 2 -2 6 -85 7 -184z"/>
<path d="M9274 5463 c-93 -97 -175 -182 -181 -189 -33 -32 -4 -49 122 -69 39
-7 125 -23 150 -29 11 -2 49 -11 85 -20 36 -9 78 -16 94 -16 27 0 28 1 22 38
-8 49 -11 62 -35 157 -47 188 -64 261 -64 283 -1 12 -6 22 -12 22 -6 0 -88
-79 -181 -177z m156 -133 c10 -30 16 -56 15 -58 -2 -2 -42 4 -89 14 l-85 18
37 45 c20 26 48 59 62 74 l25 29 9 -34 c5 -18 17 -58 26 -88z"/>
<path d="M9579 5463 c-1 -5 0 -12 1 -18 2 -5 6 -30 11 -55 4 -25 13 -71 19
-102 34 -188 40 -219 46 -239 2 -9 7 -34 10 -55 9 -78 23 -88 94 -71 19 4 46
10 60 13 140 29 377 87 384 94 13 13 2 24 -63 66 -50 32 -178 123 -216 152
-10 8 -153 109 -258 182 -54 38 -86 49 -88 33z m194 -233 c16 0 217 -151 206
-154 -44 -15 -182 -46 -202 -46 -19 0 -23 6 -25 33 -1 17 -13 74 -26 125 l-23
92 33 -25 c18 -14 35 -25 37 -25z"/>
<path d="M8406 5272 c-11 -18 5 -666 16 -673 6 -4 18 -5 27 -1 25 9 226 135
229 144 2 4 8 8 12 8 5 0 72 39 150 88 77 48 156 96 175 107 19 11 44 28 55
38 11 9 24 17 28 17 4 0 32 16 62 36 30 20 68 43 83 51 31 15 25 35 -10 39
-10 1 -133 23 -273 49 -140 26 -266 48 -280 50 -14 1 -32 5 -40 8 -8 3 -53 13
-100 22 -47 9 -95 18 -106 21 -12 3 -25 1 -28 -4z m210 -177 c108 -15 177 -26
183 -29 3 -2 28 -7 55 -10 27 -4 53 -9 58 -12 8 -5 -15 -34 -27 -34 -4 0 -44
-24 -88 -53 -189 -124 -226 -147 -237 -147 -8 0 -10 46 -9 150 2 138 3 150 19
145 10 -3 31 -7 46 -10z"/>
<path d="M9320 5100 c0 -6 -4 -8 -10 -5 -28 18 -3 -24 48 -78 211 -225 274
-285 294 -282 11 3 22 6 24 8 2 2 -7 43 -20 93 -12 49 -29 115 -36 147 -18 79
-22 81 -175 103 -42 6 -87 15 -107 20 -10 3 -18 0 -18 -6z m221 -112 c5 -7 9
-23 9 -36 0 -25 2 -27 -48 30 l-23 25 27 -3 c15 -1 31 -9 35 -16z"/>
<path d="M9198 4992 c-26 -15 -87 -49 -135 -76 -124 -68 -183 -107 -183 -121
0 -17 27 -28 220 -94 96 -32 195 -66 220 -76 25 -9 59 -20 75 -24 17 -4 39
-12 50 -18 11 -5 89 -34 173 -63 102 -34 157 -49 164 -42 6 6 -80 100 -254
276 -145 146 -268 266 -273 266 -6 0 -31 -13 -57 -28z m182 -230 c36 -34 68
-62 72 -62 5 0 8 -4 8 -9 0 -5 -35 4 -77 21 -43 16 -105 39 -138 50 -33 11
-75 26 -94 35 l-35 14 55 30 c29 17 58 34 63 39 9 9 21 0 146 -118z"/>
<path d="M10190 4892 c-28 -9 -340 -164 -344 -171 -4 -6 100 -200 113 -211 4
-3 12 -16 19 -30 7 -14 35 -63 62 -109 28 -46 50 -86 50 -88 0 -3 14 -25 32
-49 55 -77 60 -68 78 146 6 69 13 141 15 160 2 19 7 64 10 100 4 36 9 72 10
82 3 16 7 121 6 145 -1 16 -32 32 -51 25z m-77 -239 c-4 -49 -8 -107 -8 -130
1 -50 -13 -44 -44 20 -12 23 -34 58 -51 77 -30 35 -38 60 -20 60 6 0 31 13 58
30 73 46 75 44 65 -57z"/>
<path d="M8744 4586 c-38 -35 -82 -74 -98 -87 -72 -60 -161 -145 -164 -155 -2
-7 6 -15 18 -19 19 -6 53 -4 200 10 19 2 73 6 120 10 124 9 210 16 250 20 19
2 76 7 125 10 92 5 158 11 253 21 103 11 67 29 -278 145 -179 60 -332 109
-341 109 -9 0 -47 -29 -85 -64z m191 -56 c6 -4 47 -18 92 -31 46 -13 83 -27
83 -31 0 -5 -21 -9 -47 -9 -27 -1 -57 -3 -68 -4 -11 -2 -60 -6 -110 -10 -49
-3 -98 -9 -107 -11 -32 -9 -20 10 39 62 56 50 84 58 118 34z"/>
<path d="M9530 4179 c-63 -32 -120 -59 -126 -59 -5 0 -19 -8 -30 -17 -11 -10
-26 -19 -34 -21 -37 -8 -200 -96 -197 -106 3 -12 78 -52 137 -76 19 -7 103
-46 185 -85 155 -74 222 -101 232 -92 3 3 -3 93 -13 199 -10 106 -18 219 -18
250 -1 32 -6 60 -11 62 -6 2 -62 -23 -125 -55z m35 -175 c4 -38 8 -75 10 -81
3 -7 2 -13 -1 -13 -9 0 -108 31 -134 42 -14 6 -31 12 -38 14 -49 9 -44 17 37
59 75 39 111 54 118 50 1 -1 5 -32 8 -71z"/>
<path d="M8675 3910 c-3 -5 -3 -126 1 -267 3 -142 7 -304 8 -360 0 -61 5 -103
11 -103 6 0 5 -4 -1 -8 -15 -9 0 -52 18 -52 14 0 68 63 68 79 0 5 4 11 8 13 4
2 45 52 91 113 l84 109 -67 131 c-177 347 -199 381 -221 345z m112 -317 c4
-10 22 -44 40 -76 26 -47 30 -61 20 -71 -11 -12 -38 -46 -70 -89 -11 -16 -13
1 -12 117 0 127 6 160 22 119z"/>
<path d="M9363 3438 c-6 -7 -32 -53 -58 -103 -26 -49 -59 -107 -73 -128 -21
-32 -23 -40 -11 -47 8 -5 28 -7 44 -4 34 5 73 11 125 19 19 2 46 7 60 10 14 3
41 8 60 10 124 18 160 28 160 44 0 10 -46 44 -123 90 -67 41 -134 85 -148 98
-20 19 -28 21 -36 11z m104 -134 c30 -20 53 -38 51 -40 -6 -6 -188 -31 -188
-26 0 8 71 102 77 102 3 0 30 -16 60 -36z"/>
</g>
</svg>
