<?xml version="1.0" standalone="no"?>
<!DOCTYPE svg PUBLIC "-//W3C//DTD SVG 20010904//EN"
 "http://www.w3.org/TR/2001/REC-SVG-20010904/DTD/svg10.dtd">
<svg version="1.0" xmlns="http://www.w3.org/2000/svg"
 width="2048.000000pt" height="2048.000000pt" viewBox="0 0 2048.000000 2048.000000"
 preserveAspectRatio="xMidYMid meet">

<g transform="translate(0.000000,2048.000000) scale(0.100000,-0.100000)"
fill="#000000" stroke="none">
<path d="M9435 18733 c-1292 -43 -2553 -408 -3523 -1020 -880 -555 -1476
-1285 -1667 -2042 -121 -481 -83 -974 107 -1406 49 -111 55 -135 35 -135 -26
0 -237 -89 -323 -135 -345 -188 -669 -490 -897 -837 -170 -259 -275 -504 -339
-793 -19 -85 -22 -130 -22 -300 1 -185 3 -208 27 -300 15 -55 48 -143 75 -196
l47 -96 -105 -54 c-470 -242 -839 -642 -1016 -1101 -165 -426 -148 -918 45
-1334 247 -529 762 -929 1396 -1085 66 -16 130 -29 142 -29 13 0 23 -6 23 -13
0 -7 -16 -59 -36 -116 -183 -533 -249 -1148 -188 -1739 93 -899 452 -1723
1033 -2367 109 -120 283 -284 416 -390 565 -450 1240 -696 1907 -695 130 1
191 4 389 25 l67 8 75 -154 c183 -372 414 -688 728 -994 294 -287 581 -487
956 -666 92 -45 188 -91 213 -104 440 -224 1413 -290 2022 -136 62 16 165 49
228 74 63 24 126 48 140 52 63 20 379 198 500 283 168 118 404 336 526 485 38
47 50 55 59 45 7 -7 45 -50 84 -95 243 -279 652 -501 1092 -593 319 -66 720
-68 1024 -5 287 60 558 174 775 326 100 71 249 215 323 314 78 104 160 275
194 400 23 88 26 119 26 260 0 144 -3 170 -27 260 -16 55 -30 109 -33 120 -4
19 0 20 114 17 418 -12 902 113 1298 335 1044 586 1605 1731 1349 2748 -66
262 -186 501 -356 712 l-67 82 102 89 c126 111 370 357 472 477 582 682 952
1514 1040 2342 19 174 22 537 5 698 -62 623 -278 1173 -636 1625 -38 47 -130
148 -206 225 l-138 140 79 155 c247 485 387 982 441 1570 17 175 14 588 -5
785 -188 1978 -1589 3558 -3326 3751 -199 22 -588 15 -779 -15 -574 -89 -1094
-328 -1550 -712 -63 -54 -141 -124 -173 -157 l-59 -60 -191 192 c-257 257
-469 418 -792 601 -821 466 -1972 717 -3120 678z m628 -393 c654 -40 1250
-165 1787 -377 999 -393 1646 -1044 1802 -1814 20 -99 23 -144 23 -334 0 -191
-3 -235 -23 -335 -34 -167 -112 -394 -191 -555 -63 -127 -233 -403 -259 -419
-6 -4 -55 19 -108 49 -376 218 -835 384 -1234 449 -775 126 -1514 -24 -2182
-442 -469 -294 -907 -745 -1250 -1288 -99 -158 -227 -387 -299 -540 l-59 -124
-50 0 c-69 0 -318 27 -473 51 -397 61 -812 172 -1172 314 -157 61 -472 216
-610 300 -583 353 -980 824 -1134 1343 -53 180 -66 278 -66 497 0 208 7 271
51 446 143 575 546 1126 1165 1597 880 666 2147 1100 3454 1181 194 12 633 12
828 1z m6097 -529 c537 -85 987 -283 1439 -633 141 -110 453 -422 577 -578
365 -460 623 -990 764 -1574 75 -310 108 -559 117 -881 15 -587 -90 -1150
-310 -1660 -470 -1090 -1441 -1806 -2497 -1840 -85 -3 -185 -7 -221 -10 l-67
-4 -72 212 c-478 1401 -1278 2591 -2244 3341 -82 64 -123 102 -118 110 4 6 30
46 59 88 540 789 628 1648 246 2407 l-74 146 134 130 c187 183 369 319 595
444 284 157 650 275 962 310 52 6 111 13 130 15 90 11 460 -4 580 -23z m-4400
-3179 c620 -102 1222 -392 1790 -864 160 -133 496 -466 633 -629 274 -324 501
-650 720 -1029 110 -191 321 -619 415 -840 331 -783 554 -1664 641 -2535 36
-364 44 -582 37 -1020 -9 -516 -10 -525 -30 -670 -9 -66 -28 -203 -42 -305
-147 -1068 -541 -2057 -1100 -2760 -129 -162 -419 -456 -564 -570 -235 -186
-561 -372 -814 -465 -803 -294 -1674 -192 -2524 295 -1051 602 -1971 1795
-2516 3263 -873 2353 -705 5009 425 6694 366 547 872 993 1387 1223 241 107
497 183 722 214 63 9 129 18 145 20 17 2 147 3 290 1 203 -2 287 -7 385 -23z
m-7065 -937 c288 -358 663 -653 1154 -904 l205 -104 -34 -26 c-366 -278 -624
-717 -706 -1203 -10 -60 -21 -108 -25 -108 -3 0 -46 23 -95 51 -270 156 -607
259 -947 290 -249 23 -573 0 -807 -57 l-95 -23 -27 26 c-39 37 -86 131 -109
220 -26 98 -28 287 -4 418 104 582 627 1223 1180 1446 84 34 189 67 216 68 10
1 51 -41 94 -94z m1951 -1225 c333 -103 674 -174 1108 -230 81 -10 150 -21
152 -23 2 -2 -10 -41 -27 -87 -16 -46 -54 -163 -84 -260 -186 -615 -295 -1280
-321 -1977 -4 -101 -8 -183 -9 -183 -2 0 -29 12 -61 26 -91 40 -308 112 -437
145 -249 63 -537 95 -769 87 l-129 -5 -41 46 c-151 171 -274 426 -329 684 -30
142 -44 395 -30 536 52 516 296 953 655 1171 69 42 191 99 212 100 6 0 56 -14
110 -30z m12145 -947 c382 -397 611 -875 700 -1463 19 -120 23 -190 23 -405 1
-275 -8 -380 -50 -615 -47 -257 -103 -452 -201 -700 -516 -1306 -1706 -2305
-3048 -2559 -66 -13 -95 -15 -95 -7 0 6 9 45 21 86 91 331 197 959 205 1215 1
66 8 138 13 160 6 22 16 176 22 342 32 801 -64 1697 -271 2521 l-38 152 37 0
c20 0 110 5 201 11 890 56 1700 488 2280 1218 58 72 107 131 111 131 3 0 44
-39 90 -87z m-14591 -214 c334 -30 663 -143 922 -315 150 -100 164 -115 172
-199 26 -261 132 -572 277 -811 28 -47 49 -87 48 -88 -2 -2 -56 -18 -119 -35
-627 -173 -1220 -607 -1627 -1188 -81 -117 -181 -280 -227 -372 -23 -44 -42
-71 -52 -71 -45 0 -280 55 -387 91 -155 51 -355 150 -477 236 -125 89 -309
274 -387 388 -111 165 -183 336 -219 522 -23 119 -23 347 0 466 112 576 570
1059 1206 1271 289 96 582 132 870 105z m2274 -1734 c270 -18 601 -107 883
-240 l111 -53 6 -73 c3 -41 10 -153 16 -249 93 -1494 591 -3021 1369 -4205 48
-71 89 -135 93 -142 10 -14 -116 -263 -202 -401 -319 -510 -791 -913 -1299
-1111 -452 -176 -952 -213 -1426 -105 -381 87 -796 290 -1124 550 -134 107
-419 396 -525 534 -432 559 -687 1194 -778 1930 -21 167 -17 722 5 890 108
803 423 1466 935 1962 384 371 834 605 1329 688 194 33 369 40 607 25z m11547
-3523 c222 -275 333 -570 346 -927 12 -330 -54 -624 -213 -945 -121 -243 -258
-434 -449 -625 -819 -817 -2062 -936 -2761 -263 -57 55 -104 106 -104 112 0 6
41 56 92 111 424 463 769 1048 1017 1725 l46 125 40 1 c22 0 110 12 195 27
568 100 1151 333 1627 652 54 36 102 65 108 64 5 0 31 -26 56 -57z m-8756
-1855 c148 -192 503 -563 710 -743 495 -429 994 -720 1528 -893 308 -100 657
-161 918 -161 62 0 99 -4 99 -10 0 -24 -73 -198 -130 -309 -342 -671 -1014
-1139 -1770 -1233 -139 -17 -630 -17 -770 0 -340 43 -656 142 -984 310 -590
301 -1086 796 -1393 1390 -60 115 -64 127 -47 134 11 4 64 23 119 43 242 87
588 283 795 450 333 268 607 595 827 989 26 47 50 86 53 86 3 -1 23 -24 45
-53z m5556 -1309 c160 -125 344 -226 534 -293 l90 -32 62 -119 c79 -152 103
-239 103 -370 0 -123 -17 -193 -75 -309 -278 -556 -1220 -812 -2021 -550 -309
101 -599 300 -742 508 -81 118 -79 103 -21 219 62 124 127 283 162 398 l26 85
108 18 c384 62 820 235 1173 465 98 64 306 218 315 233 4 5 50 -34 104 -88 53
-54 135 -128 182 -165z"/>
</g>
</svg>
