<?xml version="1.0" standalone="no"?>
<!DOCTYPE svg PUBLIC "-//W3C//DTD SVG 20010904//EN"
 "http://www.w3.org/TR/2001/REC-SVG-20010904/DTD/svg10.dtd">
<svg version="1.0" xmlns="http://www.w3.org/2000/svg"
 width="2048.000000pt" height="2048.000000pt" viewBox="0 0 2048.000000 2048.000000"
 preserveAspectRatio="xMidYMid meet">

<g transform="translate(0.000000,2048.000000) scale(0.100000,-0.100000)"
fill="#000000" stroke="none">
<path d="M17105 20228 c-27 -3 -76 -7 -107 -7 -31 -1 -69 -6 -83 -11 -18 -7
-39 -7 -62 -1 -47 13 -96 -7 -123 -51 -19 -29 -20 -46 -18 -158 4 -155 -9
-349 -27 -415 -26 -95 -43 -221 -59 -435 -9 -118 -23 -308 -32 -423 -17 -211
-17 -242 11 -892 2 -55 11 -125 20 -155 9 -30 18 -75 19 -99 3 -36 9 -50 35
-72 34 -28 122 -59 226 -80 33 -6 101 -24 150 -39 201 -61 208 -62 455 -51
566 27 867 71 1085 159 255 102 314 131 421 209 154 111 204 156 266 242 34
47 97 123 140 168 43 46 78 89 78 96 0 26 70 94 117 115 32 14 82 23 148 27
115 8 183 26 213 58 30 32 39 138 18 210 -36 123 -47 209 -36 282 5 39 17 266
26 505 9 239 18 438 20 442 2 3 0 55 -5 115 -6 67 -6 112 0 118 16 16 10 61
-11 88 -37 47 -57 49 -567 46 -263 -1 -705 1 -983 5 -826 10 -1282 11 -1335 4z
m1490 -148 c60 -13 1081 -19 1166 -7 l56 8 4 -88 c4 -95 3 -207 -2 -693 -2
-173 -3 -371 -1 -440 1 -69 1 -132 1 -140 -1 -8 2 -54 6 -102 5 -77 4 -88 -10
-88 -37 0 -191 -76 -399 -198 -77 -46 -93 -60 -197 -178 -60 -67 -98 -101
-209 -189 -41 -32 -93 -78 -115 -101 -46 -48 -110 -82 -222 -120 -43 -14 -111
-39 -152 -56 -115 -45 -286 -84 -506 -115 -182 -25 -226 -28 -480 -27 -258 0
-292 2 -440 28 -173 29 -246 45 -256 55 -4 3 -1 47 7 96 7 50 14 158 14 242 0
84 4 196 10 250 28 286 41 530 44 813 4 325 20 818 32 951 l7 76 121 -1 c158
0 586 22 662 34 80 12 795 4 859 -10z"/>
<path d="M9410 20219 c-102 -4 -207 -13 -235 -19 -31 -7 -185 -13 -415 -15
-348 -4 -500 -11 -780 -37 -69 -6 -152 -12 -186 -12 -94 -1 -98 -8 -91 -140 4
-61 11 -135 16 -165 5 -31 15 -90 21 -131 6 -41 15 -100 21 -130 26 -153 51
-761 33 -793 -12 -20 -96 -83 -124 -92 -22 -7 -225 -141 -348 -230 -34 -25
-79 -53 -100 -64 -20 -10 -91 -61 -157 -112 -66 -51 -147 -108 -180 -127 -89
-52 -204 -172 -248 -261 -41 -82 -44 -99 -22 -140 23 -45 81 -54 287 -46 282
10 431 27 498 57 25 11 85 24 134 29 50 5 160 20 245 33 86 13 215 31 286 41
72 9 180 25 240 36 159 29 424 41 645 29 102 -5 237 -12 300 -15 204 -10 357
-34 555 -87 150 -39 207 -59 270 -95 187 -105 274 -197 344 -365 10 -25 31
-54 46 -64 25 -17 32 -17 113 -1 126 24 332 40 447 34 87 -4 109 -9 175 -39
41 -20 102 -43 135 -53 51 -14 272 -52 420 -72 42 -5 277 33 413 68 40 10 126
43 191 74 66 31 148 64 183 74 78 23 185 72 255 117 29 18 64 36 78 40 23 6
109 86 127 119 9 16 134 105 148 105 5 0 21 11 37 24 15 13 37 25 47 27 33 7
54 58 65 161 15 136 14 258 -4 358 -9 47 -20 180 -24 295 -8 181 -14 234 -45
384 -62 296 -113 455 -208 646 -39 77 -74 145 -78 150 -21 27 -56 136 -53 161
3 22 -2 35 -22 54 l-27 25 -211 0 c-117 0 -277 6 -357 14 -104 9 -217 11 -400
6 -161 -4 -279 -3 -320 4 -36 5 -103 15 -150 21 -47 7 -141 25 -210 40 -131
30 -315 53 -565 71 -188 14 -969 19 -1215 8z m-500 -213 c63 -3 178 -1 255 3
77 5 253 5 390 0 138 -5 444 -13 680 -19 237 -6 468 -15 515 -20 285 -32 443
-40 684 -36 138 2 272 9 297 15 26 6 108 15 183 21 109 8 161 7 267 -5 73 -9
150 -20 173 -26 22 -5 132 -13 243 -16 l202 -6 7 -41 c9 -54 45 -154 109 -301
59 -136 119 -352 165 -595 17 -91 40 -193 51 -228 23 -79 37 -369 32 -691 l-3
-224 -32 -22 c-18 -12 -71 -47 -118 -79 -47 -31 -96 -65 -110 -75 -69 -50
-112 -73 -156 -85 -71 -19 -139 -51 -194 -91 -26 -19 -51 -35 -55 -35 -4 0
-28 -10 -54 -23 -90 -45 -342 -114 -531 -147 -69 -11 -132 -23 -142 -24 -9 -2
-36 0 -60 5 -23 5 -81 16 -127 24 -149 26 -270 55 -333 79 -112 43 -201 56
-399 59 -155 1 -194 -1 -247 -17 -34 -10 -64 -17 -65 -15 -2 2 -21 43 -42 91
-34 79 -46 95 -123 164 -109 100 -265 220 -322 248 -60 31 -251 101 -323 120
-31 8 -124 20 -205 26 -81 6 -190 15 -242 20 -52 5 -153 14 -225 21 -71 6
-175 15 -230 20 -128 12 -206 2 -545 -63 -58 -12 -148 -29 -200 -39 -52 -10
-117 -25 -145 -34 -27 -8 -107 -19 -177 -24 -70 -5 -132 -12 -137 -16 -6 -3
-48 -10 -95 -15 -46 -6 -106 -19 -132 -31 -35 -14 -85 -22 -178 -29 -217 -14
-466 -23 -466 -15 0 19 268 291 355 359 155 122 608 416 641 416 29 0 72 39
94 85 25 51 24 19 15 625 -3 195 -10 427 -14 515 -5 88 -8 161 -7 162 11 16
762 22 1076 9z"/>
<path d="M5820 20174 c-14 -3 -54 -14 -89 -26 -111 -36 -160 -105 -167 -235
-1 -28 -5 -81 -9 -116 -5 -44 -2 -88 9 -140 23 -111 13 -198 -29 -263 -33 -51
-49 -94 -60 -167 -6 -36 -10 -39 -108 -88 -206 -104 -323 -197 -636 -504 -173
-170 -226 -229 -277 -307 -35 -53 -108 -150 -162 -215 -54 -65 -120 -149 -147
-188 -27 -38 -85 -119 -129 -179 -150 -205 -334 -506 -412 -676 -34 -74 -94
-196 -133 -271 -100 -191 -110 -225 -122 -407 l-10 -153 45 -88 c25 -49 55
-122 67 -162 27 -93 72 -183 160 -326 38 -61 77 -129 85 -150 49 -117 326
-578 421 -700 81 -103 500 -525 630 -634 54 -45 127 -110 163 -144 36 -34 108
-95 160 -135 52 -40 109 -85 125 -99 69 -59 384 -231 526 -287 136 -54 149
-57 226 -56 45 1 108 -6 140 -14 32 -9 119 -22 193 -29 277 -29 297 -35 445
-138 64 -44 99 -76 122 -112 83 -130 140 -185 212 -205 88 -23 147 26 248 207
79 142 77 137 128 261 115 284 230 538 304 676 153 287 244 451 293 531 148
243 292 464 411 633 72 103 160 230 196 282 48 69 137 167 331 363 292 296
580 551 748 662 207 137 277 191 364 279 75 75 88 93 88 121 0 24 5 35 19 40
35 11 44 31 31 69 -18 55 -79 100 -209 151 -64 26 -152 66 -196 90 -67 36
-272 127 -391 174 -17 7 -107 28 -200 48 l-169 35 -445 9 c-245 6 -465 8 -490
5 -78 -8 -322 -46 -331 -52 -5 -2 -95 -25 -201 -49 -106 -25 -226 -54 -267
-65 -46 -12 -108 -20 -165 -21 -177 -1 -601 8 -631 14 -16 4 -79 11 -138 17
-117 10 -245 43 -253 64 -6 15 34 119 95 247 83 176 395 515 651 709 75 57
169 116 236 150 60 30 128 69 150 86 21 17 55 39 74 49 54 28 100 66 116 96
17 33 19 150 4 232 -8 38 -8 87 -1 155 6 54 11 263 11 465 1 311 -1 370 -14
395 -26 50 -59 69 -133 76 -81 7 -1467 16 -1503 10z m1493 -236 c-4 -40 -8
-296 -8 -568 l0 -495 -85 -41 c-47 -23 -114 -52 -150 -64 -89 -30 -277 -120
-336 -161 -117 -79 -238 -189 -359 -325 -71 -81 -157 -177 -191 -213 -33 -37
-72 -87 -86 -111 -23 -40 -126 -333 -142 -402 -9 -40 14 -87 66 -135 75 -68
62 -64 406 -134 131 -27 240 -25 358 6 79 21 120 25 233 25 127 1 250 14 481
54 47 7 159 19 250 26 91 6 221 20 290 32 110 18 172 21 520 22 291 1 412 -2
458 -12 91 -19 304 -85 472 -147 80 -29 156 -56 170 -60 41 -12 360 -168 360
-176 0 -4 -13 -10 -29 -14 -40 -9 -130 -64 -202 -124 -32 -27 -102 -74 -155
-103 -134 -73 -399 -314 -759 -689 -56 -57 -148 -149 -206 -204 -93 -88 -123
-126 -253 -320 -81 -121 -236 -352 -345 -513 -197 -290 -201 -298 -405 -705
-210 -423 -239 -484 -286 -622 -57 -166 -154 -387 -223 -507 -24 -43 -50 -98
-57 -123 -7 -25 -16 -45 -20 -45 -11 0 -98 97 -167 186 -103 132 -231 258
-283 277 -84 30 -305 86 -375 96 -278 37 -513 112 -681 216 -39 25 -121 67
-182 94 -178 78 -315 165 -472 298 -135 114 -155 134 -414 410 -161 174 -264
293 -302 350 -31 49 -81 120 -111 160 -54 73 -216 333 -387 623 -84 141 -168
314 -210 431 -15 43 -15 48 4 104 11 32 20 68 20 79 0 12 25 91 54 176 64 184
226 531 324 693 84 138 340 483 433 582 80 85 244 285 289 351 18 27 65 83
105 124 39 41 99 111 132 155 63 82 124 145 205 212 25 21 90 77 145 124 107
95 215 169 245 169 30 0 91 29 121 58 39 36 66 92 74 149 3 27 21 79 40 116
50 101 118 448 109 562 -3 44 -1 87 4 95 7 12 44 14 217 12 460 -4 1021 -1
1078 7 33 5 97 9 143 10 l83 1 -8 -72z"/>
<path d="M3745 20099 c-236 -36 -345 -44 -917 -67 -150 -6 -230 -5 -290 3
-104 15 -820 11 -1000 -5 -68 -6 -213 -11 -323 -9 -110 1 -261 2 -335 3 -140
1 -238 -14 -264 -40 -19 -19 -25 -18 -34 6 -7 19 -9 19 -32 -12 l-25 -33 3
-375 c3 -278 -1 -420 -12 -550 -20 -224 -20 -240 -6 -1100 16 -936 15 -869 8
-1062 -8 -181 3 -250 44 -294 28 -31 56 -34 202 -17 72 8 158 16 191 19 118 9
282 26 393 40 76 9 212 14 415 14 231 0 349 5 497 20 132 14 266 20 417 20
230 0 285 8 299 43 3 8 18 17 33 20 36 8 60 44 174 267 51 102 114 217 139
255 25 39 76 131 113 205 105 211 151 293 258 460 220 343 309 458 546 707
218 229 359 359 534 491 76 57 145 115 154 128 10 16 23 24 34 21 10 -3 26 1
35 8 24 17 33 163 32 490 0 277 -4 300 -50 322 -41 20 -270 34 -351 22 -74
-12 -236 -8 -437 11 -153 13 -308 10 -445 -11z m-675 -182 c245 -7 488 -10
540 -6 52 3 158 2 235 -3 86 -5 183 -5 250 2 61 5 256 11 435 12 l325 3 6 -55
c3 -30 2 -95 -3 -145 -10 -91 2 -192 37 -315 30 -103 31 -100 -17 -100 -58 0
-159 -52 -321 -164 -142 -99 -190 -144 -392 -364 -77 -84 -184 -201 -238 -260
-89 -97 -296 -358 -374 -472 -73 -108 -217 -372 -316 -581 -59 -124 -107 -229
-107 -233 0 -5 -33 -86 -74 -180 -41 -94 -77 -189 -81 -209 -6 -30 -11 -37
-24 -32 -35 14 -131 17 -236 6 -171 -18 -350 -31 -595 -41 -304 -13 -521 -27
-605 -39 -38 -6 -212 -11 -385 -11 -245 0 -327 -3 -370 -15 -30 -8 -60 -15
-66 -15 -7 0 -14 40 -18 113 -4 61 -13 175 -21 252 -8 77 -17 210 -21 295 -10
202 -6 1267 5 1435 5 72 7 204 5 295 -2 91 -5 315 -8 498 l-3 332 56 1 c143 2
325 10 330 14 9 10 1602 -5 2051 -18z"/>
<path d="M16230 20083 c-8 -3 -20 -10 -26 -15 -7 -5 -52 -10 -100 -11 -65 -3
-102 -9 -138 -25 -99 -45 -229 -50 -711 -32 -143 5 -431 12 -640 15 -209 2
-461 8 -560 13 -99 5 -205 9 -235 8 -30 0 -127 4 -215 8 -193 10 -259 0 -305
-45 -39 -39 -41 -94 -7 -136 13 -15 31 -58 40 -94 9 -37 52 -176 96 -310 95
-292 109 -361 121 -589 32 -647 15 -1542 -35 -1843 -9 -48 -22 -136 -30 -194
-8 -59 -33 -199 -54 -312 -72 -372 -91 -479 -107 -603 -15 -119 -67 -406 -100
-549 -9 -39 -13 -85 -10 -103 8 -41 95 -126 130 -126 17 0 75 51 217 193 144
144 225 215 315 280 146 103 280 176 391 211 88 28 273 106 388 164 87 43 189
67 325 77 117 8 128 8 186 -1 37 -5 43 -3 66 25 l26 30 -4 433 c-2 272 1 468
8 528 11 98 0 250 -38 520 -8 58 -18 179 -23 270 -5 91 -15 187 -21 213 -7 26
-11 50 -8 52 8 8 304 -97 393 -140 50 -24 101 -46 115 -50 14 -4 64 -25 113
-46 48 -21 94 -39 103 -39 16 0 45 -11 142 -56 63 -30 140 -41 170 -25 32 17
36 82 18 279 -23 257 -21 344 10 461 l27 96 -6 290 c-5 225 -3 312 8 390 10
73 13 149 9 280 -4 118 -2 206 5 255 7 41 15 107 18 146 5 64 3 74 -16 93 -22
22 -26 23 -51 14z m-76 -229 c3 -8 11 -115 17 -236 12 -238 6 -338 -31 -557
-14 -78 -20 -160 -20 -261 0 -90 -6 -179 -15 -227 -18 -92 -21 -476 -5 -587 6
-38 8 -71 6 -73 -10 -10 -238 74 -311 114 -44 25 -159 76 -255 115 -230 92
-230 92 -336 123 -89 27 -92 27 -128 10 -78 -37 -93 -94 -56 -212 26 -84 44
-260 36 -363 -3 -47 -2 -210 4 -363 8 -260 8 -284 -11 -370 -29 -136 -35 -318
-15 -450 9 -59 16 -135 16 -168 0 -58 -1 -61 -22 -56 -125 31 -149 31 -263 -2
-181 -51 -533 -191 -693 -276 -157 -84 -315 -202 -479 -359 -51 -48 -93 -82
-93 -73 0 8 7 34 15 58 66 186 126 434 190 794 15 83 47 227 70 320 53 208
121 564 135 704 25 259 -9 1268 -50 1486 -11 55 -24 143 -30 195 -16 146 -28
202 -67 313 -49 142 -79 213 -121 280 -19 31 -32 60 -29 64 7 6 274 -11 417
-27 56 -7 231 -7 510 0 234 6 605 15 825 20 307 7 412 13 451 25 28 8 93 19
145 25 52 5 108 14 124 19 45 14 62 13 69 -5z"/>
<path d="M19692 18052 c-15 -16 -38 -48 -52 -72 -14 -24 -39 -60 -55 -79 -17
-20 -53 -73 -80 -118 -70 -118 -197 -229 -330 -288 -29 -12 -76 -39 -105 -59
-29 -20 -85 -45 -124 -56 -39 -12 -96 -28 -126 -36 -30 -9 -86 -28 -125 -44
-38 -15 -92 -30 -120 -34 -27 -4 -111 -19 -185 -32 -164 -30 -363 -43 -657
-44 -450 0 -783 64 -1508 292 -141 44 -267 96 -319 132 -18 12 -71 32 -117 45
-90 25 -244 86 -270 108 -22 19 -66 16 -88 -6 -17 -17 -18 -40 -15 -427 2
-398 12 -832 21 -984 2 -41 5 -93 6 -115 5 -80 20 -156 33 -170 8 -7 40 -16
71 -20 32 -3 94 -12 139 -20 66 -11 116 -12 275 -3 107 6 266 9 354 7 485 -11
513 -6 1100 218 143 55 349 142 425 181 120 62 350 188 445 245 168 100 483
253 646 312 140 51 169 58 314 75 174 20 380 20 430 1 49 -20 103 -16 130 9
28 26 37 82 19 130 -8 24 -14 141 -19 375 -8 398 -8 359 1 412 14 86 -56 126
-114 65z m19 -630 c4 -179 3 -189 -17 -215 -33 -41 -67 -50 -145 -37 -49 8
-78 9 -106 1 -21 -6 -108 -20 -193 -31 -247 -33 -394 -82 -680 -227 -91 -47
-208 -102 -260 -123 -52 -21 -138 -59 -190 -83 -52 -25 -171 -75 -265 -111
-93 -37 -228 -93 -300 -126 -279 -125 -550 -219 -790 -274 -80 -18 -153 -26
-268 -30 -87 -4 -192 -11 -234 -17 -100 -14 -458 -16 -548 -4 -38 6 -98 8
-133 5 -53 -4 -61 -3 -56 10 7 16 13 60 40 270 21 164 29 612 15 767 -19 200
-32 385 -28 389 2 2 65 -25 139 -60 74 -35 150 -67 169 -71 19 -4 99 -37 179
-73 174 -78 271 -118 447 -183 120 -44 148 -51 285 -65 84 -8 171 -20 193 -26
22 -5 112 -18 200 -28 88 -10 196 -26 240 -34 134 -25 484 -38 698 -26 208 11
243 17 367 59 47 16 130 39 185 52 55 12 123 30 150 40 28 10 82 25 121 33
111 23 184 55 233 101 54 50 162 132 235 179 116 74 208 183 273 320 l18 38
11 -116 c7 -64 13 -201 15 -304z"/>
<path d="M13166 17488 c-9 -12 -16 -28 -16 -34 0 -7 -6 -14 -14 -17 -17 -7
-111 -80 -219 -170 -119 -100 -273 -199 -422 -272 -135 -66 -190 -87 -460
-176 l-160 -53 -150 3 c-102 1 -180 8 -245 21 -401 83 -464 92 -590 88 l-115
-5 -214 -101 c-282 -134 -499 -261 -622 -364 -25 -21 -53 -38 -62 -38 -9 0
-24 -11 -33 -25 -13 -20 -14 -34 -5 -94 6 -38 8 -82 5 -99 -7 -34 12 -396 27
-497 5 -38 14 -148 19 -244 11 -190 25 -294 70 -531 16 -85 37 -204 45 -265 9
-60 28 -162 44 -225 16 -63 32 -146 35 -185 5 -61 30 -163 57 -232 12 -32 58
-47 189 -64 229 -28 1973 -13 2345 21 61 6 212 11 336 13 l226 2 -4 -60 c-2
-33 -6 -141 -9 -240 -3 -124 -11 -209 -24 -272 -11 -51 -29 -135 -40 -185 -30
-142 -51 -400 -40 -478 5 -36 10 -67 10 -70 0 -3 14 -6 32 -7 51 -4 55 1 198
272 23 44 70 123 105 175 60 92 186 316 275 490 42 83 287 514 337 593 28 45
73 142 108 232 12 33 39 94 59 136 40 84 42 92 24 111 -7 8 -18 22 -24 33 -6
10 -31 24 -55 30 -24 7 -66 22 -94 34 -106 47 -209 60 -509 67 -243 5 -287 8
-332 25 -79 30 -130 72 -160 131 -14 29 -33 61 -41 70 -12 14 -14 62 -11 310
4 274 6 300 30 403 49 204 80 388 89 524 10 145 34 337 49 386 14 44 30 164
40 295 5 63 18 144 29 180 12 36 21 93 21 128 0 81 -26 194 -51 227 -25 31
-63 33 -83 3z m-61 -363 c-8 -77 -30 -235 -49 -352 -20 -117 -36 -225 -36
-240 0 -15 -12 -84 -26 -153 -13 -69 -38 -240 -54 -380 -39 -334 -55 -466 -71
-573 -15 -102 -4 -190 36 -292 14 -34 25 -74 25 -88 0 -40 86 -192 128 -227
20 -16 52 -33 72 -36 19 -3 55 -12 80 -19 47 -15 241 -39 440 -55 196 -16 540
-74 540 -92 0 -42 -154 -350 -228 -458 -54 -78 -73 -116 -108 -221 -42 -126
-83 -204 -150 -284 -89 -106 -109 -134 -136 -192 -41 -92 -198 -383 -224 -418
-28 -38 -86 -141 -124 -221 -30 -62 -69 -109 -57 -69 12 45 18 82 37 227 12
84 27 185 34 223 8 39 17 104 21 145 11 129 18 164 95 495 17 73 19 96 9 123
-13 38 -46 50 -89 32 -16 -7 -37 -10 -45 -6 -9 3 -87 10 -173 16 -86 6 -209
17 -272 25 -97 13 -235 15 -880 11 -421 -3 -922 -4 -1115 -3 -351 2 -464 1
-520 -5 -27 -3 -30 0 -38 42 -4 25 -17 81 -28 124 -29 115 -66 305 -83 431 -8
61 -24 166 -35 235 -11 69 -27 188 -36 265 -8 77 -26 239 -40 360 -13 121 -27
254 -30 295 -4 41 -13 109 -20 150 -7 41 -16 141 -20 222 l-6 147 48 24 c26
14 99 61 162 104 68 48 149 95 205 118 50 21 155 66 234 101 254 113 290 116
502 38 69 -25 150 -54 180 -65 79 -28 222 -44 400 -44 152 0 158 1 300 42 389
113 567 185 707 286 39 29 133 97 210 152 76 55 161 123 188 151 28 29 51 51
52 51 1 -1 -5 -65 -12 -142z"/>
<path d="M19220 16761 c-50 -16 -147 -70 -205 -115 -114 -88 -260 -180 -365
-227 -58 -26 -163 -80 -235 -120 -438 -243 -654 -332 -1065 -435 -423 -106
-601 -137 -785 -137 -326 1 -775 30 -1119 73 -171 21 -353 24 -469 7 -62 -9
-187 -26 -279 -37 -134 -17 -188 -28 -280 -61 -230 -81 -267 -99 -394 -193
-67 -50 -143 -107 -170 -126 -82 -59 -159 -192 -171 -296 -4 -36 -1 -46 25
-75 30 -33 31 -34 104 -31 196 9 401 -5 478 -33 55 -19 212 -134 363 -265 5
-4 -5 -27 -22 -50 -17 -24 -31 -49 -31 -55 0 -7 -16 -36 -35 -64 -43 -62 -202
-371 -275 -534 -29 -65 -93 -180 -142 -254 -49 -75 -123 -202 -163 -283 -40
-80 -88 -170 -106 -200 -18 -30 -71 -122 -119 -205 -256 -443 -308 -530 -419
-707 -67 -106 -159 -246 -204 -311 -71 -102 -82 -124 -82 -160 0 -33 8 -51 35
-86 63 -78 50 -76 455 -77 206 0 411 -6 480 -13 77 -7 250 -11 480 -9 465 3
709 0 1085 -12 342 -12 467 -21 684 -52 131 -18 176 -20 365 -14 302 9 312 10
347 29 43 23 74 88 74 158 0 89 -26 189 -155 614 -202 664 -352 1231 -415
1570 -10 55 -33 149 -50 208 -18 59 -30 110 -28 112 2 2 28 -2 58 -10 30 -8
82 -17 115 -21 33 -3 101 -13 150 -21 58 -10 145 -15 248 -14 151 2 164 3 304
42 81 22 154 44 163 49 9 5 84 27 168 49 173 46 357 116 452 170 36 21 103 57
150 81 110 55 160 88 355 228 202 145 245 181 281 234 16 23 56 78 89 123 33
44 75 109 94 145 19 36 54 93 78 127 56 79 105 185 142 309 16 54 55 173 86
264 l58 165 9 170 c4 93 11 189 14 211 16 115 -91 200 -206 165z m-63 -463
c-6 -83 -43 -235 -111 -467 -41 -137 -51 -159 -109 -245 -21 -32 -58 -99 -82
-148 -58 -122 -133 -226 -237 -330 -152 -150 -366 -291 -583 -383 -465 -196
-526 -215 -764 -240 -128 -13 -183 -14 -320 -5 -331 21 -446 41 -582 98 -52
22 -113 43 -135 47 -54 8 -107 -14 -134 -57 -27 -42 -23 -127 13 -248 13 -47
37 -152 52 -234 20 -109 52 -226 117 -425 50 -154 113 -376 143 -501 29 -124
72 -292 94 -375 23 -82 62 -242 86 -355 25 -113 65 -290 90 -395 25 -104 45
-193 45 -197 0 -12 -267 -10 -416 3 -71 5 -318 12 -549 14 -231 1 -548 10
-705 20 -157 9 -427 16 -600 16 -173 0 -367 4 -430 10 -63 5 -236 14 -384 19
-148 6 -271 12 -274 15 -5 4 68 128 175 295 83 131 255 452 355 665 26 55 73
143 104 195 31 52 87 154 124 225 38 74 105 182 155 250 93 125 251 378 312
499 37 73 114 293 133 381 25 114 54 189 85 224 61 68 71 118 35 176 -41 66
-248 226 -355 275 -94 42 -281 90 -382 97 -46 3 -83 8 -83 10 0 2 11 20 24 39
31 45 79 78 142 97 55 16 129 47 254 105 97 45 290 92 377 92 153 0 599 -43
684 -66 117 -31 400 -84 504 -93 61 -6 247 -13 415 -17 l305 -7 170 32 c94 18
217 44 275 57 58 14 150 34 205 44 278 52 421 91 610 166 217 86 342 150 468
238 139 97 244 162 358 221 126 65 209 125 267 194 24 28 48 51 54 51 8 0 9
-26 5 -82z"/>
<path d="M2630 16313 c-30 -2 -111 -10 -180 -18 -125 -15 -510 -44 -860 -65
-269 -16 -423 -29 -530 -45 -52 -8 -148 -20 -214 -26 -72 -8 -132 -20 -154
-30 -26 -14 -40 -16 -54 -8 -27 14 -36 5 -54 -59 -14 -48 -16 -82 -9 -227 4
-93 7 -424 6 -735 -1 -350 2 -594 8 -640 6 -41 16 -124 22 -185 26 -265 27
-308 12 -425 -21 -158 -21 -311 -1 -342 9 -13 241 -250 517 -525 276 -276 501
-506 501 -512 0 -25 88 -116 157 -162 43 -29 95 -67 116 -85 35 -29 45 -32
135 -39 205 -14 474 -14 569 1 51 7 112 14 136 14 49 0 67 13 67 49 0 18 -22
47 -77 101 -149 146 -230 235 -248 269 -10 20 -19 65 -21 110 -5 83 -16 127
-45 176 -11 18 -32 70 -48 117 -37 109 -41 117 -121 218 -37 47 -75 100 -85
119 -9 19 -36 55 -59 80 -23 25 -65 75 -93 111 -28 36 -63 76 -77 89 -42 40
-30 94 24 104 16 4 51 26 76 49 l47 43 161 6 c143 5 170 9 241 34 80 28 81 28
350 30 293 2 657 20 745 36 30 6 154 12 275 14 241 5 265 8 289 34 34 38 -8
113 -200 351 -51 63 -141 187 -200 275 -176 263 -221 327 -270 390 -58 74
-144 252 -174 360 -12 44 -46 136 -75 205 -30 69 -69 168 -88 220 -19 52 -53
138 -75 190 -49 115 -85 237 -78 257 9 21 -10 51 -44 68 -28 15 -156 18 -320
8z m283 -234 c31 -182 85 -366 153 -528 37 -86 89 -210 116 -276 27 -66 71
-160 97 -210 27 -49 65 -128 86 -175 47 -105 101 -191 216 -340 165 -214 370
-492 366 -496 -7 -7 -251 -34 -313 -34 -33 0 -132 -9 -220 -20 -130 -16 -245
-20 -629 -24 l-470 -5 -115 -35 c-83 -26 -134 -36 -182 -36 -57 0 -71 -4 -97
-25 -16 -14 -33 -36 -37 -48 -4 -12 -15 -27 -24 -34 -22 -16 -50 -74 -50 -105
0 -65 100 -204 272 -379 58 -60 77 -90 146 -231 77 -157 81 -169 107 -312 15
-83 36 -169 47 -193 28 -59 79 -115 192 -208 54 -44 92 -81 86 -83 -6 -2 -55
1 -111 7 -129 14 -374 14 -436 0 -31 -7 -64 -8 -92 -2 -41 8 -53 18 -144 126
-55 65 -132 143 -171 174 -80 63 -315 298 -704 704 l-264 274 -4 560 c-2 308
-8 610 -13 670 -6 61 -15 155 -20 210 -13 124 -13 535 -2 670 5 55 6 154 2
220 -4 66 -7 121 -6 123 1 1 51 -4 111 -12 183 -23 806 10 1009 54 22 4 83 13
135 20 52 6 118 15 146 21 28 5 145 14 260 19 139 6 241 15 304 28 108 23 210
40 225 37 6 -1 18 -48 28 -106z"/>
<path d="M9443 15863 c-37 -42 -86 -95 -109 -117 -22 -23 -88 -97 -145 -166
-205 -245 -343 -445 -341 -495 0 -16 0 -39 0 -50 -1 -11 -2 -103 -2 -205 -1
-145 3 -199 16 -250 26 -100 38 -166 47 -277 9 -96 28 -216 72 -436 10 -54 19
-109 19 -122 0 -14 11 -67 24 -118 14 -50 32 -135 40 -187 16 -98 33 -174 46
-200 14 -29 73 -39 230 -40 163 -1 199 -6 452 -64 166 -37 324 -61 473 -71 50
-4 144 -19 210 -35 66 -16 140 -31 165 -35 96 -13 98 -14 103 -48 4 -18 15
-205 27 -416 11 -211 23 -388 27 -394 6 -10 19 -319 31 -732 6 -216 9 -255 25
-278 9 -15 23 -27 30 -27 7 0 18 -9 25 -20 7 -12 21 -24 30 -28 10 -4 69 -43
131 -87 115 -80 170 -121 380 -282 136 -104 670 -618 742 -715 28 -37 76 -91
107 -119 31 -29 61 -66 67 -83 20 -61 88 -65 149 -8 37 35 135 101 194 131 23
12 77 44 120 72 127 84 464 243 646 305 102 35 106 40 106 147 0 98 46 480 61
508 8 16 27 160 45 344 l6 60 -42 34 c-55 44 -92 51 -247 49 -116 -1 -199 8
-304 33 -47 12 -115 80 -144 144 -13 28 -30 57 -39 64 -12 10 -15 23 -11 43 4
15 -3 99 -16 185 -22 157 -22 160 -8 553 18 514 16 682 -12 775 -33 109 -52
139 -124 190 -35 26 -69 44 -74 40 -6 -3 -23 1 -38 9 -23 11 -101 16 -373 20
-667 13 -1076 26 -1215 41 -77 8 -194 20 -260 26 -146 13 -287 33 -420 59 -55
11 -149 27 -210 35 -191 27 -188 26 -197 60 -4 17 -13 62 -18 100 -6 39 -26
126 -45 195 -42 153 -141 642 -155 765 -5 50 -18 153 -29 230 -11 77 -25 217
-31 310 -7 94 -20 222 -31 287 -10 64 -19 141 -19 172 0 75 -18 154 -41 177
-39 39 -72 26 -146 -58z m100 -287 c7 -164 28 -368 53 -516 8 -47 22 -139 30
-205 24 -193 57 -384 114 -656 11 -53 25 -143 30 -200 5 -57 14 -120 20 -139
5 -19 17 -73 25 -120 14 -82 35 -125 66 -141 26 -13 153 -38 224 -44 39 -3 98
-12 132 -20 173 -40 364 -64 563 -70 113 -3 252 -13 310 -21 147 -22 894 -34
1232 -21 242 10 259 10 298 -8 79 -36 130 -147 130 -284 0 -42 -7 -197 -16
-346 -15 -238 -15 -307 -4 -585 7 -173 14 -353 15 -400 1 -57 7 -96 18 -117
13 -25 14 -37 6 -62 -9 -25 -7 -39 14 -84 20 -45 34 -60 83 -89 60 -36 87 -44
229 -72 218 -43 316 -57 402 -59 51 -1 93 -2 93 -3 0 0 -4 -25 -10 -55 -22
-125 -32 -248 -35 -484 -3 -137 -9 -273 -15 -302 -11 -49 -14 -53 -40 -53 -15
0 -56 -13 -91 -29 -35 -16 -122 -50 -192 -76 -70 -27 -158 -68 -195 -92 -80
-53 -209 -129 -351 -207 -57 -32 -135 -80 -174 -107 -39 -27 -73 -49 -78 -49
-4 0 -29 33 -55 73 -71 106 -185 228 -293 317 -53 42 -105 87 -116 100 -11 12
-47 41 -80 63 -33 22 -86 65 -118 94 -32 29 -80 64 -105 78 -64 33 -118 71
-193 133 -217 180 -299 242 -479 361 l-65 43 -1 77 c-1 42 -6 144 -12 226 -6
83 -11 236 -11 340 -1 165 -19 617 -36 902 -3 50 -13 138 -22 195 -8 57 -19
121 -22 143 -8 52 -31 63 -236 110 -88 21 -182 45 -210 55 -80 30 -120 38
-331 70 -111 17 -261 33 -339 36 -101 4 -168 12 -243 30 -59 15 -136 26 -182
27 l-80 2 -6 35 c-3 19 -12 70 -20 114 -8 43 -14 113 -14 155 0 42 -9 112 -19
156 -27 111 -51 272 -51 336 0 30 -7 86 -16 124 -31 144 -35 174 -44 320 -7
118 -17 180 -44 288 -20 76 -40 145 -45 155 -7 13 6 40 61 122 103 153 332
444 391 498 28 26 69 66 91 90 51 54 51 54 59 -152z"/>
<path d="M19698 15811 c-64 -13 -85 -36 -144 -154 -31 -61 -63 -120 -72 -130
-8 -9 -27 -37 -41 -62 -14 -24 -64 -85 -109 -135 -46 -50 -108 -131 -137 -180
-96 -159 -276 -366 -445 -510 -35 -30 -126 -111 -201 -180 -122 -110 -151
-132 -251 -181 -62 -32 -135 -65 -162 -74 -26 -10 -73 -37 -102 -61 -57 -47
-87 -59 -224 -94 -185 -48 -544 -71 -740 -49 -164 19 -238 17 -282 -5 -104
-51 -114 -105 -44 -230 60 -103 98 -216 165 -481 17 -66 55 -194 86 -285 30
-91 71 -230 90 -310 99 -409 221 -823 293 -991 47 -108 149 -140 446 -139 83
1 198 -4 256 -9 58 -6 249 -15 425 -20 176 -6 363 -15 415 -21 129 -14 565
-14 687 0 209 24 250 43 273 131 13 48 11 68 -39 394 -38 250 -51 611 -27 780
29 205 42 1415 22 2040 -3 83 -1 182 4 220 5 39 15 177 21 309 14 280 6 355
-41 406 -29 31 -49 35 -122 21z m-17 -671 c15 -162 14 -885 -2 -1000 -6 -41
-22 -118 -35 -170 -21 -80 -25 -119 -25 -245 -1 -82 4 -190 11 -240 6 -49 13
-229 15 -400 2 -170 7 -335 10 -366 4 -32 -1 -107 -11 -180 -14 -103 -16 -178
-12 -442 l5 -317 -25 -7 c-26 -6 -639 9 -1077 27 -224 10 -338 17 -640 40 -66
5 -170 10 -231 10 l-111 0 -22 78 c-12 42 -46 154 -76 247 -30 94 -66 220 -80
280 -32 137 -164 555 -256 814 -57 158 -179 518 -179 526 0 5 209 15 335 16
206 1 381 41 572 130 45 21 134 57 197 80 96 35 126 51 178 96 38 33 101 73
158 100 71 34 113 62 165 112 39 36 124 114 190 173 66 59 179 172 250 250 72
78 191 203 266 277 76 75 145 152 154 171 19 37 160 247 217 322 l33 44 6
-146 c4 -80 12 -206 20 -280z"/>
<path d="M8463 14650 c-54 -26 -71 -42 -145 -137 -110 -142 -114 -147 -190
-293 -37 -69 -91 -163 -123 -209 -31 -46 -68 -107 -82 -135 -14 -28 -58 -99
-98 -157 -76 -109 -225 -395 -243 -464 -6 -22 -16 -67 -22 -100 -16 -81 -85
-257 -114 -288 -22 -24 -22 -29 -21 -198 2 -158 5 -181 28 -251 35 -104 43
-117 82 -134 29 -12 42 -11 107 6 105 27 251 30 361 6 106 -23 112 -30 133
-148 8 -46 21 -112 28 -148 43 -193 59 -390 46 -580 -11 -184 19 -584 55 -730
19 -77 35 -179 44 -283 7 -81 11 -91 40 -120 30 -31 34 -32 104 -29 39 2 104
9 142 17 39 8 120 16 181 18 62 3 117 7 123 11 6 4 11 16 11 27 0 22 -75 129
-90 129 -23 0 -60 131 -60 211 0 23 6 64 14 92 8 29 20 79 27 112 18 85 41
127 90 161 l42 29 246 7 c135 4 282 11 326 16 44 5 242 6 445 2 205 -4 375 -4
388 1 13 5 56 9 95 9 40 0 83 6 97 13 34 17 46 57 33 104 -20 67 -33 192 -43
403 -5 113 -14 232 -20 265 -6 33 -15 105 -20 160 -6 55 -14 136 -20 180 -35
287 -41 363 -35 434 6 66 4 80 -12 100 -23 28 -151 67 -379 116 -88 19 -172
39 -187 44 -69 26 -244 62 -352 71 -66 6 -151 15 -190 20 -38 6 -130 14 -203
19 -120 9 -134 12 -153 33 -30 36 -55 88 -67 143 -7 28 -25 109 -41 180 -100
446 -142 677 -176 970 -19 166 -47 273 -81 303 -33 29 -46 28 -121 -8z m56
-146 c7 -25 18 -112 26 -193 16 -163 25 -229 97 -668 62 -384 109 -554 174
-640 31 -41 62 -57 144 -73 36 -7 117 -25 180 -41 63 -15 152 -33 197 -39 45
-6 135 -26 200 -44 65 -18 163 -41 218 -51 100 -18 348 -79 460 -113 59 -18
60 -19 63 -57 2 -21 -4 -101 -13 -178 -23 -203 -21 -472 5 -617 11 -63 27
-171 35 -240 9 -69 25 -162 36 -208 11 -46 19 -85 17 -87 -1 -2 -106 -8 -233
-15 -126 -6 -266 -15 -310 -20 -125 -14 -623 -50 -694 -50 -104 0 -310 -77
-365 -137 -50 -54 -97 -236 -100 -386 l-1 -104 42 -46 c32 -34 93 -135 93
-152 0 -1 -26 2 -57 7 -32 5 -116 15 -188 21 l-130 12 -17 90 c-9 50 -17 134
-18 187 0 59 -9 144 -24 220 -17 90 -25 173 -30 313 -9 291 -40 585 -80 755
-18 80 -39 177 -46 217 -15 91 -39 117 -118 133 -53 10 -190 46 -272 71 -19 5
-71 15 -115 22 l-80 12 -11 95 c-7 52 -19 114 -28 138 -23 64 -31 162 -16 208
7 21 52 120 101 219 48 99 102 216 120 260 52 128 255 530 301 598 23 34 67
94 96 132 30 39 79 121 109 182 63 133 181 313 204 313 11 0 20 -15 28 -46z"/>
<path d="M4300 13774 c-36 -7 -90 -13 -120 -14 -30 0 -91 -4 -135 -10 -277
-34 -554 -53 -1045 -71 -811 -29 -819 -29 -846 -96 -22 -52 -10 -81 59 -143
120 -107 177 -173 213 -248 19 -40 55 -105 80 -143 56 -88 81 -150 94 -236 21
-139 44 -192 117 -278 37 -44 93 -105 123 -135 30 -31 71 -74 90 -95 20 -22
55 -55 78 -74 51 -40 72 -77 72 -128 0 -21 4 -52 9 -69 l9 -32 -122 -6 c-66
-4 -173 -2 -236 3 -158 15 -278 13 -390 -4 -52 -8 -138 -19 -190 -25 -52 -5
-119 -16 -149 -24 l-54 -14 -72 59 c-40 32 -80 71 -90 86 -22 33 -225 233
-507 500 -337 318 -395 370 -478 420 -43 26 -84 58 -91 69 -15 29 -54 46 -87
38 -56 -12 -63 -16 -77 -45 -13 -25 -14 -53 -6 -194 6 -91 13 -171 17 -176 3
-6 6 -75 5 -153 -1 -193 10 -223 122 -331 46 -44 118 -122 162 -172 84 -99
181 -190 230 -216 17 -8 71 -57 120 -107 50 -51 113 -109 141 -130 29 -22 103
-89 165 -150 63 -62 150 -147 194 -191 130 -127 166 -134 555 -115 157 8 339
12 405 9 111 -5 240 10 370 43 11 3 70 9 130 14 191 16 396 40 414 49 17 10
83 127 96 171 4 14 22 59 40 100 32 73 33 79 40 260 7 214 1 261 -65 465 -27
84 -53 142 -71 165 -16 19 -47 71 -70 114 -38 74 -40 83 -34 135 8 68 37 147
53 144 7 -2 49 4 94 12 46 9 106 20 133 25 28 5 100 14 160 20 61 6 137 15
171 21 88 13 161 11 255 -8 88 -17 255 -21 674 -15 116 1 233 -2 260 -7 56
-10 193 -12 695 -8 312 2 349 4 373 20 15 10 27 27 27 38 0 23 -62 104 -88
114 -9 3 -73 13 -142 21 -217 25 -351 59 -636 159 -409 143 -694 292 -950 495
-142 113 -166 120 -294 94z m183 -229 c38 -42 99 -97 136 -123 36 -25 86 -62
110 -80 63 -47 243 -136 369 -181 59 -22 174 -68 256 -105 150 -65 299 -108
429 -121 31 -4 55 -10 53 -14 -7 -11 -750 -6 -966 7 -239 15 -453 15 -521 1
-30 -6 -173 -12 -319 -13 -261 -2 -267 -3 -364 -32 -119 -35 -135 -52 -167
-174 -34 -133 -24 -200 65 -410 20 -46 36 -94 36 -106 0 -12 9 -43 19 -70 56
-145 54 -263 -9 -476 -50 -173 -88 -272 -114 -306 -11 -13 -19 -38 -19 -54 l0
-29 -396 2 c-368 2 -991 -13 -1106 -26 l-50 -6 -145 140 c-80 78 -210 206
-290 286 -80 79 -169 162 -197 185 -29 22 -90 79 -135 126 -46 48 -149 141
-229 208 -80 66 -162 135 -182 151 l-36 30 -10 305 c-6 168 -7 308 -3 311 4 4
223 -206 487 -467 429 -424 486 -478 544 -505 45 -21 82 -49 123 -94 38 -41
70 -65 91 -70 53 -13 525 -11 602 2 126 22 258 35 419 43 201 10 209 14 213
115 2 56 -3 80 -23 129 -64 150 -97 207 -150 263 -67 70 -162 206 -170 242 -3
14 -16 64 -29 111 -13 47 -33 121 -45 165 -59 224 -180 403 -345 510 -80 52
-149 115 -127 115 7 0 56 -7 110 -16 64 -11 164 -17 292 -18 170 -1 217 3 365
27 179 30 440 46 760 47 88 0 192 5 230 11 62 9 298 35 349 38 12 1 46 -27 89
-74z"/>
<path d="M4415 12575 c-31 -10 -100 -17 -182 -18 -87 -2 -137 -7 -145 -15 -7
-7 -21 -12 -33 -12 -37 0 -65 -28 -65 -66 0 -36 17 -58 73 -97 14 -9 52 -63
84 -120 l58 -102 5 -135 c3 -82 1 -156 -6 -190 -16 -74 -57 -174 -89 -213 -14
-18 -55 -77 -90 -132 -36 -55 -78 -115 -95 -132 -51 -55 -34 -131 33 -148 13
-4 59 -2 101 4 43 6 114 11 159 11 45 0 127 7 182 16 55 8 163 19 240 24 85 6
209 23 316 45 99 19 207 35 245 35 38 0 204 10 369 22 201 16 361 22 486 20
142 -3 201 0 253 13 48 11 72 12 81 5 7 -6 16 -43 19 -83 4 -39 11 -88 16
-107 9 -33 17 -226 25 -605 4 -194 17 -340 45 -505 29 -166 40 -415 33 -704
-7 -292 3 -408 49 -560 28 -92 31 -115 34 -268 1 -92 7 -175 13 -186 9 -17 24
-19 153 -22 196 -5 296 -2 408 10 52 6 289 15 525 21 237 5 475 13 530 17 55
4 171 3 258 -2 175 -9 213 -5 251 25 32 25 33 50 7 144 -44 159 -47 258 -14
410 17 79 30 108 80 181 36 53 41 91 13 104 -50 25 -110 29 -201 14 -52 -8
-175 -26 -274 -39 -113 -15 -226 -37 -303 -59 -68 -20 -145 -36 -172 -36 -62
0 -184 24 -285 57 -127 41 -127 40 -160 124 -26 65 -44 103 -94 189 -21 36
-51 204 -56 315 -3 66 -10 167 -15 225 -6 58 -13 233 -15 390 -3 157 -10 312
-16 345 -19 111 -54 1043 -50 1340 2 133 -1 220 -8 238 -9 23 -8 31 4 43 8 9
15 23 15 32 0 30 -37 115 -56 129 -24 17 -95 16 -234 -3 -94 -13 -150 -15
-305 -8 -104 5 -415 7 -690 5 -275 -1 -594 2 -710 8 -115 6 -331 13 -480 16
-223 4 -279 2 -320 -10z m2200 -100 c110 -2 218 -9 240 -14 22 -6 79 -11 127
-12 54 -1 94 -6 105 -14 17 -12 16 -15 -10 -39 -15 -14 -28 -35 -28 -48 -5
-81 4 -474 11 -528 5 -36 10 -121 10 -190 0 -69 7 -197 15 -285 8 -88 15 -230
15 -315 0 -85 4 -193 10 -240 5 -47 14 -173 20 -280 6 -107 15 -235 21 -285 5
-49 11 -133 13 -185 2 -52 8 -120 14 -150 6 -30 21 -109 32 -175 12 -66 26
-138 32 -160 5 -22 13 -64 18 -94 18 -113 185 -293 350 -376 64 -33 85 -38
145 -39 39 -1 113 7 165 17 52 10 170 24 262 32 102 8 197 22 245 36 69 19
288 42 280 29 -31 -51 -82 -181 -94 -235 -20 -92 -10 -249 23 -356 4 -13 -7
-17 -63 -22 -38 -3 -88 -1 -113 3 -25 5 -98 15 -162 21 -100 10 -128 10 -195
-4 -43 -8 -134 -21 -203 -27 -69 -6 -192 -21 -275 -31 -93 -13 -258 -24 -435
-29 -157 -5 -320 -14 -363 -21 -43 -6 -79 -10 -81 -8 -10 10 -48 411 -61 634
-4 55 -12 159 -20 230 -8 72 -17 193 -20 270 -16 340 -54 752 -89 970 -31 188
-38 329 -31 586 3 140 9 268 12 285 8 50 -20 92 -80 118 -60 27 -230 40 -312
26 -27 -5 -113 -14 -190 -19 -77 -6 -183 -17 -235 -25 -52 -8 -156 -20 -230
-26 -74 -5 -189 -15 -255 -20 -66 -6 -203 -15 -305 -21 -180 -10 -295 -26
-353 -48 -16 -6 -101 -11 -195 -12 -92 0 -189 -4 -217 -9 -27 -4 -51 -7 -53
-5 -6 5 60 129 92 175 18 25 56 100 84 167 l52 123 0 122 c0 178 -11 229 -61
295 -34 45 -109 167 -109 178 0 1 10 1 23 -1 319 -46 323 -46 457 -40 74 4
198 13 275 21 77 7 282 16 455 19 173 3 342 11 375 17 65 12 464 27 585 22 41
-2 165 -5 275 -8z"/>
<path d="M7810 11960 c-46 -16 -93 -30 -105 -30 -11 0 -38 -9 -60 -19 -30 -13
-45 -15 -57 -7 -13 8 -22 6 -37 -9 -37 -32 -45 -89 -45 -305 -1 -367 13 -1052
24 -1160 5 -58 15 -157 20 -220 15 -162 26 -219 66 -350 74 -238 134 -312 289
-355 47 -14 117 -18 330 -22 260 -5 273 -4 335 17 59 21 112 28 412 60 94 10
99 10 146 -14 85 -43 149 -137 139 -201 -3 -16 -39 -107 -80 -200 -96 -219
-131 -338 -124 -417 6 -65 28 -111 70 -142 27 -20 40 -21 235 -21 114 1 243 6
287 13 100 16 494 20 766 8 l206 -9 56 27 c31 14 62 26 69 26 29 0 117 66 203
154 172 175 328 318 439 401 61 45 143 109 181 142 39 32 106 85 150 118 99
72 192 156 268 241 46 53 57 72 57 100 0 22 -6 37 -15 41 -9 3 -25 23 -35 43
-11 21 -46 59 -78 84 -32 25 -74 67 -93 92 -19 26 -66 74 -105 108 -39 34
-104 91 -145 127 -41 36 -127 105 -191 153 -65 48 -120 92 -123 97 -4 5 -94
74 -201 154 -188 140 -293 205 -332 205 -11 0 -25 7 -32 14 -32 39 -218 44
-590 15 -74 -6 -315 -12 -535 -14 -384 -2 -402 -3 -460 -25 -73 -27 -78 -30
-132 -104 -36 -49 -43 -66 -43 -105 0 -29 7 -57 20 -76 36 -55 39 -60 55 -95
8 -19 46 -76 85 -125 128 -165 152 -225 112 -275 l-20 -25 -284 -8 c-714 -18
-756 -18 -762 1 -18 56 -27 189 -32 437 -2 154 -9 325 -15 380 -28 266 -40
394 -53 560 -8 99 -20 212 -26 250 -7 40 -9 102 -5 147 6 74 5 77 -22 107 -41
45 -81 47 -183 11z m69 -317 c0 -152 26 -492 42 -563 6 -25 14 -162 19 -305
14 -422 34 -684 57 -736 26 -57 72 -106 109 -114 16 -4 47 -15 70 -26 55 -26
278 -28 351 -3 40 14 58 14 115 5 187 -31 480 10 599 85 43 27 95 90 110 133
14 41 9 63 -54 206 -38 87 -63 131 -93 160 -28 28 -47 59 -62 104 -30 89 -29
103 6 94 45 -13 318 -6 447 11 66 8 208 18 315 21 107 3 236 10 285 15 50 5
126 10 170 10 52 0 99 7 135 20 98 35 122 29 198 -44 37 -35 96 -89 132 -120
36 -31 103 -89 150 -129 47 -41 159 -129 249 -197 90 -68 187 -145 215 -170
118 -107 230 -181 325 -215 20 -7 60 -29 88 -48 l53 -35 -58 -49 c-215 -184
-447 -355 -573 -423 -92 -50 -192 -126 -424 -323 -189 -161 -217 -190 -236
-241 l-12 -33 -111 -6 c-61 -3 -187 -1 -281 4 -172 9 -887 8 -915 -1 -13 -4
-15 7 -12 70 2 41 10 102 18 135 8 33 28 130 44 215 39 213 32 250 -80 415
-48 71 -76 97 -140 130 -29 15 -74 20 -263 27 -213 8 -234 8 -310 -11 -110
-27 -432 -46 -545 -32 -142 18 -188 56 -237 200 -46 136 -68 334 -80 731 -6
188 -13 258 -38 410 -16 94 -33 651 -22 711 l7 36 51 -4 c29 -3 70 0 92 5 22
6 52 10 67 11 l27 1 0 -137z"/>
<path d="M704 11635 c-19 -12 -21 -25 -22 -97 -1 -46 4 -141 10 -213 6 -71 12
-332 12 -580 1 -273 6 -487 14 -545 6 -52 14 -246 17 -430 7 -341 15 -457 37
-505 7 -16 31 -35 63 -51 64 -30 131 -31 247 -5 214 48 247 49 474 25 160 -17
252 -15 429 11 61 9 209 22 330 30 316 21 481 33 635 45 74 5 171 10 215 10
44 0 114 6 155 14 41 8 118 18 170 21 l95 7 17 -158 c10 -88 27 -206 38 -263
11 -57 25 -169 30 -248 6 -80 15 -175 21 -211 6 -37 11 -121 11 -187 -1 -83 6
-155 20 -234 29 -152 42 -164 198 -192 41 -7 102 -12 135 -12 33 1 99 2 147 2
62 0 104 7 145 21 32 12 80 25 107 31 81 15 100 43 155 228 33 112 156 430
223 576 64 143 115 266 188 465 168 455 201 531 278 658 64 105 106 206 126
303 24 115 69 246 124 355 89 178 152 352 152 421 0 66 -72 88 -201 62 -30 -6
-189 -12 -354 -13 -165 -2 -356 -8 -425 -15 -283 -26 -493 -43 -627 -51 -78
-5 -195 -14 -260 -20 -65 -6 -183 -15 -263 -20 -80 -5 -190 -14 -245 -20 -55
-6 -165 -15 -245 -20 -80 -5 -181 -16 -225 -25 -253 -47 -412 -66 -665 -80
-47 -3 -133 -16 -193 -29 -152 -35 -227 -43 -227 -24 0 9 -33 44 -72 79 -87
77 -107 96 -322 322 -131 137 -195 195 -285 259 -151 107 -153 109 -223 201
-55 71 -106 117 -133 117 -6 0 -20 -7 -31 -15z m179 -248 c40 -41 89 -96 109
-124 55 -76 260 -241 403 -325 60 -35 122 -84 186 -145 53 -51 101 -93 107
-93 14 0 34 -35 24 -44 -18 -19 39 -26 207 -26 183 0 316 12 571 51 146 22
370 36 700 44 129 3 262 8 295 10 33 3 175 10 315 15 240 9 434 24 665 51 109
12 1081 26 1092 16 1 -2 -28 -64 -66 -138 -45 -87 -87 -189 -119 -290 -28 -85
-66 -184 -85 -220 -20 -35 -49 -104 -66 -154 -17 -49 -58 -144 -90 -210 -51
-103 -191 -465 -191 -494 0 -31 -96 -266 -185 -451 -107 -223 -164 -375 -215
-583 -51 -202 -37 -183 -133 -192 -84 -9 -158 -10 -237 -4 -57 4 -223 -18
-273 -37 -20 -8 -42 -14 -47 -14 -6 0 -10 26 -10 58 1 174 -50 792 -86 1031
-32 220 -38 237 -90 289 l-44 43 -263 -6 c-144 -3 -329 -9 -412 -15 -82 -5
-319 -14 -525 -20 -721 -19 -1112 -42 -1238 -71 -20 -5 -98 -9 -174 -9 l-136
0 -6 83 c-3 45 -10 402 -16 792 -6 391 -15 782 -20 870 -11 183 -27 345 -36
369 -13 35 20 13 89 -57z"/>
<path d="M14224 11369 c-37 -11 -91 -68 -100 -106 -4 -15 -3 -45 3 -67 12 -50
8 -387 -6 -511 -55 -484 -65 -564 -97 -780 -14 -93 -33 -240 -44 -326 -10 -86
-26 -196 -34 -245 -8 -49 -20 -163 -25 -254 -6 -97 -18 -196 -30 -240 -18 -70
-23 -115 -52 -404 -5 -61 -12 -113 -15 -117 -11 -18 -31 -358 -28 -495 2 -169
5 -180 71 -237 36 -33 43 -44 43 -76 0 -25 9 -50 25 -72 13 -19 42 -68 64
-110 21 -42 55 -103 74 -135 49 -80 63 -120 86 -247 11 -60 31 -133 45 -163
49 -107 67 -198 72 -359 2 -82 8 -195 14 -250 17 -165 17 -185 4 -605 l-12
-405 -41 -140 c-53 -184 -119 -357 -226 -590 -48 -104 -102 -228 -121 -275
-18 -47 -39 -94 -45 -104 -57 -97 -83 -165 -90 -241 -5 -59 -3 -87 7 -106 28
-55 24 -54 719 -51 352 2 658 8 680 13 22 5 85 13 140 18 55 5 109 12 120 16
15 4 24 -2 37 -25 32 -56 78 -31 78 43 0 18 -20 112 -44 208 -52 202 -81 360
-96 514 -6 61 -19 189 -30 285 -15 135 -22 299 -30 720 l-10 545 25 120 c14
66 39 185 56 265 50 240 77 403 72 436 -3 21 7 57 36 121 35 76 41 101 41 156
0 36 -5 78 -10 92 -16 41 -127 151 -200 199 -36 23 -91 59 -122 79 -64 42
-386 173 -448 183 -46 7 -48 17 -26 99 7 28 11 76 8 106 -3 37 3 84 17 141 23
90 35 227 51 553 6 117 18 243 30 305 13 72 20 147 20 238 0 73 4 163 10 200
10 68 23 209 40 432 18 225 29 342 49 520 27 230 43 520 35 617 -5 65 -2 95
19 173 14 52 28 127 32 165 6 63 4 73 -16 99 -20 25 -27 28 -66 23 -24 -2 -64
1 -88 8 -24 8 -121 19 -216 25 -95 6 -205 15 -244 20 -87 12 -170 11 -211 -1z
m682 -366 c-2 -78 -9 -151 -19 -188 -9 -33 -21 -114 -26 -180 -6 -66 -20 -163
-30 -215 -37 -182 -51 -318 -51 -503 0 -185 -21 -470 -39 -542 -6 -22 -15 -92
-21 -155 -6 -63 -22 -180 -35 -260 -13 -80 -29 -199 -35 -265 -6 -66 -16 -174
-21 -240 -21 -236 -26 -371 -17 -477 7 -69 6 -123 0 -153 -9 -42 0 -255 13
-311 10 -42 45 -74 103 -90 61 -18 121 -44 301 -131 82 -41 133 -74 185 -120
39 -35 91 -76 116 -90 25 -15 47 -28 49 -29 1 -2 -4 -24 -12 -51 -9 -26 -21
-91 -27 -143 -6 -52 -22 -131 -35 -175 -41 -134 -73 -283 -90 -410 -9 -66 -27
-177 -40 -247 l-24 -127 11 -438 c7 -241 10 -483 7 -538 -6 -146 -4 -259 10
-442 15 -213 21 -242 79 -370 27 -59 59 -142 71 -183 13 -41 33 -93 46 -116
l24 -41 -302 -6 c-222 -4 -352 -2 -492 9 -104 8 -292 21 -418 28 -125 7 -230
16 -233 19 -4 3 21 37 56 74 71 78 115 149 154 248 16 39 41 97 57 131 17 33
37 98 46 145 8 46 28 138 44 204 36 154 55 285 74 515 9 102 23 212 31 245 12
46 16 123 17 335 2 355 -12 497 -74 719 -16 58 -29 121 -29 140 0 143 -56 409
-115 541 -19 41 -39 96 -44 122 -15 65 -49 149 -70 173 -10 11 -26 42 -34 68
-9 27 -32 66 -51 88 -20 21 -38 49 -42 63 -8 34 1 335 15 501 19 219 41 478
51 620 23 301 33 382 75 649 50 317 73 539 80 766 3 85 10 209 16 275 9 110
18 173 64 483 8 56 15 115 15 131 0 28 0 28 83 34 45 4 127 7 182 8 55 0 150
7 210 13 61 7 118 14 127 15 15 1 16 -12 14 -126z"/>
<path d="M15495 11351 c-84 -22 -127 -91 -95 -151 11 -20 -17 -156 -45 -224
-24 -57 -45 -184 -45 -271 0 -44 5 -169 11 -277 10 -171 9 -216 -5 -340 -10
-79 -27 -186 -38 -238 -19 -83 -22 -129 -23 -370 -2 -289 -7 -383 -30 -515 -8
-44 -21 -161 -29 -260 -41 -506 -40 -473 -22 -569 29 -150 63 -202 153 -235
28 -10 70 -32 94 -48 24 -17 88 -56 142 -87 111 -65 168 -111 318 -253 57 -54
127 -115 156 -136 49 -36 125 -130 223 -276 48 -72 117 -256 251 -673 12 -37
44 -107 70 -155 27 -48 71 -133 99 -188 27 -55 74 -131 104 -170 30 -38 94
-122 142 -185 105 -139 261 -317 336 -385 63 -58 169 -122 213 -131 41 -7 83
10 97 42 11 23 8 33 -17 79 l-28 53 7 264 c17 665 26 1194 27 1543 1 365 6
551 28 955 12 210 32 470 37 470 2 0 23 -13 47 -30 25 -16 74 -43 110 -59 88
-39 179 -110 627 -481 107 -89 213 -174 235 -188 22 -14 78 -58 125 -97 47
-39 128 -106 180 -150 52 -43 133 -113 180 -155 96 -86 228 -195 280 -230 19
-13 69 -51 111 -85 41 -33 109 -86 150 -117 41 -32 93 -77 116 -102 49 -52 88
-64 132 -42 38 20 54 50 48 90 -2 17 1 42 8 56 17 33 22 564 9 940 -9 283 -11
779 -6 1375 4 324 0 396 -28 545 -6 30 -10 141 -9 245 1 145 -3 203 -15 245
-14 48 -14 72 -1 225 10 127 11 194 4 265 -10 92 -11 120 -8 188 1 39 -15 60
-61 80 -105 44 -595 70 -1545 82 -401 5 -746 12 -765 15 -19 3 -172 9 -340 15
-199 6 -354 16 -445 29 -77 11 -223 27 -325 35 -102 9 -239 21 -304 26 -159
14 -603 22 -641 11z m570 -261 c163 -4 406 -4 580 1 199 7 349 6 445 -1 80 -5
260 -14 400 -20 308 -13 648 -35 825 -55 124 -14 397 -32 840 -55 110 -6 291
-11 403 -11 l202 0 0 -257 c0 -205 3 -266 16 -301 8 -25 14 -71 13 -105 -2
-63 5 -160 22 -332 9 -84 7 -126 -10 -265 -26 -211 -46 -681 -45 -1069 1 -661
16 -1334 29 -1395 7 -33 12 -62 10 -64 -2 -2 -46 36 -97 84 -51 48 -122 107
-158 133 -36 25 -85 64 -110 87 -25 24 -90 80 -146 126 -55 46 -167 143 -248
214 -82 72 -180 154 -220 184 -39 29 -132 108 -206 175 -74 66 -175 157 -225
200 -49 44 -115 102 -145 130 -30 27 -78 64 -107 82 -28 19 -77 56 -108 83
-31 27 -88 68 -125 91 -44 26 -102 77 -158 136 -96 101 -143 130 -197 120 -43
-8 -110 -58 -129 -95 -38 -73 -40 -112 -41 -706 -1 -558 -10 -827 -37 -1115
-15 -161 -13 -841 3 -1243 6 -148 9 -270 7 -272 -5 -5 -142 155 -236 274 -45
59 -102 131 -126 161 -79 100 -140 203 -199 340 -59 138 -157 384 -157 396 0
4 -13 28 -29 53 -17 25 -50 98 -74 162 -32 85 -61 140 -110 210 -122 171 -209
279 -261 322 -28 23 -117 103 -197 178 -168 156 -202 182 -348 256 -58 29
-113 58 -122 63 -15 8 -15 14 2 77 20 70 25 158 33 544 3 107 10 233 17 280 7
46 12 165 11 264 -1 99 4 336 10 526 9 267 8 373 -1 465 -12 120 -8 235 19
507 6 59 11 187 13 283 l2 177 95 -7 c52 -4 221 -11 375 -16z"/>
<path d="M6056 10968 c-14 -14 -31 -47 -41 -83 -9 -33 -38 -100 -65 -150 -26
-49 -56 -117 -65 -150 -10 -33 -49 -134 -87 -225 -109 -259 -135 -330 -179
-481 -22 -78 -76 -230 -120 -338 -44 -108 -104 -259 -134 -336 -29 -77 -62
-163 -74 -192 -11 -29 -38 -114 -60 -190 -22 -76 -63 -190 -91 -253 -29 -63
-65 -149 -82 -190 -16 -41 -36 -86 -43 -100 -22 -41 -123 -302 -134 -345 -5
-23 -8 -231 -6 -500 2 -421 4 -469 24 -569 11 -61 21 -127 21 -148 0 -67 60
-334 99 -441 42 -116 85 -179 144 -209 68 -34 127 1 127 76 0 19 7 27 33 34
59 19 131 32 267 51 123 17 168 18 495 10 415 -9 476 -13 680 -40 83 -11 200
-26 260 -34 61 -7 187 -17 280 -20 94 -3 224 -15 290 -25 75 -12 168 -18 250
-18 90 1 173 -6 270 -22 109 -17 162 -21 240 -16 147 9 146 9 167 37 18 24 19
45 19 400 -1 206 -4 406 -7 444 -7 96 3 124 48 140 63 21 227 123 337 209 58
45 138 105 176 132 39 26 113 83 165 125 108 87 276 212 465 349 181 130 273
207 290 240 31 61 12 102 -55 114 -114 20 -201 27 -287 22 -54 -2 -260 -9
-458 -15 -198 -6 -391 -15 -430 -20 -38 -6 -124 -11 -190 -11 -66 0 -160 -5
-210 -11 -49 -5 -272 -14 -495 -19 -244 -5 -457 -15 -535 -24 -71 -9 -197 -16
-280 -16 -82 0 -215 -8 -295 -17 -80 -9 -190 -17 -245 -17 l-100 -1 -8 85 c-4
47 -6 231 -2 410 5 295 3 336 -15 445 -11 66 -20 158 -20 205 0 85 -10 226
-30 455 -5 66 -27 206 -48 310 -35 182 -37 199 -38 410 -2 311 -26 454 -83
484 -11 6 -32 23 -45 36 -31 31 -58 32 -90 3z m125 -813 c7 -126 11 -408 10
-625 -1 -217 3 -431 8 -475 6 -44 17 -207 25 -362 9 -156 20 -302 26 -326 5
-24 12 -99 15 -168 8 -156 9 -163 38 -176 18 -8 218 -9 708 -2 376 5 920 11
1209 14 289 3 575 10 635 15 61 5 209 12 330 15 121 3 267 12 325 20 58 8 138
16 179 19 l74 5 -24 -26 c-33 -36 -272 -215 -404 -303 -60 -40 -148 -104 -195
-140 -101 -80 -256 -182 -395 -260 -55 -31 -132 -81 -170 -111 -54 -42 -77
-54 -104 -54 -31 0 -38 -5 -53 -35 -17 -32 -18 -57 -12 -275 3 -132 9 -280 14
-330 5 -49 12 -147 16 -218 6 -106 4 -127 -7 -122 -8 3 -138 10 -289 16 -151
5 -320 14 -375 19 -55 5 -171 14 -257 19 -86 5 -162 12 -168 16 -13 8 -320 23
-595 30 -104 2 -221 8 -260 13 -70 9 -756 -1 -785 -12 -8 -3 -74 -10 -147 -16
-73 -6 -173 -19 -224 -30 -50 -11 -95 -18 -99 -15 -24 15 -99 351 -100 445 -1
25 -7 77 -16 115 -8 39 -17 140 -20 225 -7 176 10 675 27 765 21 121 119 404
226 660 25 61 77 202 114 315 37 113 89 259 117 325 27 66 84 203 126 305 42
102 97 251 121 331 52 169 163 489 281 809 3 8 19 -30 35 -85 25 -88 30 -127
40 -330z"/>
<path d="M13630 10120 c-19 -11 -42 -19 -51 -20 -9 0 -70 -35 -135 -78 -66
-43 -155 -98 -199 -122 -168 -91 -322 -185 -385 -235 -36 -28 -119 -90 -185
-138 -66 -47 -169 -125 -230 -172 -95 -73 -508 -355 -647 -441 -75 -47 -529
-364 -578 -404 -25 -20 -90 -65 -145 -99 -55 -35 -120 -79 -145 -100 -25 -20
-74 -58 -110 -83 -36 -25 -91 -68 -123 -96 -31 -27 -88 -66 -125 -88 -75 -44
-174 -117 -242 -178 -25 -23 -101 -88 -170 -146 -68 -58 -164 -144 -214 -191
-109 -104 -213 -184 -406 -314 -80 -53 -161 -110 -180 -125 -19 -15 -57 -40
-85 -56 -27 -16 -93 -69 -146 -119 -52 -49 -116 -109 -141 -131 -41 -38 -46
-47 -52 -100 -3 -33 -13 -72 -21 -89 -24 -50 -66 -358 -76 -565 -15 -291 -15
-441 -2 -690 18 -337 20 -645 4 -1050 -12 -305 -12 -423 -1 -720 21 -600 27
-713 38 -775 18 -100 33 -205 43 -310 5 -55 18 -153 29 -219 11 -65 20 -151
20 -190 0 -39 12 -204 25 -366 24 -275 25 -307 14 -477 -12 -177 -12 -183 10
-246 55 -163 71 -274 46 -310 -8 -12 -15 -32 -15 -45 0 -28 42 -72 70 -72 11
0 73 25 137 56 189 90 255 108 403 108 115 1 130 3 185 29 33 15 94 40 135 54
41 14 83 32 92 40 9 8 31 22 49 31 23 12 36 27 42 51 9 36 -2 149 -28 281 -26
133 -23 298 16 875 7 104 9 266 5 420 -4 137 -9 464 -12 726 -6 468 -5 479 17
585 20 98 23 138 23 404 1 325 -7 519 -31 714 -13 110 -13 154 -3 295 l12 166
182 -1 c99 -1 224 -7 275 -14 107 -14 117 -14 1001 -8 565 4 650 6 682 21 48
20 59 57 30 97 -22 29 -25 52 -52 320 -6 58 -13 119 -14 135 -2 17 1 57 6 91
6 38 5 96 -1 157 -7 67 -6 117 1 162 l11 65 38 0 c39 0 63 -3 334 -39 112 -15
252 -23 550 -31 348 -8 410 -12 475 -30 130 -34 250 -23 289 27 22 27 22 79
-1 188 -6 28 -12 82 -13 120 -6 129 -22 216 -53 274 -16 31 -42 94 -57 141
-15 47 -50 132 -78 189 -43 92 -59 114 -136 189 -47 47 -110 101 -139 119 -42
27 -52 38 -47 54 4 10 -1 72 -11 137 -13 94 -15 153 -10 302 4 102 11 219 16
260 5 41 14 138 20 215 14 188 33 334 70 550 18 99 38 238 46 310 8 71 21 161
29 200 7 38 19 111 25 160 6 50 18 127 26 171 11 60 12 89 4 109 -9 24 -7 32
11 51 12 13 19 30 16 38 -8 20 -14 20 -57 -4z m-231 -353 c-47 -142 -64 -240
-84 -497 -29 -356 -43 -534 -55 -660 -15 -162 -23 -980 -11 -1014 6 -13 35
-43 65 -66 30 -23 65 -58 77 -78 11 -20 32 -50 46 -67 142 -174 320 -493 349
-624 8 -36 22 -99 31 -139 17 -74 10 -130 -15 -125 -48 10 -350 23 -547 23
-182 0 -271 5 -370 19 -187 27 -551 30 -673 5 -16 -3 -30 -19 -44 -51 -23 -52
-20 -101 11 -162 15 -28 17 -41 9 -56 -7 -12 -8 -60 -3 -144 11 -159 8 -248
-10 -336 -8 -38 -15 -104 -15 -146 0 -42 -3 -90 -6 -107 l-6 -30 -117 2 c-64
0 -167 -6 -229 -13 -95 -12 -127 -13 -200 -2 -48 7 -213 17 -367 22 -154 4
-302 11 -328 15 -48 7 -164 -5 -314 -32 -73 -13 -93 -13 -185 1 -57 9 -128 19
-158 22 -41 5 -59 12 -73 30 -24 30 -58 29 -88 -3 -27 -29 -26 -3 -16 -354 6
-234 -4 -563 -23 -713 -4 -38 -4 -262 1 -505 6 -300 6 -490 -2 -607 -6 -93
-12 -483 -13 -865 -2 -429 -8 -766 -16 -880 -11 -157 -11 -215 2 -385 9 -110
13 -223 11 -250 l-5 -51 -51 -13 c-29 -7 -90 -21 -137 -30 -47 -10 -161 -43
-255 -74 -107 -35 -203 -60 -257 -67 -48 -6 -94 -13 -102 -16 -26 -10 -33 98
-27 446 2 88 -4 200 -14 285 -18 153 -31 315 -44 560 -5 88 -14 205 -20 260
-5 55 -13 255 -16 445 -3 189 -10 401 -16 470 -5 69 -14 187 -19 263 -5 76
-13 144 -17 149 -9 16 -25 737 -30 1373 -7 916 -6 1145 6 1260 10 96 9 125 -7
223 -27 162 -30 156 220 344 32 24 104 81 160 128 57 47 163 128 236 180 176
126 259 186 325 237 30 23 95 68 143 99 49 32 118 81 154 110 36 28 117 83
180 122 63 38 174 109 245 157 72 49 189 128 260 175 72 48 182 129 247 181
216 174 272 218 498 386 123 93 252 193 285 223 71 65 126 107 295 219 69 46
145 100 170 121 67 54 216 160 343 243 62 40 159 112 216 160 94 79 189 151
371 279 36 25 66 45 67 44 1 0 -16 -54 -38 -119z"/>
<path d="M2755 8860 c-66 -16 -143 -21 -440 -30 -227 -7 -391 -16 -445 -26
-114 -20 -451 -37 -575 -29 -55 4 -152 9 -215 12 -63 2 -139 5 -168 7 -28 1
-58 8 -64 14 -18 18 -66 14 -87 -7 -27 -27 -36 -172 -17 -274 12 -63 13 -94 4
-165 -6 -48 -8 -152 -5 -232 6 -174 -3 -274 -38 -440 -30 -143 -29 -225 5
-325 29 -85 56 -116 111 -124 82 -12 722 21 844 44 129 24 297 46 303 40 6 -5
8 -368 4 -615 -4 -253 -1 -490 8 -566 7 -70 12 -82 39 -106 44 -40 85 -37 127
7 33 35 33 35 196 55 90 12 213 34 273 49 61 16 187 41 280 56 245 39 392 71
431 94 19 12 59 24 87 27 l52 6 -4 -83 c-3 -80 15 -293 41 -479 7 -47 13 -206
14 -355 1 -155 6 -293 13 -325 6 -30 17 -103 25 -162 24 -190 60 -223 246
-223 84 0 104 4 175 32 100 41 178 92 289 189 92 80 174 139 268 192 69 40
186 168 228 251 16 32 35 61 43 64 29 11 107 128 107 160 0 38 -33 109 -76
163 -18 23 -40 56 -48 75 -27 62 -94 282 -120 395 -64 279 -119 761 -121 1059
-1 141 -8 198 -28 223 -6 8 -10 27 -9 42 1 15 -6 38 -17 51 l-19 24 -284 0
c-288 -1 -460 -8 -603 -25 -44 -5 -122 -12 -174 -15 l-93 -5 6 30 c3 17 -3
178 -14 358 -12 204 -17 373 -13 448 5 106 3 133 -17 214 -13 51 -30 113 -40
139 -15 42 -19 46 -48 46 -18 0 -32 5 -32 11 0 6 -9 19 -19 28 -31 29 -279 32
-386 6z m386 -336 c-7 -87 -7 -151 -1 -190 6 -33 10 -138 10 -235 0 -111 7
-240 20 -350 11 -96 20 -198 20 -227 0 -42 5 -58 24 -76 35 -36 141 -43 337
-21 87 9 285 21 441 26 156 5 306 12 334 15 l50 6 -3 -174 c-2 -95 -8 -195
-14 -221 -15 -80 -12 -152 22 -412 6 -44 22 -125 35 -180 13 -55 29 -140 34
-190 11 -96 67 -289 106 -367 13 -26 44 -70 68 -97 30 -33 50 -68 61 -107 9
-31 23 -67 32 -80 32 -49 -24 -182 -108 -259 -30 -28 -89 -86 -132 -130 -44
-44 -102 -103 -130 -132 -41 -42 -66 -57 -131 -81 -45 -16 -126 -46 -180 -66
-98 -36 -270 -86 -298 -86 -12 0 -16 38 -23 213 -5 116 -10 318 -11 447 -1
185 -6 263 -22 365 -12 72 -26 179 -32 239 -12 119 -40 208 -91 287 -44 67
-72 74 -184 45 -32 -9 -75 -16 -94 -16 -19 0 -84 -16 -145 -36 -99 -32 -128
-37 -266 -45 -133 -7 -180 -14 -337 -53 -115 -29 -213 -60 -268 -86 -48 -22
-89 -40 -90 -40 -7 0 5 473 15 539 16 114 17 583 1 638 -10 35 -21 49 -64 76
-29 18 -60 36 -71 40 -11 4 -75 -9 -160 -34 -121 -36 -153 -42 -230 -41 -81 1
-236 -15 -376 -38 -30 -4 -90 -9 -132 -9 -42 -1 -89 -6 -105 -12 -51 -20 -138
-38 -146 -30 -4 5 -3 39 4 77 8 48 10 133 5 284 -4 118 -9 373 -12 565 -3 193
-6 363 -7 380 -2 28 0 30 45 36 26 4 53 11 60 16 15 9 137 16 618 32 195 6
486 17 645 24 160 6 419 12 577 12 157 0 290 4 295 8 13 14 15 -107 4 -249z"/>
<path d="M17815 8077 l-33 -33 5 -240 c4 -170 1 -307 -11 -474 -21 -302 -26
-597 -27 -1552 0 -533 3 -783 10 -797 15 -26 58 -56 141 -97 38 -18 109 -58
157 -87 48 -30 117 -69 152 -87 35 -17 125 -68 199 -112 74 -44 157 -90 186
-103 28 -12 96 -44 151 -70 55 -26 138 -63 185 -82 47 -20 119 -52 160 -73
176 -88 465 -178 605 -190 50 -4 98 -15 128 -29 70 -33 130 -13 161 53 18 38
24 353 11 573 -4 81 -3 196 4 295 6 90 18 305 26 478 9 173 25 422 36 552 31
382 28 402 -74 490 -28 25 -75 66 -103 91 -28 24 -96 74 -150 110 -55 36 -138
94 -185 129 -48 35 -133 97 -190 138 -252 182 -429 329 -584 486 -97 98 -183
166 -389 309 -55 37 -131 96 -169 129 -230 201 -266 226 -325 226 -36 0 -50
-6 -77 -33z m142 -254 c31 -26 81 -63 109 -82 85 -59 211 -159 277 -220 34
-32 130 -108 212 -169 83 -61 176 -133 208 -159 95 -77 179 -136 248 -172 91
-48 196 -131 344 -271 133 -126 284 -253 354 -296 75 -46 72 -34 47 -184 -11
-73 -16 -215 -20 -605 -4 -402 -9 -552 -25 -709 -21 -218 -17 -390 14 -626 8
-63 17 -130 20 -147 2 -23 0 -33 -9 -33 -18 0 -181 60 -356 131 -80 32 -176
70 -215 84 -38 15 -169 78 -290 142 -121 64 -267 140 -325 171 -58 30 -116 63
-130 72 -14 10 -77 46 -140 80 -106 57 -205 123 -337 222 l-52 40 7 591 c9
805 6 1544 -8 1632 -12 71 -15 528 -5 545 9 14 9 14 72 -37z"/>
<path d="M1655 7010 c-55 -20 -267 -44 -525 -60 -164 -10 -315 -31 -348 -49
-37 -20 -56 -52 -58 -99 0 -26 -7 -60 -14 -77 -13 -31 -19 -119 -44 -645 -12
-243 -13 -341 -5 -429 14 -143 6 -518 -16 -711 -29 -269 -35 -394 -30 -658 7
-325 10 -335 116 -335 42 0 244 91 354 158 87 54 222 110 312 130 37 9 77 19
89 24 24 10 361 83 472 102 65 11 84 10 194 -11 118 -22 128 -23 337 -12 225
13 319 28 442 75 35 13 109 39 164 57 55 17 115 41 133 52 18 11 58 33 90 48
92 45 133 104 92 133 -20 14 -22 29 -32 188 -12 197 -14 782 -3 887 5 54 3 76
-9 100 -20 39 -30 45 -91 53 -27 4 -72 11 -100 16 -27 6 -131 9 -230 9 -174
-1 -185 -3 -317 -38 -75 -20 -172 -42 -215 -48 -142 -21 -302 -74 -507 -169
-49 -23 -92 -38 -95 -35 -10 10 -3 110 14 202 19 96 23 294 16 767 -4 296 -7
318 -54 368 -30 32 -59 33 -132 7z m53 -222 c19 -104 20 -130 12 -320 -5 -113
-9 -287 -8 -385 0 -98 0 -205 -1 -239 -1 -69 -40 -242 -72 -320 -21 -50 -21
-54 -6 -78 10 -14 34 -30 57 -37 35 -11 46 -10 88 9 113 50 240 101 282 112
25 6 103 29 173 51 259 79 524 140 646 150 64 4 154 13 200 18 47 6 87 8 90 6
15 -15 18 -121 6 -210 -18 -134 -18 -526 0 -625 7 -41 16 -100 20 -130 3 -30
15 -70 26 -88 10 -19 17 -37 14 -41 -7 -12 -150 -68 -257 -101 -180 -55 -553
-110 -758 -112 -69 0 -163 -7 -209 -14 -46 -8 -116 -14 -155 -14 -186 0 -686
-155 -990 -307 l-109 -55 6 124 c4 68 13 211 21 318 12 156 13 216 4 301 -12
106 -6 221 32 619 41 431 51 752 36 1102 -8 157 -7 188 5 192 8 2 70 22 139
44 172 56 353 98 506 117 70 9 130 18 133 20 2 3 14 5 26 5 20 0 24 -10 43
-112z"/>
<path d="M15935 6866 c-36 -16 -53 -35 -88 -99 -40 -73 -57 -156 -57 -275 -1
-59 -7 -134 -15 -167 -8 -33 -15 -79 -15 -101 0 -23 -6 -72 -14 -110 -79 -382
-89 -994 -22 -1291 36 -158 39 -185 41 -333 4 -264 18 -364 89 -645 37 -143
80 -327 96 -408 52 -261 112 -458 214 -704 52 -125 130 -331 174 -458 44 -126
101 -280 126 -342 25 -61 61 -160 80 -220 70 -225 136 -356 278 -551 15 -20
37 -62 49 -92 54 -143 191 -333 341 -475 117 -111 149 -125 279 -125 57 1 131
7 164 15 72 18 238 19 390 4 114 -11 291 -16 867 -23 185 -3 379 -9 430 -15
51 -6 192 -16 313 -22 148 -8 229 -16 247 -25 59 -30 124 -8 153 53 22 45 22
70 13 753 -7 471 -12 593 -39 950 -12 160 0 559 21 695 9 54 3 233 -15 460 -3
39 -5 93 -5 121 1 60 -28 103 -82 124 -18 7 -76 33 -129 57 -77 34 -118 46
-200 57 -247 33 -431 97 -663 229 -100 58 -310 170 -469 250 -305 155 -346
179 -472 280 -248 197 -298 236 -385 293 -52 35 -131 95 -175 134 -44 38 -118
102 -165 142 -230 197 -422 415 -655 744 -176 249 -365 607 -453 861 -63 184
-93 236 -148 259 -41 17 -60 17 -99 0z m65 -596 c18 -35 43 -81 56 -102 13
-21 71 -123 129 -228 110 -201 162 -283 230 -365 23 -27 68 -88 100 -135 32
-47 95 -129 139 -184 45 -54 111 -136 148 -181 83 -102 278 -279 395 -358 48
-32 142 -110 208 -172 249 -233 519 -436 722 -543 204 -107 389 -197 516 -249
61 -25 175 -77 252 -115 307 -154 506 -225 737 -263 84 -14 164 -25 178 -25
l25 0 2 -179 c1 -101 8 -225 17 -283 20 -135 36 -448 38 -778 2 -243 -8 -447
-32 -655 -5 -44 -12 -215 -15 -380 -3 -165 -8 -328 -11 -362 l-6 -63 -107 0
c-60 0 -198 -4 -307 -9 -511 -25 -1682 -32 -1829 -12 -107 15 -116 21 -188
141 -53 89 -106 162 -181 249 -51 60 -93 137 -130 235 -14 38 -57 121 -95 185
-39 67 -96 186 -135 283 -36 92 -66 169 -66 172 0 4 -34 79 -76 169 -42 89
-100 221 -129 292 -30 72 -79 189 -110 260 -97 223 -212 586 -280 890 -38 168
-71 293 -111 417 -19 59 -43 147 -54 196 -11 50 -24 102 -30 117 -13 35 -48
269 -61 405 -5 58 -18 167 -29 244 -19 124 -20 168 -14 410 5 235 4 296 -14
461 -30 273 -34 381 -17 468 8 40 19 110 24 155 6 46 14 88 17 94 4 6 19 -22
34 -63 15 -41 42 -103 60 -139z"/>
<path d="M12705 6111 c-38 -3 -77 -11 -86 -16 -34 -21 -80 -85 -86 -118 -3
-19 3 -167 12 -328 17 -285 15 -393 -6 -471 -9 -33 -14 -38 -40 -38 -19 0 -39
-9 -55 -25 -37 -37 -152 -45 -254 -17 -117 33 -164 35 -310 17 -89 -11 -194
-16 -310 -15 -96 2 -213 2 -259 1 -47 -1 -160 5 -252 14 -153 14 -177 14 -276
0 -59 -9 -141 -27 -181 -41 -40 -13 -87 -24 -105 -24 -40 0 -73 -31 -88 -81
-5 -19 -12 -169 -15 -334 -2 -165 -9 -373 -14 -463 -11 -179 -23 -1140 -24
-1912 -1 -542 10 -702 59 -885 23 -86 34 -157 55 -363 8 -87 23 -130 59 -174
21 -26 116 -50 190 -47 36 1 86 -1 111 -5 34 -6 57 -3 88 9 34 14 63 16 155
11 61 -3 223 -9 359 -15 135 -5 250 -11 255 -14 17 -10 383 -56 503 -62 63 -4
191 -15 285 -26 278 -31 455 -22 495 26 7 8 25 15 41 15 38 0 62 26 54 59 -12
49 -77 171 -114 213 -54 62 -96 132 -188 318 -135 273 -180 372 -204 450 -12
41 -34 100 -50 130 -15 31 -32 80 -37 110 -6 30 -15 68 -21 83 -6 16 -18 58
-25 95 -8 37 -29 126 -45 199 -64 280 -72 764 -15 899 12 28 17 71 18 159 l1
120 80 0 c44 1 139 7 210 14 205 20 441 26 486 11 44 -15 86 -3 107 30 6 11
34 84 61 162 56 167 83 215 187 340 100 120 144 188 209 323 81 169 122 294
253 760 l44 160 3 250 c1 143 -2 271 -8 300 -5 28 -9 67 -8 88 1 30 -5 44 -28
67 -33 34 -47 36 -112 16 -88 -27 -306 -18 -627 24 -77 11 -418 11 -537 1z
m953 -163 l214 -12 -5 -33 c-3 -17 -11 -121 -17 -230 -12 -214 -45 -434 -87
-573 -14 -47 -38 -131 -54 -186 -43 -155 -229 -585 -302 -700 -14 -23 -74
-138 -133 -255 -59 -118 -108 -215 -109 -217 -4 -5 -505 -16 -628 -14 -98 2
-134 -1 -157 -13 -31 -16 -45 -49 -38 -89 4 -19 1 -23 -20 -23 -32 0 -46 -17
-68 -83 -19 -56 -26 -145 -40 -495 -8 -205 7 -387 39 -480 13 -38 36 -122 51
-185 31 -130 75 -272 105 -342 11 -26 24 -80 30 -121 6 -41 15 -87 21 -102 6
-15 17 -75 25 -134 13 -99 19 -115 87 -250 72 -145 120 -227 207 -356 47 -69
76 -133 66 -143 -3 -3 -83 0 -178 7 -94 6 -305 16 -467 21 -162 5 -340 14
-395 19 -137 14 -645 32 -835 30 -93 0 -166 3 -183 10 -36 14 -95 14 -136 0
-18 -6 -34 -10 -36 -7 -10 10 -25 192 -31 368 -3 107 -9 231 -12 275 -4 44 -4
220 0 390 37 1693 38 2387 2 2774 l-7 74 29 -7 c34 -8 382 -26 398 -21 14 5
263 22 491 35 94 5 206 17 250 25 89 18 291 32 580 41 136 4 196 10 212 20 13
8 34 11 51 8 22 -5 35 -1 50 14 41 41 46 82 48 417 1 176 7 358 13 405 6 46
11 90 11 97 0 10 31 13 128 13 120 0 320 12 497 29 44 4 89 9 100 10 11 1 116
-4 233 -11z"/>
<path d="M6285 5820 c-55 -4 -129 -13 -165 -18 -36 -6 -117 -16 -180 -22 -148
-14 -200 -26 -232 -53 -42 -35 -131 -276 -158 -426 -33 -186 -259 -683 -481
-1056 -53 -88 -102 -176 -109 -195 -7 -19 -47 -82 -89 -140 -41 -58 -93 -132
-115 -165 -63 -95 -213 -281 -240 -298 -50 -33 -166 -225 -166 -276 0 -42 54
-54 255 -56 182 -2 331 -15 395 -34 71 -22 251 -8 513 39 108 19 347 28 347
13 0 -4 -11 -45 -26 -92 -33 -111 -77 -207 -136 -296 -48 -70 -54 -79 -139
-190 -89 -117 -174 -250 -234 -370 -50 -97 -65 -139 -79 -215 -10 -52 -25
-125 -34 -162 -20 -81 -12 -109 39 -150 27 -22 53 -31 105 -39 38 -5 119 -20
181 -34 75 -17 144 -25 205 -25 68 0 115 -7 174 -24 102 -30 196 -45 344 -54
l114 -7 17 -135 c12 -89 20 -241 23 -447 6 -296 11 -353 35 -368 6 -3 9 -16 6
-28 -15 -65 113 -100 271 -73 135 22 279 28 384 16 199 -23 449 -30 654 -20
110 6 350 15 531 19 182 5 350 14 375 20 25 5 71 15 103 21 38 8 60 18 67 31
16 28 -3 56 -45 63 -27 5 -35 12 -36 29 -1 12 -5 67 -9 122 -4 55 -13 181 -19
280 -14 219 -29 414 -41 515 -14 124 -11 624 5 710 11 62 12 160 4 560 -12
582 -26 1013 -39 1210 -12 176 -30 773 -35 1190 -3 168 -6 325 -7 350 -1 25 2
62 7 82 11 53 -22 117 -77 148 -62 35 -208 40 -893 34 -417 -4 -619 -3 -690 5
-128 15 -550 22 -680 11z m1535 -311 c151 -5 359 -12 463 -15 l187 -7 -2 -491
c-1 -362 2 -519 11 -596 11 -79 14 -313 16 -955 1 -593 6 -892 15 -990 14
-160 18 -846 6 -1060 -10 -166 11 -372 50 -495 19 -61 50 -287 40 -297 -1 -1
-283 -4 -626 -7 -630 -4 -877 -16 -985 -48 -43 -13 -343 -16 -406 -4 l-37 6
-3 258 c-4 307 -4 483 2 612 4 91 3 97 -24 135 -35 50 -56 61 -132 70 -33 4
-87 13 -120 20 -33 8 -94 17 -135 20 -41 4 -111 13 -155 20 -44 8 -159 17
-255 20 -96 3 -182 8 -190 10 -8 2 -44 6 -79 10 -71 6 -81 10 -81 30 0 25 85
207 134 288 60 99 86 157 125 282 18 61 49 129 77 175 25 41 55 93 66 115 28
56 170 265 179 265 5 0 24 14 44 31 28 25 40 48 60 113 29 98 45 192 38 229
-7 36 -57 77 -94 77 -17 0 -42 -6 -57 -14 -15 -8 -56 -19 -92 -24 -36 -6 -94
-16 -130 -22 -94 -16 -222 -15 -324 4 -113 20 -346 22 -425 2 -77 -19 -217
-29 -288 -20 -32 4 -52 9 -45 12 13 4 138 169 174 228 57 94 152 240 202 309
32 44 71 105 86 136 16 30 64 113 108 185 352 574 486 854 524 1089 10 66 22
162 25 212 3 51 9 90 14 87 13 -7 686 -3 914 6 215 9 682 4 1125 -11z"/>
<path d="M5190 5502 c-122 -64 -179 -116 -242 -221 -28 -47 -92 -140 -142
-206 -49 -66 -100 -133 -112 -150 -34 -45 -322 -335 -379 -381 -65 -53 -235
-156 -316 -193 -162 -73 -502 -173 -691 -202 -64 -10 -152 -27 -195 -38 -43
-10 -114 -22 -157 -26 -44 -3 -136 -17 -205 -30 -69 -13 -225 -31 -346 -40
-121 -9 -265 -22 -320 -30 -55 -8 -142 -19 -194 -25 -96 -11 -322 -64 -536
-126 -136 -40 -374 -160 -450 -226 -67 -59 -194 -233 -235 -323 -21 -44 -54
-107 -74 -140 -20 -33 -39 -75 -42 -92 -3 -18 -21 -48 -39 -68 -47 -49 -55
-102 -55 -354 1 -148 -4 -251 -15 -326 -21 -143 -34 -629 -34 -1304 -1 -703
-16 -661 231 -661 96 0 201 -8 318 -24 185 -25 374 -28 845 -11 112 4 231 2
315 -5 326 -29 857 -27 1010 3 41 9 107 18 145 22 92 9 128 27 166 84 28 43
30 51 26 116 -2 39 -12 115 -20 170 -9 55 -24 172 -33 260 -20 198 -36 851
-23 944 27 193 136 535 234 736 61 126 369 611 488 769 98 131 243 330 327
451 46 66 125 176 175 245 128 176 165 231 285 430 59 96 135 219 169 273 87
136 137 232 165 314 13 39 35 88 50 109 38 58 70 228 48 260 -24 36 -90 43
-142 16z m-213 -612 c-79 -158 -230 -377 -345 -500 -49 -52 -110 -124 -135
-158 -26 -35 -76 -101 -112 -145 -99 -125 -185 -243 -247 -337 -63 -96 -186
-260 -332 -441 -136 -168 -171 -221 -266 -397 -139 -258 -224 -471 -293 -732
-53 -200 -67 -296 -73 -495 -3 -99 -12 -227 -21 -285 -16 -112 -12 -393 7
-475 5 -22 14 -80 20 -130 6 -49 20 -127 31 -173 12 -46 18 -87 14 -90 -11
-11 -1463 -8 -1840 4 -277 9 -390 9 -540 -1 -105 -7 -197 -16 -206 -20 -15 -6
-16 4 -13 97 3 57 9 207 14 333 5 127 9 435 9 685 1 250 3 480 6 510 35 403
42 715 18 778 -7 19 -1 41 31 105 36 74 57 99 212 252 l172 170 148 72 c294
142 640 264 814 285 115 14 169 14 277 3 70 -7 271 7 563 40 69 8 153 17 187
20 92 9 395 88 498 130 50 20 135 52 190 72 147 51 366 160 480 238 189 128
240 161 307 198 93 52 255 174 303 229 23 25 54 70 69 99 53 98 108 191 111
187 2 -2 -24 -60 -58 -128z"/>
<path d="M15245 3229 c-95 -10 -745 -31 -1035 -33 -129 -1 -327 -7 -440 -14
-113 -6 -356 -14 -540 -17 -355 -6 -418 -11 -449 -39 -11 -10 -35 -25 -53 -34
-22 -11 -41 -34 -58 -67 -24 -48 -25 -57 -24 -240 0 -204 20 -358 69 -535 13
-47 26 -108 29 -137 8 -69 60 -225 134 -404 82 -199 125 -282 222 -429 81
-121 119 -194 155 -293 9 -26 37 -75 63 -110 25 -34 56 -76 69 -94 13 -18 40
-45 59 -59 30 -23 45 -27 92 -26 31 1 113 -10 182 -24 l125 -26 470 6 c510 6
680 -1 1000 -40 222 -27 535 -32 780 -13 72 5 207 9 300 9 143 0 179 3 225 19
85 30 110 73 70 124 -11 14 -20 36 -20 50 0 15 -22 53 -53 93 -130 167 -241
362 -332 584 -25 63 -75 167 -110 231 -34 64 -79 158 -99 210 -20 52 -54 139
-76 194 -80 205 -102 275 -140 466 -62 306 -161 587 -226 638 -25 19 -38 21
-173 19 -80 0 -177 -5 -216 -9z m341 -256 c3 -27 17 -82 31 -123 13 -41 30
-101 39 -135 46 -183 150 -466 209 -570 26 -46 37 -71 139 -330 90 -229 333
-721 408 -825 136 -190 158 -221 158 -227 0 -7 -245 4 -375 17 -235 24 -431
32 -1420 60 -203 6 -406 15 -450 21 -228 28 -615 30 -710 3 -17 -4 -28 8 -65
73 -24 43 -72 115 -106 160 -79 105 -167 259 -198 348 -13 39 -51 138 -86 220
-34 83 -86 215 -115 295 -29 80 -63 170 -75 200 -28 70 -61 220 -93 425 -43
266 -54 359 -50 392 l5 32 31 -15 c27 -14 104 -16 631 -17 452 -1 623 2 690
12 74 11 151 11 440 1 266 -9 374 -9 446 -1 52 6 178 14 280 18 102 3 187 7
189 9 2 2 12 4 22 4 14 0 19 -11 25 -47z"/>
<path d="M4780 2921 c-58 -4 -110 -10 -117 -14 -6 -4 -66 -2 -132 4 -205 18
-308 -15 -370 -119 -14 -25 -40 -66 -58 -91 -18 -25 -44 -64 -59 -86 -63 -92
-181 -430 -214 -615 -4 -25 -15 -77 -24 -115 -8 -39 -16 -97 -16 -130 -1 -33
-9 -96 -18 -140 -10 -52 -16 -125 -15 -210 0 -71 -3 -249 -9 -395 -8 -229 -7
-278 7 -360 9 -52 24 -109 34 -125 10 -17 21 -42 24 -57 13 -51 40 -58 327
-88 58 -6 369 -13 690 -15 322 -2 621 -9 664 -15 89 -11 439 3 493 21 44 14
93 82 93 130 0 20 -7 53 -15 72 -11 27 -15 77 -15 201 0 159 1 167 31 253 39
107 49 211 26 247 -22 34 -119 63 -247 75 -118 11 -324 43 -445 69 -59 12
-128 17 -263 17 l-183 0 6 50 c4 28 11 65 15 84 5 19 21 104 35 190 40 248 43
259 69 297 14 20 42 87 63 148 43 128 185 420 235 486 63 82 76 160 33 200
-24 23 -35 25 -203 31 -203 9 -294 8 -442 0z m-435 -171 c33 -4 63 -6 67 -3 4
2 144 -1 311 -7 287 -9 394 -6 520 16 l39 7 -25 -49 c-14 -27 -50 -89 -81
-139 -31 -49 -88 -153 -127 -230 -54 -109 -72 -156 -79 -205 -4 -36 -26 -108
-48 -160 -60 -143 -71 -202 -74 -397 -3 -169 -3 -171 21 -197 14 -14 30 -26
37 -26 6 0 18 -7 25 -17 23 -27 74 -43 175 -53 53 -6 124 -17 158 -26 33 -9
95 -22 136 -29 41 -7 122 -23 180 -35 66 -14 144 -23 210 -24 l105 -1 -5 -55
c-10 -107 -5 -514 7 -552 l11 -37 -41 -6 c-93 -14 -396 -8 -492 10 -48 8 -186
13 -440 13 -359 1 -581 10 -811 34 -102 10 -199 7 -237 -8 -11 -4 -16 10 -23
68 -5 40 -9 107 -10 148 -1 41 -6 197 -11 345 -5 149 -5 315 -1 370 5 55 12
154 17 220 5 66 18 156 29 200 12 44 28 118 36 165 21 120 100 300 225 509 82
139 106 171 119 166 9 -4 44 -11 77 -15z"/>
</g>
</svg>
